<mxfile host="Electron" agent="Mozilla/5.0 (Windows NT 10.0; Win64; x64) AppleWebKit/537.36 (KHTML, like Gecko) draw.io/28.1.2 Chrome/138.0.7204.243 Electron/37.4.0 Safari/537.36" version="28.1.2">
  <diagram name="Page-1" id="OTqci73KEbUPyeaNJ40x">
    <mxGraphModel dx="1042" dy="626" grid="1" gridSize="10" guides="1" tooltips="1" connect="1" arrows="1" fold="1" page="1" pageScale="1" pageWidth="850" pageHeight="1100" math="0" shadow="0">
      <root>
        <mxCell id="0" />
        <mxCell id="1" parent="0" />
        <mxCell id="EOPVycMYMV6uETsPwLMP-10" value="" style="rounded=0;whiteSpace=wrap;html=1;" vertex="1" parent="1">
          <mxGeometry x="180" y="120" width="490" height="400" as="geometry" />
        </mxCell>
        <mxCell id="EOPVycMYMV6uETsPwLMP-1" value="&lt;font style=&quot;font-size: 21px;&quot;&gt;&lt;b&gt;DATA WAREHOUSE ARCHITECTURE&lt;/b&gt;&lt;/font&gt;" style="text;html=1;align=center;verticalAlign=middle;whiteSpace=wrap;rounded=0;" vertex="1" parent="1">
          <mxGeometry x="220" y="10" width="390" height="30" as="geometry" />
        </mxCell>
        <mxCell id="EOPVycMYMV6uETsPwLMP-2" value="" style="rounded=0;whiteSpace=wrap;html=1;" vertex="1" parent="1">
          <mxGeometry x="10" y="120" width="130" height="400" as="geometry" />
        </mxCell>
        <mxCell id="EOPVycMYMV6uETsPwLMP-4" value="" style="rounded=0;whiteSpace=wrap;html=1;fillColor=#B69846;" vertex="1" parent="1">
          <mxGeometry x="530" y="160" width="130" height="350" as="geometry" />
        </mxCell>
        <mxCell id="EOPVycMYMV6uETsPwLMP-5" value="" style="rounded=0;whiteSpace=wrap;html=1;fillColor=#663300;strokeColor=#36393d;" vertex="1" parent="1">
          <mxGeometry x="190" y="160" width="140" height="350" as="geometry" />
        </mxCell>
        <mxCell id="EOPVycMYMV6uETsPwLMP-6" value="" style="rounded=0;whiteSpace=wrap;html=1;fillColor=#808080;strokeColor=#36393d;" vertex="1" parent="1">
          <mxGeometry x="360" y="160" width="140" height="350" as="geometry" />
        </mxCell>
        <mxCell id="EOPVycMYMV6uETsPwLMP-7" value="&lt;b&gt;&lt;font style=&quot;font-size: 14px;&quot;&gt;Data Sources&lt;/font&gt;&lt;/b&gt;" style="text;html=1;align=center;verticalAlign=middle;whiteSpace=wrap;rounded=0;" vertex="1" parent="1">
          <mxGeometry x="20" y="70" width="110" height="30" as="geometry" />
        </mxCell>
        <mxCell id="EOPVycMYMV6uETsPwLMP-9" value="" style="rounded=0;whiteSpace=wrap;html=1;fillColor=#eeeeee;strokeColor=#36393d;" vertex="1" parent="1">
          <mxGeometry x="720" y="120" width="110" height="400" as="geometry" />
        </mxCell>
        <mxCell id="EOPVycMYMV6uETsPwLMP-11" value="&lt;font style=&quot;font-size: 14px;&quot;&gt;&lt;b&gt;Added Valor&lt;/b&gt;&lt;/font&gt;" style="text;html=1;align=center;verticalAlign=middle;whiteSpace=wrap;rounded=0;" vertex="1" parent="1">
          <mxGeometry x="720" y="70" width="110" height="30" as="geometry" />
        </mxCell>
        <mxCell id="EOPVycMYMV6uETsPwLMP-13" value="&lt;font style=&quot;font-size: 14px;&quot;&gt;&lt;b&gt;Architecture&lt;/b&gt;&lt;/font&gt;" style="text;html=1;align=center;verticalAlign=middle;whiteSpace=wrap;rounded=0;" vertex="1" parent="1">
          <mxGeometry x="370" y="70" width="110" height="30" as="geometry" />
        </mxCell>
        <mxCell id="EOPVycMYMV6uETsPwLMP-14" value="&lt;font style=&quot;font-size: 10px;&quot;&gt;Microsoft SQL Server&lt;/font&gt;" style="text;html=1;align=center;verticalAlign=middle;whiteSpace=wrap;rounded=0;" vertex="1" parent="1">
          <mxGeometry x="200" y="88" width="150" height="30" as="geometry" />
        </mxCell>
        <mxCell id="EOPVycMYMV6uETsPwLMP-22" value="" style="sketch=0;pointerEvents=1;shadow=0;dashed=0;html=1;strokeColor=none;fillColor=#DF8C42;labelPosition=center;verticalLabelPosition=bottom;verticalAlign=top;align=center;outlineConnect=0;shape=mxgraph.veeam2.microsoft_sql;" vertex="1" parent="1">
          <mxGeometry x="180" y="86" width="34" height="34" as="geometry" />
        </mxCell>
        <mxCell id="EOPVycMYMV6uETsPwLMP-23" value="" style="sketch=0;pointerEvents=1;shadow=0;dashed=0;html=1;strokeColor=#36393d;fillColor=#eeeeee;labelPosition=center;verticalLabelPosition=bottom;verticalAlign=top;outlineConnect=0;align=center;shape=mxgraph.office.concepts.folder;" vertex="1" parent="1">
          <mxGeometry x="50" y="160" width="50" height="40" as="geometry" />
        </mxCell>
        <mxCell id="EOPVycMYMV6uETsPwLMP-25" value="" style="sketch=0;pointerEvents=1;shadow=0;dashed=0;html=1;strokeColor=none;fillColor=#505050;labelPosition=center;verticalLabelPosition=bottom;verticalAlign=top;outlineConnect=0;align=center;shape=mxgraph.office.users.csv_file;" vertex="1" parent="1">
          <mxGeometry x="80" y="190" width="40" height="33" as="geometry" />
        </mxCell>
        <mxCell id="EOPVycMYMV6uETsPwLMP-26" value="" style="sketch=0;pointerEvents=1;shadow=0;dashed=0;html=1;strokeColor=#36393d;fillColor=#eeeeee;labelPosition=center;verticalLabelPosition=bottom;verticalAlign=top;outlineConnect=0;align=center;shape=mxgraph.office.concepts.folder;" vertex="1" parent="1">
          <mxGeometry x="50" y="310" width="50" height="40" as="geometry" />
        </mxCell>
        <mxCell id="EOPVycMYMV6uETsPwLMP-27" value="" style="sketch=0;pointerEvents=1;shadow=0;dashed=0;html=1;strokeColor=none;fillColor=#505050;labelPosition=center;verticalLabelPosition=bottom;verticalAlign=top;outlineConnect=0;align=center;shape=mxgraph.office.users.csv_file;" vertex="1" parent="1">
          <mxGeometry x="80" y="340" width="40" height="33" as="geometry" />
        </mxCell>
        <mxCell id="EOPVycMYMV6uETsPwLMP-28" value="&lt;b&gt;CRM&lt;/b&gt;" style="text;html=1;align=center;verticalAlign=middle;whiteSpace=wrap;rounded=0;" vertex="1" parent="1">
          <mxGeometry x="45" y="223" width="60" height="30" as="geometry" />
        </mxCell>
        <mxCell id="EOPVycMYMV6uETsPwLMP-29" value="&lt;b&gt;ERP&lt;/b&gt;" style="text;html=1;align=center;verticalAlign=middle;whiteSpace=wrap;rounded=0;" vertex="1" parent="1">
          <mxGeometry x="45" y="373" width="60" height="30" as="geometry" />
        </mxCell>
        <mxCell id="EOPVycMYMV6uETsPwLMP-30" value="&lt;font style=&quot;font-size: 9px;&quot;&gt;&lt;b&gt;Object Type :&lt;/b&gt; CSV Files&lt;/font&gt;&lt;div&gt;&lt;font size=&quot;1&quot;&gt;I&lt;b&gt;nterface :&lt;/b&gt; Files in Folder&lt;/font&gt;&lt;/div&gt;" style="text;html=1;align=left;verticalAlign=middle;whiteSpace=wrap;rounded=0;" vertex="1" parent="1">
          <mxGeometry x="15" y="420" width="120" height="30" as="geometry" />
        </mxCell>
        <mxCell id="EOPVycMYMV6uETsPwLMP-32" value="" style="html=1;verticalLabelPosition=bottom;align=center;labelBackgroundColor=#ffffff;verticalAlign=top;strokeWidth=2;strokeColor=#FFFFFF;shadow=0;dashed=0;shape=mxgraph.ios7.icons.data;fillColor=none;" vertex="1" parent="1">
          <mxGeometry x="240" y="209" width="40" height="41" as="geometry" />
        </mxCell>
        <mxCell id="EOPVycMYMV6uETsPwLMP-35" value="" style="html=1;verticalLabelPosition=bottom;align=center;labelBackgroundColor=#ffffff;verticalAlign=top;strokeWidth=2;strokeColor=#FFFFFF;shadow=0;dashed=0;shape=mxgraph.ios7.icons.data;fillColor=none;" vertex="1" parent="1">
          <mxGeometry x="410" y="203.5" width="40" height="41" as="geometry" />
        </mxCell>
        <mxCell id="EOPVycMYMV6uETsPwLMP-36" value="" style="html=1;verticalLabelPosition=bottom;align=center;labelBackgroundColor=#ffffff;verticalAlign=top;strokeWidth=2;strokeColor=#FFFFFF;shadow=0;dashed=0;shape=mxgraph.ios7.icons.data;fillColor=none;" vertex="1" parent="1">
          <mxGeometry x="575" y="200" width="40" height="41" as="geometry" />
        </mxCell>
        <mxCell id="EOPVycMYMV6uETsPwLMP-39" value="&lt;font style=&quot;font-size: 9px;&quot;&gt;Stored Procedure&lt;/font&gt;" style="text;html=1;align=center;verticalAlign=middle;whiteSpace=wrap;rounded=0;" vertex="1" parent="1">
          <mxGeometry x="210" y="160" width="100" height="30" as="geometry" />
        </mxCell>
        <mxCell id="EOPVycMYMV6uETsPwLMP-40" value="&lt;font style=&quot;font-size: 9px;&quot;&gt;Stored Procedure&lt;/font&gt;" style="text;html=1;align=center;verticalAlign=middle;whiteSpace=wrap;rounded=0;" vertex="1" parent="1">
          <mxGeometry x="380" y="160" width="100" height="30" as="geometry" />
        </mxCell>
        <mxCell id="EOPVycMYMV6uETsPwLMP-41" value="" style="endArrow=classic;html=1;rounded=0;exitX=0.5;exitY=1;exitDx=0;exitDy=0;dashed=1;" edge="1" parent="1" source="EOPVycMYMV6uETsPwLMP-39" target="EOPVycMYMV6uETsPwLMP-32">
          <mxGeometry width="50" height="50" relative="1" as="geometry">
            <mxPoint x="246" y="227" as="sourcePoint" />
            <mxPoint x="250" y="240" as="targetPoint" />
          </mxGeometry>
        </mxCell>
        <mxCell id="EOPVycMYMV6uETsPwLMP-44" style="edgeStyle=orthogonalEdgeStyle;rounded=0;orthogonalLoop=1;jettySize=auto;html=1;exitX=0.5;exitY=1;exitDx=0;exitDy=0;entryX=0.535;entryY=0.034;entryDx=0;entryDy=0;entryPerimeter=0;dashed=1;" edge="1" parent="1" source="EOPVycMYMV6uETsPwLMP-40" target="EOPVycMYMV6uETsPwLMP-35">
          <mxGeometry relative="1" as="geometry">
            <mxPoint x="424" y="247" as="targetPoint" />
          </mxGeometry>
        </mxCell>
        <mxCell id="EOPVycMYMV6uETsPwLMP-45" value="&lt;font style=&quot;font-size: 9px;&quot;&gt;&lt;b style=&quot;&quot;&gt;Object Type : &lt;/b&gt;Tables&lt;/font&gt;&lt;div&gt;&lt;font style=&quot;font-size: 9px;&quot;&gt;&lt;b&gt;Load :&lt;/b&gt;&lt;/font&gt;&lt;/div&gt;&lt;div&gt;&lt;ul&gt;&lt;li&gt;&lt;font style=&quot;font-size: 9px;&quot;&gt;Batch Processing&lt;/font&gt;&lt;/li&gt;&lt;li&gt;&lt;font style=&quot;font-size: 9px;&quot;&gt;Full Load&lt;/font&gt;&lt;/li&gt;&lt;li&gt;&lt;font style=&quot;font-size: 9px;&quot;&gt;Truncate &amp;amp; Insert&lt;/font&gt;&lt;/li&gt;&lt;/ul&gt;&lt;div&gt;&lt;font style=&quot;font-size: 9px;&quot;&gt;No &lt;b&gt;Transformations&lt;/b&gt;&lt;/font&gt;&lt;/div&gt;&lt;/div&gt;&lt;div&gt;&lt;font style=&quot;font-size: 9px;&quot;&gt;&lt;b&gt;Data Model :&lt;/b&gt; none (as-is)&lt;/font&gt;&lt;/div&gt;" style="text;html=1;align=left;verticalAlign=middle;whiteSpace=wrap;rounded=0;" vertex="1" parent="1">
          <mxGeometry x="200" y="250" width="115" height="190" as="geometry" />
        </mxCell>
        <mxCell id="EOPVycMYMV6uETsPwLMP-48" value="&lt;font style=&quot;font-size: 9px;&quot;&gt;&lt;b style=&quot;&quot;&gt;Object Type : &lt;/b&gt;Tables&lt;/font&gt;&lt;div&gt;&lt;font style=&quot;font-size: 9px;&quot;&gt;&lt;b&gt;Load :&lt;/b&gt;&lt;/font&gt;&lt;/div&gt;&lt;div&gt;&lt;ul&gt;&lt;li&gt;&lt;font style=&quot;font-size: 9px;&quot;&gt;Batch Processing&lt;/font&gt;&lt;/li&gt;&lt;li&gt;&lt;font style=&quot;font-size: 9px;&quot;&gt;Full Load&lt;/font&gt;&lt;/li&gt;&lt;li&gt;&lt;font style=&quot;font-size: 9px;&quot;&gt;Truncate &amp;amp; Insert&lt;/font&gt;&lt;/li&gt;&lt;/ul&gt;&lt;div&gt;&lt;b style=&quot;color: light-dark(rgb(0, 0, 0), rgb(255, 255, 255)); background-color: transparent; font-size: 9px;&quot;&gt;Transformations :&lt;/b&gt;&lt;font style=&quot;font-size: 11px;&quot;&gt;&lt;b&gt;&lt;/b&gt;&lt;/font&gt;&lt;/div&gt;&lt;/div&gt;&lt;div&gt;&lt;ul&gt;&lt;li&gt;&lt;font style=&quot;font-size: 9px;&quot;&gt;Data Cleaning&lt;/font&gt;&lt;/li&gt;&lt;li&gt;&lt;font style=&quot;font-size: 9px;&quot;&gt;Data Standrization&lt;/font&gt;&lt;/li&gt;&lt;li&gt;&lt;font style=&quot;font-size: 9px;&quot;&gt;Data Normalization&lt;/font&gt;&lt;/li&gt;&lt;li&gt;&lt;font style=&quot;font-size: 9px;&quot;&gt;Derived Columns&lt;/font&gt;&lt;/li&gt;&lt;li&gt;&lt;font style=&quot;font-size: 9px;&quot;&gt;Data Enrichement&lt;/font&gt;&lt;/li&gt;&lt;/ul&gt;&lt;/div&gt;&lt;div&gt;&lt;font style=&quot;font-size: 9px;&quot;&gt;&lt;b&gt;Data Model :&lt;/b&gt; none (as-is)&lt;/font&gt;&lt;/div&gt;" style="text;html=1;align=left;verticalAlign=middle;whiteSpace=wrap;rounded=0;" vertex="1" parent="1">
          <mxGeometry x="367.5" y="260" width="125" height="260" as="geometry" />
        </mxCell>
        <mxCell id="EOPVycMYMV6uETsPwLMP-49" value="&lt;font style=&quot;font-size: 9px;&quot;&gt;&lt;b style=&quot;&quot;&gt;Object Type : &lt;/b&gt;Views&lt;/font&gt;&lt;div&gt;&lt;font style=&quot;font-size: 9px;&quot;&gt;No &lt;b&gt;Load&lt;/b&gt;&lt;br&gt;&lt;/font&gt;&lt;div&gt;&lt;font style=&quot;font-size: 9px;&quot;&gt;&lt;b&gt;Transformations:&lt;/b&gt;&lt;/font&gt;&lt;/div&gt;&lt;div&gt;&lt;ul&gt;&lt;li&gt;&lt;font style=&quot;font-size: 9px;&quot;&gt;Data Integration&lt;/font&gt;&lt;/li&gt;&lt;li&gt;&lt;font style=&quot;font-size: 9px;&quot;&gt;Aggregations&lt;/font&gt;&lt;/li&gt;&lt;li&gt;&lt;font style=&quot;font-size: 9px;&quot;&gt;Business Logic&lt;/font&gt;&lt;/li&gt;&lt;/ul&gt;&lt;/div&gt;&lt;div&gt;&lt;font style=&quot;font-size: 9px;&quot;&gt;&lt;b style=&quot;&quot;&gt;Data Model :&lt;/b&gt;&lt;/font&gt;&lt;/div&gt;&lt;/div&gt;&lt;div&gt;&lt;ul&gt;&lt;li&gt;&lt;font style=&quot;font-size: 9px;&quot;&gt;&lt;b style=&quot;&quot;&gt;Star Schema&lt;/b&gt;&lt;/font&gt;&lt;/li&gt;&lt;li&gt;&lt;font style=&quot;font-size: 9px;&quot;&gt;&lt;b style=&quot;&quot;&gt;Flat Table&lt;/b&gt;&lt;/font&gt;&lt;/li&gt;&lt;li&gt;&lt;font style=&quot;font-size: 9px;&quot;&gt;&lt;b style=&quot;&quot;&gt;Aggregated Table&lt;/b&gt;&lt;/font&gt;&lt;/li&gt;&lt;/ul&gt;&lt;/div&gt;" style="text;html=1;align=left;verticalAlign=middle;whiteSpace=wrap;rounded=0;" vertex="1" parent="1">
          <mxGeometry x="536.25" y="260" width="127.5" height="230" as="geometry" />
        </mxCell>
        <mxCell id="EOPVycMYMV6uETsPwLMP-51" value="" style="verticalLabelPosition=bottom;sketch=0;aspect=fixed;html=1;verticalAlign=top;strokeColor=none;align=center;outlineConnect=0;shape=mxgraph.citrix.reporting;" vertex="1" parent="1">
          <mxGeometry x="752.27" y="160" width="45.46" height="51" as="geometry" />
        </mxCell>
        <mxCell id="EOPVycMYMV6uETsPwLMP-53" value="" style="shape=image;verticalLabelPosition=bottom;labelBackgroundColor=default;verticalAlign=top;aspect=fixed;imageAspect=0;image=data:image/png,iVBORw0KGgoAAAANSUhEUgAAAgAAAAIACAYAAAD0eNT6AAAQAElEQVR4AezdCbgsVXnu8eIKQXGMQBCIEKcoavAqREUGmRS8ekVBxQiKCILe6wBKAoLEIYrwqIGgySMIigokgmBQjOAEAYSo4IAiRokJKBAENKAgBoe874HD6dOne3cNa1WtVet/nvWd6t1dtYbf6r376+rqqv9V8Q8BBBBAAAEEihMgAShuyhkwAggggAACVUUCwLMAAQQQQACBAgVIAAqcdIaMAAIIIFC2gEdPAmAFAgEEEEAAgcIESAAKm3CGiwACCCBQusBd4ycBuMuB/xFAAAEEEChKgASgqOlmsAgggAACpQssHz8JwHIJlggggAACCBQkQAJQ0GQzVAQQQACB0gVWjJ8EYIUFtxBAAAEEEChGIEQC8EBp7aTYS7EfUWFQYcDvAc8BngNJPwf20fw8V7G+oqgyOdguCcCjVNHHFTcqzlGcpDiOqDCoMOD3gOcAz4GknwMnaH7OUlyr+JJiG0VxpW0CsKekLle8SLGGgoIAAggggEBuAqupw9spzle8S+GftRhrWXlcbRKAF6qKjyruraAggAACCCCQu4Bf+A/RII5QFFOaJgAPkczxCmNpQUEAAQQQQGA0AgdrJN4joMX4yvSImiYAB6mCBykoCCCAAAIIjE3Ab24PH9ug5o2naQLw4nkVcT8CCCCAAAIjENhWYxjhtwM0qqnSJAHYQNtuqKAggAACCCAwVgHvBdh8rIObHFeTBGDdyQ25jQACCCCAwEgFRvd6N2uemiQAq8+qgPsQQAABBBAYmUARr3dNEoCRzS/DQQABBBBAoASB2WMkAZjtwr0IIIAAAgiMWoAEYNTTy+AQQAABBEoXmDd+EoB5MtyPAAIIIIDAiAVIAEY8uQwNAQQQQKB0gfnjJwGYb8MjCCCAAAIIjFagzwTgJin6OgJEVWGAAc8BngM8B+I9B67U6w2lqqqlEPpMAK5WR/YnKgwqDPg94DnAcyDqc+BC+VIWCPSZACzoCg8jgAACCCCAQDiBpWsiAVjah0cRQAABBBAYpQAJwCinlUEhgAACCJQusGj8JACLhHgcAQQQQACBEQqQAIxwUhkSAggggEDpAovHTwKw2Ig1EEAAAQQQGJ0ACcDoppQBIYAAAgiULlBn/CQAdZRYBwEEEEAAgZEJkACMbEIZDgIIIIBA6QL1xk8CUM+JtRBAAAEEEBiVAAnAqKaTwSCAAAIIlC5Qd/wkAHWlWA8BBBBAAIERCZAAjGgyGQoCCCCAQOkC9cdPAlDfijURQAABBBAYjQAJwGimkoEggAACCJQu0GT8JABNtFgXAQQQQACBkQiQAIxkIhkGAggggEDpAs3GTwLQzIu1EUAAAQQQGIUACcAoppFBIIAAAgiULtB0/CQATcVYHwEEEEAAgREIkACMYBIZAgIIIIBA6QLNx08C0NyMLRBAAAEEEMhegAQg+ylkAAgggAACpQu0GT8JQBs1tkEAAQQQQCBzgZwTgEfJfjfFflPh+/yY7h603EutP1HxZ4rJPu6jn5+rWF+RWrm3OrS1Yk/FZJ/30s87KR6ooCCAAAIIJCXQrjO5JQCraZh7KL6j+L7iE4rjpsL3+TGv43W9jVbprayplg5WXKP4uuJUxWQfT9DPZymuVXxJsY1i6LK2OvA3ihsUFyg+ppjs80n6+RzFjYqPK1JIsNQNCgIIIIBAW4GcEoD7apCfVJyseJxiUfE6XtfbeNtF64d4fCNV8hXFkYoNFEsVJybbaYXzFe9S+Gctei9bqMUrFK9TPECxVFlDD75IcbnCewm0oCCAAAIIDCnQtu1cEoDVNUC/s99Fy6bF23hb19F02ybr+130F7TBExRNil/4D9EGRyj6LpuqwXMV6ymaFH9U8FFt8EJFn2UdNfZ4xWZEhUGFwYh/DzbR2O6voEQUyCUBeK0Mdla0Ld72NW03rrmdd6F32TXujw28R6Bmc51Xc0LkF/G2v2ROXPxxxqI9HV07upYq+AvFdxX+COLbWl5KVBhUGIz498C/7z/T+C5WvEyRy2uVutp3ad9eDqj+TN3vkNuP8q4tD9PC71y1CF78wv+SjrX6BfXwjnU02dy78pvurZiu3x8ZHDh9Z8Cf/S7XH08cpTr9jkALCgIIFCLgA6n9EeVHNN6LFLHfbKiJskoOCcAzNCV/oOhavPt4x66VzNneL/5+AZ/zcO27t9Wa6yv6KC8O1Ii/5RCoqpWq8Yv/P+ueP1JQEECgbAEnAk4Cmn5cOXq1LgPMIQH40y4DnNo2ZF2TVYeq10nE5pMVR7wdqs8bqo+hM3Pv9j9D9fZ18KaaoiCAQOICD1P//I0kLSghBHJIANYNMdC76whZ191VLluErDdkXcs6N+c/7xGZ81Dju0P32cdrbNy4F2yAAAJjF/DxXDuMfZD1x9dtzRwSAH8O1G2UK7YOWdeKWqsqZL0+OG+y7li3Q7YTsi6P9+X+j0AAAQRmCOw94z7uaiGQQwLQYlhskrGAv075mIz7T9cRQCCuwJZxq8+n9q49JQHoKhh++9+FrzJ6jSH77IMgV4veYxpAAIFcBfw3Ite+J9XvHBKAWwOK3RKwrsmqQvYxZF2TfZy+HbKdkHX9arqj/IwAAghMCNwxcbvgm92HnkMC4PP6dx/pXTX84K5F8P9D9jFkXUsNNFQ7/mX80VINNXzM11BwnQ03Y3UEEChEINbf8UL4VgwzhwTgc+rubxVdi+twXV3rmbX9Z2fd2eK+67SNz7OvRfQSqs++oFHId+2uy3VGB6ABBBDIUiDU364sB7+80yGWOSQAV2ugZyq6FtfhurrWM2v7z+jOEFnpsarnN4o+yvFq5HZF13J01wpmbB+jzhnNcBcCCGQm4L9Z/tuVWbfT7G4OCYDl3qj/fqpoW7yt62i7/aLtfq0VXqXo8uLtd/7HqI6+yo/VUNdTD5+iOnwBJC2CFtfpuoNWSmUIIJC9gP9m+W9X9gPpNoAwW+eSAPhzYV/Vr81BfN7G27qOMGqza/Fu6/31UJskwHsPnqNtvftbi97KX6ul9ynalC9qo1cqYhXX7TZi1U+9CCCQl4D/VvlvVl69Tri3uSQAJvR5oJ+qGxcq6hav6228bd1tuqx3ojZ+psIv6FosLP76nN/p+jzXIQ+kW9jwxAqv0+19FTcr6hQnKe/Uis9S/FIRq7hut+G23GasdqgXAQTSFvDfJv+N8t+qtHvaU+9CNZNTAuAxf0//baPYSvFehQ/qu0zLyfB9fszreF1vo1V6K94T8Fi19jzFcYrzFZP9+6p+9jEDb9XSV7jbU0s/wbUYrDhx8al3X6EeOCFx4jTZ50t0v4+h8JX/vN6b9fOditjFbbgtt+m23Qf3ZbJv3K4qDDAY23PAf4P8t8h/k/z7779Rsf/eFFd/bgnA8gn6sm4cpNhJ4YvnTIbv82NeRw8PUnxMwFlq2ccFbKflZP+eop+9u/9tWv6rIpVymzryYYUTEidOk31+mu7fTeFjFG7Qsu/iNt22++C+TPaN21WFAQZjew74b5D/Fvlvkv829f03J+H2wnUt1wQgnAA1IYAAAgggUKAACUCBk86QEUAAAQTyFAjZaxKAkJrUhQACCCCAQCYCJACZTBTdRAABBBAoXSDs+EkAwnpSGwIIIIAAAlkIkABkMU10EgEEEECgdIHQ4ycBCC1KfQgggAACCGQgQAKQwSTRRQQQQACB0gXCj58EILwpNSKAAAIIIJC8AAlA8lNEBxFAAAEESheIMX4SgBiq1IkAAggggEDiAiQAiU8Q3UMAAQQQKF0gzvhJAOK4UisCCCCAAAJJC5AAJD09dA4BBBBAoHSBWOMnAYglS70IIIAAAggkLEACkPDk0DUEEEAAgdIF4o2fBCCeLTUjgAACCCCQrAAJQLJTQ8cQQAABBEoXiDl+EoCYutSNAAIIIIBAogIkAIlODN1CAAEEEChdIO74SQDi+lI7AggggAACSQqQACQ5LXQKAQQQQKB0gdjjJwGILUz9CCCAAAIIJChAApDgpNAlBBBAAIHSBeKPnwQgvjEtIIAAAgggkJxAnwnAJhr9pUSFQYUBvwc8B3gORH0O7CrfrEsfne8zAVhLA9qMqDCoMOD3gOcAz4Goz4F15EtZINBnArCgKzyMAAIIIIAAAlXVjwEJQD/OtIIAAggggEBSAiQASU0HnUEAAQQQKF2gr/GTAPQlTTsIIIAAAggkJEACkNBk0BUEEEAAgdIF+hs/CUB/1rSEAAIIIIBAMgIkAMlMBR1BAAEEEChdoM/xkwD0qU1bCCCAAAIIJCJAApDIRNANBBBAAIHSBfodPwlAv960hgACCCCAQBICJABJTAOdQAABBBAoXaDv8ZMA9C1OewgggAACCCQgQAKQwCTQBQQQQACB0gX6Hz8JQP/mtIgAAggggMDgAn0mAFdqtJsTFQYVBvwe8BzgORD1OXCmfLMqQ3S2zwTgdg3wMqLCoMKA3wOeAzwHoj4HbpIvZYFAnwnAgq7wMAIIIIAAAiUKDDNmEoBh3GkVAQQQQACBQQVIAAblp3EEEEAAgdIFhho/CcBQ8rSLAAIIIIDAgAIkAAPi0zQCCCCAQOkCw42fBGA4e1pGAAEEEEBgMAESgMHoaRgBBBBAoHSBIcdPAjCkPm0jgAACCCAwkAAJwEDwNIsAAgggULrAsOMnARjWn9YRQAABBBAYRIAEYBB2GkUAAQQQKF1g6PGTAAw9A7SPAAIIIIDAAAIkAAOg0yQCCCCAQOkCw4+fBGD4OaAHCCCAAAII9C5AAtA7OQ0igAACCJQukML4SQBSmAX6gAACCCCAQM8CJAA9g9McAggggEDpAmmMnwQgjXmgFwgggAACCPQqQALQKzeNIYAAAgiULpDK+EkAUpkJ+oEAAggggECPAiQAPWLTFAIIIIBA6QLpjJ8EIJ25oCcIIIAAAgj0JkAC0Bs1DSGAAAIIlC6Q0vhJAFKaDfqCAAIIIIBATwIlJwCPlvFbFGcrvqK4lKgwqDDg94DnwAieA7tqDF3Kodo4wt/DIM+ti9W3MxQHKNZTtC4lJgBrS+tkxZWKtyqerXiyYjOiwqDCgN8DngMjeA6sozF0KRtr41T/Hm6hvjnBOVrLqxXvUKyhaFxKSwAeKqFLFHsoVlNQEEAAAQQQ6EUgQiNrqs7DFJ9V3EfRqJSUABjKu/sf1UiIlRFAAAEEEEhbYAd174OKRqWkBMCfl2zaSIeVEUAAAQQQCCIQvRLv2d6xSSulJAD3EsrrFBQEEEAAAQTGKnBgk4GVkgD4nf8GTWBYFwEEEEAAgVACPdWzvdrxx91aLC6lJACPWUzBGggggAACCGQtcG/1fiNFrVJKAnC/WhqshAACCCCAQHCBXiu8f93WSkkA+Mpf3WcE6yGAAAII5CxQ+/WulAQg58mk7wgggAACGQuk2nUSgFRnhn4hgAACCCAQUYAEICIuVSOAAAIIlC6Q7vhJANKdG3qGAAIIIIBANAESgGi0VIwAAgggULpAyuMnL5uVHwAAEABJREFUAUh5dugbAggggAACkQRIAOrBflKrbU5UGFQY8HvAc4DnQN3nQKv1rpRvL4UEoB7zjVrtMqLCoMKA3wOeAzwHoj4HbpdvL4UEoBdmGkEAAQQQKE0g9fGSAKQ+Q/QPAQQQQACBCAIkABFQqRIBBBBAoHSB9MdPApD+HNFDBBBAAAEEgguQAAQnpUIEEEAAgdIFchg/CUAOs0QfEUAAAQQQCCxAAhAYlOoQQAABBEoXyGP8JAB5zBO9RAABBBBAIKgACUBQTipDAAEEEChdIJfxkwDkMlP0EwEEEEAAgYACJAABMakKAQQQQKB0gXzGTwKQz1zRUwQQQAABBIIJkAAEo6QiBBBAAIHSBXIaPwlATrNFXxFAAAEEEAgkQAIQCJJqEEAAAQRKF8hr/CQAec0XvUUAAQQQQCCIAAlAEEYqQQABBBAoXSC38ZMA5DZj9BcBBBBAAIEAAiQAARCpAgEEEECgdIH8xk8CkN+c0WMEEEAAAQQ6C5AAdCakAgQQQACB0gVyHD8JQI6zRp8RQAABBBDoKEAC0BGQzRFAAAEEShfIc/wkAHnOG71GAAEEEECgkwAJQCe+xhuvpy0OUJyhuFhx6URcoNsnK/ZW3FcxVHHb7oP74j5N9tF9dt89Bo9lqD5Ot7ul7niP4lzFZH992/f5Ma+jhykIIIBAWIFcayMB6Gfm1lAz71BcrThasatiC8VmE7G1bu+h+JDC6+2jZd/Fbbpt98F9cZ8m++g+u+8eg9fzmDy2vvu5vL3H6IaTlIu0fKPimYrJ/vq27/NjXsfrehutRkEAAQTKFiABiD//91ETn1UcplhTUaesrZVOUByr6Ku4Lbfptuu06bF4TB6bx1hnm5DrbKXK/kXhJEWLWsXrehtvW2sDVkIAAQSWFsj3URKA+HP3QTWxg6JNea02eoMidnEbbqtNOx6bx9hm27bbbKQNz1I8UNG0eBtv6zqabttm/Y210SsV/hjiOC2JqsIAg7E+B/5Ov+NvUzxHcW9F0oUEIO707KjqvStdi9blr7TlHypiFdftNrrU7zF6rF3qaLLte7XygxVti7d1HW23r7OdE4zTteIPFccr/DHEfloSVYUBBqN5Dkz9Tr9aP/+l4tOKHykOVKyuSLKQAMSdFk9+1xbWUgX+ZdEiSnHdbqNr5SHGWqcPfkft4xDqrLvUOq7DdS21TtvH/BHDN7TxCxT8jgmBgkCBAutozH+tcDLgg6t1M63CH6d48+HPyLcPVP2zAtUzq5pQdXusHvOsNkLe54P6QjxvXYfrCtk31+WDDM/WDe9l0IKCAALjFag1sp211imK1RRJFf8RTKpDI+qM312G+gzojyO6PDpQ3R6rd3sHqm5uNaH66wZiuHp3v48zcP0EAgggYIFd9J8/KtUinUICEG8u7hew6gcErGu6qvtP39Hh55B1zetGyDZCu3rXv79pMK/v3I8AAiMSaDiUQxquH311EoB4xMnt7ok31HtqLnHM9wxeN56noCCAAAKzBB6nOx+pSKaQACQzFXRkBAKbjmAMDAEBBGoJtFrpCa22irQRCUAkWFX7a0WoErKu6T6FrDtkXdP9XP7zb5bfCLAMWZe7E/LjCddHIIDAuASS+htBAhDvyXVjwKpvCljXdFUh6w455ul+Lv85ZBsh63L/bvZ/BAIIjF+g5QiT+htBAtByFmtsdp3WuVYRonwtRCVz6ghVt8fqMc9pJtjdofrrDoWsK0Z9rpNAAIFxCPxOw/AFyrRIo5AAxJ2Hvw9U/amB6plVTQ59nOz35/XDTxRdi/d8fKFrJVPb+7u+/iWfupsfEUBgXAKtRnOetrpekUwhAYg7FT7d7H91bOI72v4MRazi09V+q2Plt2r7YxR9lF+pkSMVXcs7VcEdipDlKlUWM1lT9RQEEMhQwG8MfPXUpLpOAhB3Ov5T1ftUu5583Wxcfq4tfPKIO7WMVXzg3stUudvSonHx2PbVVn3s/lczy8r79P85irbF276/7cYLtnu9Hv+BgoIAAiMVaDGso7SN9wBokU4hAYg/F36H7RfYpu82b1DXdlJcrohd3IbbcptN2vKYPDaPscl2Xdd10uLz7Puqfk3r8jbe1nU03bbO+j7IxxdG6rpXpU5brIMAAmkL+A2S91gemmI3SQD6mZWT1Yy/I36alovezXt3+rFazyeNuETLvorbcptu231Yql2PwWPxmDy2pdaN9dhtqvj5ij0VVygWFa/jdb2Nt120fpfHr9HGT1H4zF997hlRkxQEEIgrUKt2v/D7Hf+2WvtNCv+sRVqFBKC/+fBu4d3V3LoKXxzi5VruPxEv1e1tFOspvBvZ7yR1s9fiNt22++C+uE+TfXSf3XePwWPxmHrt4FRj/qXygXeP1/0+r7/f2U/217d9nx/zOl7X22j16MXHKni3n6+P8CS19hKF+0NUFQYYjPU54I9Dfd7/DfX77gukXaBlsoUEoP+puUVNnqv4iMIXjlkefid9oe7zbnUtBi3ug/viPi3vn5fus/vuMQzawRmNOxnxwZLu52T4Pj82Y5Ne7vLJhnxpYH/bYrJf3K4qDDDI7jmgvxpL9flEPf4pRVJH+6s/MwsJwEwW7kQAAQQQQGDcAiQA455fRocAAgggEExgXBWRAIxrPhkNAggggAACtQRIAGoxsRICCCCAQOkCYxs/CcDYZpTxIIAAAgggUEOABKAGEqsggAACCJQuML7xkwCMb04ZEQIIIIAAAgsFSAAWErECAggggEDpAmMcPwnAGGeVMSGAAAIIILBAgARgARAPI4AAAgiULjDO8ZMAjHNeGRUCCCCAAAJLCpAALMnDgwgggAACpQuMdfwkAGOdWcaFAAIIIIDAEgIkAEvg8BACCCCAQOkC4x0/CcB455aRIYAAAgggMFeABGAuDQ8ggAACCJQuMObxkwCMeXYZGwIIIIAAAnMESADmwHA3AggggEDpAuMePwnAuOeX0SGAAAIIIDBTgARgJgt3IoAAAgiULjD28ZMAjH2GGR8CCCCAAAIzBEgAZqBwFwIIIIBA6QLjHz8JwPjnmBEigAACCCCwigAJwCok3IEAAgggULpACeMnAag3y+totc2ICoMKA34PeA7wHIj6HFhLvr0UEoB6zLtqtUuJCoMKA34PeA6M/zkw6BxvIt9eCglAL8w0ggACCCCAQFoCJABpzQe9QQABBBAYWKCU5kkASplpxokAAggggMCEAAnABAY3EUAAAQRKFyhn/CQA5cw1I0UAAQQQQOAeARKAeyi4gQACCCBQukBJ4ycBKGm2GSsCCCCAAAJ3C5AA3A3BAgEEEECgdIGyxk8CUNZ8M1oEEEAAAQSWCZAALGPgPwQQQACB0gVKGz8JQGkzzngRQAABBBCQAAmAECgIIIAAAqULlDd+EoDy5pwRI4AAAgggUJEA8CRAAAEEECheoEQAEoB6s36TVruMqDCoMOD3gOcAz4Goz4Hb5dtLIQGox3ymVtucqDCoMOD3gOfA+J4DSc3plfLtpZAA9MJMIwgggAACCKQlQAKQ1nzQGwQQQACBngVKbY4EoNSZZ9wIIIAAAkULkAAUPf0MHgEEEChdoNzxkwCUO/eMHAEEEECgYAESgIInn6EjgAACpQuUPH4SgJJnn7EjgAACCBQrQAJQ7NQzcAQQQKB0gbLHTwJQ9vwzegQQQACBQgVIAAqdeIaNAAIIlC5Q+vhJAEp/BjB+BBBAAIEiBUgAipx2Bo0AAgiULsD4SQB4DiCAAAIIIFCgAAlAgZPOkBFAAIHSBRh/VZEA8CxAAAEEEECgQAESgAInnSEjgAACZQsweguQAFiBQACB2AKbqYHftQxvq00pCCAQUoAEIKQmdSGAAAIIJC9AB+8SIAG4y4H/EUAAAQQQKEqABCDv6V5P3T9AcYbiYsV5ig8odlGsrqAggAACCKwkwA/LBUgAlkvktVxD3X2H4mrF0YpdFVsotlXsr/hHxXcVOygoCCCAAAIIrCJAArAKSfJ33Ec9/KziMMWainnlUXrgc4pDFBQEEEAAgaqqQFghQAKwwiKXWx9UR+u+s/f8vkvrf0xxbwUFAQQQQACBZQJ+gVh2g/+yENhRvdxD0bTsqQ18fMBDtKQggAAChQow7EkBEoBJjfRvH9ihi0/Vtl9TPElBQQABBBAoXIAEIJ8ngD/v375jd/9Q21+oeIGCggACCBQlwGBXFiABWNkj5Z82VudCfI6/luo5TXGkgvkXAgUBBBAoUYAXgHxm/fcCdnU11XWw4h8UTgi0oCCAAAJjFmBs0wIkANMi6f58vbrmc6lrEay8UDVdoPBHA1pQEEAAAQRKESAByGemb1ZXv6cIXXyhla+q0qcoKAgggMAoBRjUqgIkAKuapHzPSZE6t77qPV/R5iuG2oyCAAIIIJCbAAlAXjP2fnXXp//VInjxAYY+YdARqpnnhRAoCCAwFgHGMUuAP/SzVNK973Z1bTfFbYoYxQcHvkkVn6m4n4KCAAIIIDBSARKA/Cb2MnXZF/25QctYxVcT/LIq/yMFBQEEEMhagM7PFiABmO2S+r2XqoM+eM/JgG5GKZuqVrfjZEM3iyrraLQPVzxR8XjFRooHKVIu/l32qZ4foU76ufEwLe+voCCAAAIzBfxHY+YD3Jm8wLXq4dMV3l2vRZSytmo9V/EKxVjLuhrYyxS+yNLXtfTHKzdq+W8K//xtLX3cxc+0/K3C9/tyy74csy/D/EDdN0R5qBrdW/FRxbcU7re/KnqVbjtx+6GWtyp+pfgPxSmKVyuc0PijHt1cpXg8++nepuGESZtREEhRgD7NEyABmCeTx/3+o+/T+h6i7oY+R4CqXFZ8AqITdes4xeqKMZR7aRA+B4KTG79ofkQ/76vwO/6lTozkF07vGfBHJIdp/TMUTha+pOUbFX4HrkW04gM1nYz9s1pwUvIhLV+q8N4aP6abqxTPn88i+RI98ncKJzQ/0PJwhZMfLe4ph+qW57lpuH5tSkEAgZwESABymq3ZffUL/1F6aHeFDxLUIkrxu8KzVXPqu8LVxSWLE6YrtIZPh/xMLZ0MaNG6rKEtt1O8R+EX5ZO1fLIiZLmPKnuDwu/qnYxto9tORrRoVfwxwdu1pfcMvFvLBygoCIxSgEHNFyABmG+T2yOnq8NbKq5RxCo7qWKfNOgxWuZW1lOHP62w06O1jFH8btvnUviKKndb3lugm52KkxS/a3+vavH5GrQIVry34yDV9q+K5yjalt+03ZDtEEBgOAESgOHsY7T8TVW6hcIv0lpEKY9Srf6GwA5a5lI2V0f9uXiXFzlV0ai4LX/E0GijiZW9S/8D+tl1+B27bkYr/ujiU6rdxwdo0bj8ovEWbIBALwI0spQACcBSOnk+dp267V3EPqmPbkYpD1at5yhep0i9bK0O+jP6Ia538Bm13aa4rxdpw/0VfRV/pLBmy8Z+3nI7NkMAgQEFSAAGxI/YtI/83kv1++BAH7mum8GLD2W/HDMAABAASURBVAj8G9XqA8b8ObhuJlf8UYXf2Q71dTgfZ9AUxede8GmZ/VW+ptsOtb6/bTBU27SLwFwBHlhagARgaZ+cH11+cOBzNYiYf6B9cOAX1cb0EeW6a9ByX7XuF/+hDlr01zT/RX1oUnzMgD9eib3Lv0mfFq37a63wSwUFAQQyEyAByGzCWnTXu6G9G9xHfLfYvNYmrv8SrflYRSrF1zTw8QpD9ecTarjJ3hcfiX+WttlAkVOJmVzm5EBfkxOgQ4sESAAWCY3j8cs1jD9V+PvjWkQpftfqd7z/N0rtzSr1bvRXNdsk+NpNdv/799DnFGh7EF7wzjeokM//G2CxKgIpCfgPT0r9oS/xBG5S1f4a34e1jFX8WfsnVfnBiiGLT2jjr+QN1Yemu//9Hf8dh+psx3bv6Lg9myMQRYBKFwuQACw2GtMaPjjQZ5I7QIOK9d1tn1jnSNV/gmKIF2FfxfDFanvI0mT3v9/1+7TCQ/a3S9tNPubo0g7bIoBAYAESgMCgmVTno/f9PfVbIvZ3H9Xtr9/5BDy62VvxO2nviWjboM/1/05t/HzF0xT+SqXPke/z6PtkPD7Jjw9800Nzi082NPfBqQeO1s9tv36nTe8pPujTBxC+Vff4ktE+LsMnhvI4/lz3fV7x34rQhQQgtCj1BRCgijoCJAB1lMa5jr/H71PW+ixwsUboFyCfgOdJsRqYUW/bExT5BdQvnpuozjcrfMEfH9h4oW77Yw2flMdnzXuqfv59hS8gdJ6W08W7/73d9P2zfn6W7nTCokXr4hdgXxDIX3ncSrW8TeELRPk8Ahfrtsfh0xT7jIL+lsHf6r5FCYxWqV3sVntlVkQAgXQESADSmYshevJ9Nep3uX6nrptRik9q44MPnxel9lUr/ZNV76p1j89n4BfPO2us7TPf+URL22td+/mFVjeXlSa7//9q2Rbt//uJNvULu8/54LnUj0sWJyev0Rrut2/rZufiBKRzJVSAQEgB6qonQAJQz2nMa/1Ug/PBge/TMlbx5/J+V+p32D7jXKx2XO8j/V+LaDt+v9v3O28fd+CLAdXd/e9tupzs5780xp0VPgeDFo2K92o4cXF/G204Y2USgBko3IVADgIkADnMUvw+epewT+vrU8/WeQfcpkd+4X+LNjxV4avbaRGltD3xjz/7b9sh7wb/uDb2xwdOCHRzYfE78YUrzVnBeyD80cE35jxe525fNMpf2ex6FL/HXqc91kGgJwGaqStAAlBXqoz1jtcwn634mSJW8Ttlf+TgC9DEaKPtAXX+qKJrf3xGvDrviH2Q4i4dGnMidVmH7Zdv6qsMvmn5Dy2Xdcbbsmo2QwCBmAIkADF186zbR4v74MArI3bfB9L54EBfpS90M22/2eAj//v6fXCS5av9tRm7T+rU9uOKWe29X3fGPBBU1VMQ6E+AluoL9PUHr36PWDMFgavUiacozlbEKhuqYn8WvYeWIcv1LSvbXdv5aP+Hahm7dDkg0u/YQ35M449//LXQ2GOmfgQQSEyABCCxCUmoOz7Fq79DfmzEPvldsI+m9y5tHyMQoqmvdajEF07yng+fyXCtDvUs2vTpi1aY8/iPdf+5itDlH1ShTxKlBQWBnAXoexMBEoAmWuWt63eHr9ewYx8c6G8HhEo0LlB/uxRfRdBnMvRBcj5DX+hjFXydgrZ1nqSBxTiDo4/5mPwqo5qhIIDA2AVIAMY+w2HG54MDn6GqfD0BLaIUHxXvswd2rdxfN/RR8l3rWVsVHKbwVRQ/pKU/EtGic/HxD20r8ZUd2267aLtQ5wVY1A6PIxBNgIqbCZAANPMqeW2fzMcvgldERDhKdfsduBaty63a8hRFqOJvFeytynylw+9p6QsNraNl2/LYlhv6NL7fbLltnc34CKCOEusgMCIBEoARTWYPQ/mh2vAJZGIdHOh33S9SG12Lz7DnRKBrPdPbP1p3+NsCPoGOj5737nzd1ag8rNHaK1b20f9dv7O/orZVb8X4aGHVVrgHgWgCVNxUgASgqRjr+4XV32F/dyQKn6a2a9Xene3z+XetZ972PkDw/+tBf33OR9D7TIf6sVZpkzS44ph7Xlw/gQAChQmQABQ24YGG65O//IXqerki9K7jjVVniOKL3vh4gBB1zavDlzv2GRR9Qh3vGZm33uT9G0z+0OC2T9ncYHVWRaAsAUbbXIAEoLkZW6wQ8C5pJwMr7ul+K9SpZd0vn2PA5xro3qula/C7eh8j4WRg6TWrqu0xDj5Sf1HdPI4AAgjUFiABqE3FihMCft4coZ//XhH6vP7++p2qDVKcoPjjivOD1LZ0JavrYX8c8HYtlyr++GCpx+c95ov/zHuM+xEoXIDhtxHwH/I227FNuQL+vNu71n1GulAn75nU9HUCJn/uetvvnP0VRn/DoGtddbY/XCv9P8W80jYBCLVnZF6/uB8BBAoTIAEobMI7Dtefz39ZdfhdtRbBy82q8TRF6OITGh2iSvdU/EQRu3hPwLyDGd2XNu37AkJttmMbBEYvwADbCZAAtHMrcastNeivKjZVxCo+Be9tsSpXvT4/gL/Kd7RuhzyfvqpbqfjjgBN1z6zP+2/X/W0KCUAbNbZBAIG5AiQAc2l4YELAR/t/UT//gSJW8ffq/aIZq/7l9fqz9DfohyconBCE/haDql1WfGCgz2647IeJ/9omOCEuVzzRDW4iMBYBxtFWgASgrVwZ291Lw/T3/T+spc+Ip0Xw4s+2fS2AOkfQh2zcF/3xRwIbqVKfM8AX2tHNoMWJxhpTNba9WmHbMwhONT/3x1jzO7dBHkAAgWEFSACG9U+5dR/sd4Y6eJAiVvFR+i9V5W9TOBHQovfiYwJ8dj+foe8Fav08RajiPSb/Z6oyX1tg6q5aP26itWL+vnqPhZqgIJCXAL1tLxDzD0r7XrHl0AIPVwd87vtYB/up+uo6/beNwrvhtRi8+OA8Jzw+eM8fD/ibDiGSkukE4N9bjtTfHti85baLNvMxCzGP7VjUPo8jgMAAAiQAA6An3qQP9rtEfXycIlb5hir2VfG+pmWKxefd300d20rhCwBp0bpsPbWlxz51V+0fYyVkHufv1+4FKyKQjAAd6SJAAtBFb3zb7qsh+Xv43nWtm1HKx1Wrk4wfaZl6uVgd3EzxGUXb8kht6HfYWiwrXZKe5y+rIfx/u4evkhoRQCB1ARKA1Geon/75YL8j1dQHFT6/vRbBi3en+7P+P1PNv1TkUvy1vReqsz5oUIvGxQcBrj+xla+o+J8TPze56eMAnt1kgxrr+qMFz0mNVVkFgbQE6E03ARKAbn5j2NrfL/9HDcTfwdciSvFX37xL3Uf7OxGI0kjESp2wvK9D/TZevrnH32WPgk81HPIMjAeqYw9UUBBAoDABEoDCJnxquI/Qzz7Y7zlaxiq+NO/TVfknFX0Vf6Ut9Pfmfenftv2f/AjAdZzt/1rGk7Sdv76oRefir0D6qo6dK6ICBPoXoMWuAiQAXQXz3d4Hp/lgv5jfL3f9PnL9sp6ZdlR731GE3LXtXfmqslX5+dRW5+jnnyraFu+N6HqQppOk09WBBygoCCBQoAAJQIGTriHvp/CZ/dbVMlbxlQJ3UOVtP+/Wpq2LD5bzbu1TVYPPLri2ll3Lk1tW4F3+N01t6/MfnDx1X5MfPTYnEW2TN5+i+Cw12HZM2pSCwLACtN5dgASgu2FONXhXtA/2O06d7vKOVpvPLX7B88F+L9Ea/uxci16Lxzj5dblXqPWrFD7Goe273Q21/QGKNsXnO5jeA+B6PqD/fqtoW/wRhy/M1PTjgP+tBi9S7KSgIIBAwQIkAOVMvr/n7XeNfiGMNepfqGK/+/bBfro5SPHJhdaZavlB+tmJj1+MT9LtbRV1E6DttK5fMB+sZZsy7+MPf6vgE20qnNjG4/qYfv6KwgnX5MGGuuue4m95PE0/+aRLvqCTkwD9SEEgVwH6HUKABCCEYvp1+Lvo/k67d8nH6q2/1+8XX+9ajtVGnXp3XWIl7/reS4/7dL++KNAXdNtH1e+jpQ+EfIqWPhOgjx3w6YG/rp99XoQup8n9vOqYV7yn5DfzHmxwv3fl+8X9Zm3zLYXPaPghLf0xjMfq4w28t8BJQt3ER5tTEEBgzAIkAGOe3bvG9kwtfPKZx2gZq/jFxQf7dTnLXYi++fnsPRB16vL3350QHa6VT1B8WuFvRPjYCB87cKh+fqKiS/HphX1K4Xl1fFcP/K0iVPGLu0/p6yRob1X6YoX3drT96EObUxBIT4AehRHwH8wwNVFLigI+2M9fOfOu4lj980F2ftfsi+rEaqNuvT698AZ1V+5hPdv7Y4elmop1JcKl2uQxBBBAoCIBGOeTwAfC+atiMQ/2867rQ8Tn0wf/t5YpFJ9sKIV+uA8+GNIfL/j2UuEDBH1FRHsutR6PIYDAMgH+CyVAAhBKMp16fLDa59Sd1yhiFb9oeVf7UbEaaFmv+9Ry0+Cb+WOFuh+JnK/W36KgIIAAAr0JkAD0Rt1LQ3+sVnywn49c180o5d9Uq3e1+zNz3Uym+PP6hyXSG5/v/6CGfTlC6/vjFC0oCCAwT4D7wwmQAISzHLqmndUBf8Xr0VrGKheq4i0UPnhNi6RKKrv/b5XK8xRealG7+CODV2ltX5dBCwoCCCAQV4AEIK5vX7W/Xg35gDOfIU43o5TjVauPmr9RyxSLj3wful8/Uwd8gp1va9mm+FsDL9CGPkmQFhQEEFhZgJ9CCpAAhNTsv67fU5P+vvcxWvpkL1oELz44zQf77a+a71SkWnxRG+96H6p/3iuylRr3Vwm1aF3s/WptbfO+vJ24XK42KQggUJAACUC+k+3z25+r7vv73lpEKX5h8EcLqR3sN2uw3gPiC+S8QQ9er+ir+AX7/WrMJ+NxEqCbQYrNnVB0uQphnY74ZEg+M2DXxKVOW6yDQCcBNg4rQAIQ1rOv2v5EDfkUsz7Ji25GKX7h8cF+foGI0kCESn2RnaNV78MVr1X8hyJW8Wf2PuuhT4Dktm6L0JCP6fCJfZzUOBkL2cT3VdnuimcorlFQEECgMAESgPwm3O8KfTDexhG77q8R+sXfLxIRm4lWtRMBvyt3IuDT+75bLYX6eMAn9nmP6vPeBh/s903djll8jgUnNT4dsRON73VozBcf8ty+SHX4SoKnaUlBIBMBuhlagAQgtGjc+jZS9X7XGfNgv2PVxrMVPle+FlkXv0v3u2gfH/AIjWQThc+H7xdwn/L3Bv3sA++0mFlu170+oM/n2fe7cO8q91X4/lz3+2I+WvRW/K0CJzUeg/cA+RiBf1LrVyvmFfff1zPwOQl8sqH1taIPUjxdS390oQUFAQRKFSAByGvm36vu+kQ/WgQvPuDMB/r5GwVLvSgGb7jHCv3u2RfI8Qv4jmr3IQqfP98Jld9hP0k/P17hZMGnT/bFg7wL3pfc9btwX2jHSYVWGbR8R637GAEnau63++nk0H33GNwvDAIXAAAMu0lEQVR/HyPi+zfTuq9UnKxI4XTN6gYFgeYCbBFegAQgvGmsGr3LP9ZX3XwVOV80yF/1i9X/lOv1u2u/k/aZ+65QR/1xwS1a5lL8Tt9XY3TfPQb331cAzKX/9BMBBAYQIAEYAL1lk36BjjFfPnLdn5P7dLQtu8ZmCCCAQEwB6o4hEOMFJUY/qbOqYpzhz18j3FK4Pr2vFhQEogn4WyurqfY24W21KQUBBEIKkACE1Ixb15qBq/fxBP4MeQwH+wWmoToEEEhJgL7EESABiOMao1Z//SxEvf5a2StUkS9Ww5HggqAggAACJQqQAOQz618O0FWfx9/n8/9wgLqoAgEEEOhBgCZiCZAAxJINX+9FqvIqRdvi77P7dLWup20dbIcAAgggMBIBEoB8JtJncTu4ZXc/pe18sF/MU+OqCQoCCCAQVoDa4gmQAMSzjVHzmarUV/7TonbxCWOer7V/rqAggAACCCCwTIAEYBlDVv/5lLRvUY8Xna3PJ7LxGex8yljvPdAmFAQQQCAnAfoaU4AEIKZunLp9Ktq3q2qf8vWjWk5/jc/fFvBX/HzOeJ/DXqtQEEAAAQQQWFmABGBlj5x+8kF9e6nDaysepniiwheq2VBLf8Xvei0pCCCAQLYCdDyuAAlAXN8+avfufR/c9001dq2CggACCCCAwEIBEoCFRKyAAAIIINC/AC3GFugzAVhLg9lsoPCV9NQ0BQEEEEAAAQQs0GcC4IPSLlWjQ8ShapeCAAIIIJCJAN2ML9BnAhB/NLSAAAIIIIAAArUESABqMbESAggggEB/ArTUhwAJQB/KtIFA+gLXqIuXtYgrtQ0FAQQyFCABqDdpq9VbjbUQyFbgner55i3ipdqGgkBQASrrR4AEoJ7zQ+qtxloIIIAAAgjkIUACUG+e1qu3GmshgAACCHQTYOu+BJokAD4HfV/9Sq2d+6bWIfqDAAIIIIBAF4EmCUDJl5NddOW9LnPAtggggAACdwuw6E+gSQLgo4Tv6K9rSbV0S1K9oTMIIIAAAgh0FGiSAPxKbX1JUWL5cYmDZswIIIBAvwK01qdAkwTA/Tra/xUYvyhwzAwZAQQQQGDEAk0TgC/I4hQFBQEEEEAAgaACVNavQNMEwL17pf77ooKCAAIIIIAAApkKtEkAfqmxPkvhM4f5uADdpCCAAAIIINBFgG37FmiTALiPd+q/Nys2VhyoOFNxiaLNucT72OZq9Y2CAAIIIIAAAncLtE0A7t68ukE3jlHspniaos25xPvY5gj1jYIAAgggkKgA3epfoGsC0H+PaREBBBBAAAEEOguQAHQmpAIEEEAAgW4CbD2EAAnAEOq0iQACCCCAwMACJAADTwDNI4AAAqULMP5hBEgAhnGnVQQQQAABBAYVIAEYlJ/GEUAAgdIFGP9QAiQAQ8nTLgIIIIAAAgMKkAAMiE/TCCCAQOkCjH84ARKA4expGQEEEEAAgcEESAAGo6dhBBBAoHQBxj+kAAnAkPq0jQACCCCAwEACJAADwdMsAgggULoA4x9WgARgWH9aRwABBBBAYBABEoBB2GkUAQQQKF2A8Q8tQAIw9AzQPgIIIIAAAgMIkAAMgE6TCCCAQOkCjH94ARKA4eeAHiCAAAIIINC7AAlA7+Q0iAACCJQuwPhTECABSGEW6AMCCCCAAAI9C5AA9AxOcwgggEDpAow/DQESgDTmgV4ggAACCCDQqwAJQK/cNIYAAgiULsD4UxEgAUhlJugHAggggAACPQqQAPSITVMIIIBA6QKMPx0BEoB05oKeIIAAAggg0JsACUBv1DSEAAIIlC7A+FMSIAFIaTboCwIIIIAAAj0JkAD0BE0zCCCAQOkCjD8tARKAtOaD3iCAAAIIINCLAAlAL8w0ggACCJQuwPhTEyABSG1G6A8CCCCAAAI9CJAA9IBMEwgggEDpAow/PQESgPTmhB4hgAACCCAQXYAEIDoxDSCAAAKlCzD+FAVIAFKcFfqEAAIIIIBAZAESgMjAVI8AAgiULsD40xQgAUhzXugVAggggAACUQVIAKLyUjkCCCBQugDjT1WABCDVmaFfCCCAAAIIRBQgAYiIS9UIIIBA6QKMP10BEoB054aeIYAAAgggEE2ABCAaLRUjgAACpQsw/pQFSABSnh36hgACCCCAQCQBEoBIsFSLAAIIlC7A+NMWIAFIe37oHQIIIIAAAlEESACisFIpAgggULoA409dgAQg9RmifwgggAACCEQQIAGIgEqVCCCAQOkCjD99ARKA9OeIHiKAAAIIIBBcgAQgOCkVIoAAAqULMP4cBEgAcpgl+ogAAggggEBgARKAwKBUhwACCJQuwPjzECAByGOe6CUCCCCAAAJBBUgAgnJSGQIIIFC6AOPPRYAEIJeZop8IIIAAAggEFCABCIhJVQgggEDpAow/HwESgHzmip4igAACCCAQTIAEIBglFSGAAAKlCzD+nARIAHKaLfqKAAIIIIBAIAESgECQVIMAAgiULsD48xIgAchrvugtAggggAACQQRIAIIwUgkCCCBQugDjz02ABCC3GaO/CCCAAAIIBBAgAQiASBUIIIBA6QKMPz8BEoD85oweI4AAAggg0FmABKAzIRUggAACpQsw/hwFSABynDX6jAACCCCAQEcBEoCOgGyOAAIIlC7A+PMUIAHIc97oNQIIIIAAAp0ESAA68bExAgggULoA489VgAQg15mj3wgggAACCHQQIAHogMemCCCAQOkCjD9fARKAfOeOniOAAAIIINBagASgNR0bIoAAAqULMP6cBUgAcp49+o4AAggggEBLARKAlnBshgACCJQuwPjzFiAByHv+6D0CCCCAAAKtBEgAWrGxEQIIIFC6AOPPXYAEIPcZpP8IIIAAAgi0ECABaIHGJggggEDpAow/fwESgPznkBEggAACCCDQWIAEoDEZGyCAAAKlCzD+MQiQAIxhFhkDAggggAACDQVIABqCsToCCCBQugDjH4cACcA45pFRIIAAAggg0EiABKARFysjgAACpQsw/rEIkACMZSYZBwIIIIAAAg0ESAAaYLEqAgggULoA4x+PAAnAeOaSkSCAAAIIIFBbgASgNhUrIoAAAqULMP4xCZAAjGk2GQsCCCCAAAI1BUgAakKxGgIIIFC6AOMflwAJwLjmk9EggAACCCBQS4AEoBYTKyGAAAKlCzD+sQmQAIxtRhkPAggggAACNQRIAGogsQoCCCBQugDjH58ACcD45pQRIYAAAgggsFCABGAhESsggAACpQsw/jEKkACMcVYZEwIIIIAAAgsESAAWAPEwAgggULoA4x+nAAnAOOeVUSGAAAIIILCkAAnAkjw8iAACCJQuwPjHKkACMNaZZVwIIIAAAggsIUACsAQODyGAAAKlCzD+8QqQAIx3bhkZAggggAACcwVIAObS8AACCCBQugDjH7MACcCYZ5exIYAAAgggMEeABGAODHcjgAACpQsw/nELkACMe34ZHQIIIIAAAjMFSABmsnAnAgggULoA4x+7AAnA2GeY8SGAAAIIIDBDgARgBgp3IYAAAqULMP7xC5AA1JvjrbXacUSFQYUBvwc8B3gORH0ObCzfXgoJQD3mTbTafkSFQYUBvwclPAcY44DP83XUdi+FBKAXZhpBAAEEEEAgLQESgLTmg94ggAACgwvQgTIESADKmGdGiQACCCCAwEoCJAArcfADAgggULoA4y9FgASglJlmnAgggAACCEwIkABMYHATAQQQKF2A8ZcjUEoC8OtyppSRIoAAAggULFD79a6UBODGgp8MDB0BBBCoKcBqIxCo/XpXSgJwqSb1dwoKAggggAACYxW4VgO7TlGrlJIAXC+N8xUUBBBAAIE5AtydvcCpTUZQSgJgk7/Uf+wFEAIFAQQQQGB0ArdqRMcoapeSEoCLpHKUgoIAAgggsIoAd2Qs4De3+6r/tXf/a92qpATA4z1U/x2pMJYWFAQQQAABBLIWuEO9f5nidEWjUloC4Bf+N0loW8V5Cv+sBQUBBBAoW4DRZydwp3p8mmJTxcmKxqW0BGA50AW6sb1iQ8UuCu862V9LoqowwIDnAM8BngPpPgderteqnRXrKnZX/EDRqpSaACzH8rcDPqUfTlQcT1QYVBjwe1Dic4AxZ/S8/4j6eq7iFkWnUnoC0AmPjRFAAAEEEMhVgAQg15mj3wgggEAgAaopU4AEoMx5Z9QIIIAAAoULkAAU/gRg+AggULoA4y9VgASg1Jln3AgggAACRQuQABQ9/QweAQRKF2D85QqQAJQ794wcAQQQQKBgARKAgiefoSOAQOkCjL9kARKAkmefsSOAAAIIFCtAAlDs1DNwBBAoXYDxly3wPwAAAP//WMSM7AAAAAZJREFUAwDR70V4WeRgQQAAAABJRU5ErkJggg==;imageBorder=none;" vertex="1" parent="1">
          <mxGeometry x="747.5" y="270" width="55" height="55" as="geometry" />
        </mxCell>
        <mxCell id="EOPVycMYMV6uETsPwLMP-55" value="" style="shape=image;verticalLabelPosition=bottom;labelBackgroundColor=default;verticalAlign=top;aspect=fixed;imageAspect=0;image=data:image/png,iVBORw0KGgoAAAANSUhEUgAAAgAAAAIACAYAAAD0eNT6AAAQAElEQVR4Aex9CZwTRfb/q04yM8Bwp9PDgIowkwEUPHAXFe8LUZHFldX11nU9FhSVv6u764Wr633fx+56/zzXFVRUVEBFXVZUUIFkBkGFIRc3IzOTpOv/XoZxAedIUtVJd1L51EtXqutd3650va7qrtZAfRQCCgGFgEJAIaAQKDoEVABQdIdcOawQUAgoBBQCCgEAFQCoVqAQUAgoBBQCCoEiREAFAEV40JXLCgGFgEJAIVDcCJD3KgAgFBQpBBQCCgGFgEKgyBBQAUCRHXDlrkJAIaAQUAgUOwIt/qsAoAUH9a0QUAgoBBQCCoGiQkAFAEV1uJWzCgGFgEJAIVDsCLT67+gAoKKiSvf5qo4y9OqLfLr/AcPrn2Xo/kVIy/D3WsPnbyJK5XX/MixfRHXw9/0G8SAvyWgFQ20VAgoBhYBCQCFQLAg4KgAYMGBAF8NbNQ4777uwM1/Ik1qYce1tAHYvA/gDMDgCAIYjDcLfvYFDCVEqDzAIy4dTHfw9CYgHeUkGyvoyJdNbfdzAgQPLQH0UAgoBhYBCQCFQkAj8zylHBAD9vENGGnrNPfGmrj8A06YDsEsAYAQSQxJNJGMPIJmMzdjSUBKq8Pqf8vmqKZigfaA+CgGFgEJAIaAQKDQEbBsAVFVVlfq81ecbur/OZOZnAPxiBL8vktWpJ2dwOuOMphOCaMN5ZIvVSpV8hYBCQCGgEFAIWI3AtvJtFwC0DPP7L920QVvGGHsYjR2MlK9UhTY8QrYYes0Usi1fhii9CgGFgEJAIaAQkImArQIAA+fgcZj/G5ynvxOd7I9kl4S28LvRtq8rdP8xdjFK2aEQUAgoBBQCCoH0Edi+pi0CgMo+g3cyvP5XAefg0bxdkeyaBnGANwzd/6/+faoG2NVIZZdCQCGgEFAIKAQ6QyDvAYDhrTk+6XZ9CQx+Bc75TEi4NBwNqDnROSYrSxUCCgGFgEKgmBHY0fe8BQDDYFgJPXoHjP8bOPTZ0TAH/O7Jgb9Y4fPfATDS4wB7lYkKAYWAQkAhIBmBPn2qelTg1LBPr77Z8PrfNXR/rU/3r8Vt0vD5myiP+wMVevVbhl5Nj7CfZBiDfZLNyEpcXgKAnXsO771WT7wH9OgdfoFzP4xzuMynb3q3V6+BvUB9FAIKAYWAQqDgEaD1YrBTPxM7+Xkel7aW49QwA3YFjmQfjs5XMYDeuNXw4raE8rjfz4GNgZY+73kwXSEMFj5FGZMG9BiWowtg+Nkn5wGA11tT2VTS+AEHOOBn1ji0AA/wQaWekrnkm0NdUGYrBBQCCgGFQCcIUGftwyv9LQ0lP2Af9gRW3x/JhZRpYsBgFMq4P16a+I5Gkr3eof0yFSJaP6cBgK4PrnIxPg+A7Q6F9xlBvpGPheea8kghoBBQCBQ1Aszn85+BnfUS7LmvQCS8SLJSOY0ku1gy6PP6p4JFU8ptGZuzAICujjVwzUIjBiIVahqIPr6Tj0iuUAFVfikEFAIKgXwi0Levv7+h+99jHJ5EO6ycuy9nDG736Rs/8fmqcrL+TU4CAJrzx6vjtxC8Qu780b1U2hUjubd6qXsCQH0UAgoBhYCTEaBl6N0azEcfDkXKScIRhpGMawsMb9U4eQrblmR5AEB3+zeXNE1H9cORiiWNKPWU/juXQznFAqzyUyGgEFAI5AIBHPKfYDJzLuqqRMp16glM+5eh15xjpWLLA4A1evwWXkA3/KV/MPjBFd7Nf0u/vqqpEFAIKAQUAnZAwOcbMgaH/F9EW7oh5Su5AfjjMoKA9hywNAAwjJrxAGwKWPzx9OwDfUYfBjudORmq/3wr7H7307DX32fAyGdnpYjyVEb7djpzEvTZ/1Bw96CnNKw1jDM+1fBWH2etFiVdIaAQUAgoBGQhoOvVezJuvoTysAPG7/wmhkHAI1b1I5YFAJV9Bu/ETf5PxA4dwG/JyVXeHXxjJsDQGx+CPR59BQZdfDUYx/waeu7xCyjrNwBc5eXA3O4UUZ7KaJ9xzIkwaMo1sCfyDL3xQdDH/Arrdpds3U/iGDD2BN1E8lOJyigEFAIKAYWALRHQ9WEVGrA30DjLOgWUnWnCjow94/NVD8qUsaV++99a+7vE9iQ1170MQPpldknvvrDTGZNgjwdfhJ3PuRi6VQ3JzlDGkHco7HLOFBjxwAsw4PQ/gKe3Jesx9HVp/O7sjFRcCgGFgEJAIZArBDRI3Iu68jHnj2o7TD0ZZy8AHOLusFaGO7UM66dVXddrjgbJa/szlwt8Y38Nu931FBjHnghaaVlatqRTyVXWBSqOmwjD730WKieemRo1SIcv3ToM2IkVunqLYLp4qXoKAYWAQiDXCFR4q49FnROR7Jr2Mbz1F2VqXEf1pQcAAwYM6KIBf7AjpZnuK+vXPzXUv/NZk8HVpWum7GnX10rKoPLEs2DoXx+AUkNuEMiB303LR6ZtjKqoEFAIKAQUAjlBwDBGdOOMPZITZSJKGEyjaQoREdvySg8A4o1dL0AF0l7p22uf0TD0pkeg667VKDY3qesgPwy7+VHoNZJWeZSlk1U3NpScK0uakqMQUAgoBBQCchBgZuNZKKk/kt1Td8aTl6VvZMc1pQYAVVVVpTj0P7Vjlenv9R5+LAyeOg2v+nP/JIarazfUfT14Dx2bvsGd1OQAf6R1ETqppnYrBBQCCgGFQO4Q0Dhwy59Wk+UOY/xCWlxPhjypAcDG9UxaFEWd/8DfTwWmuWT4mZUMuu9g4PmXywwCdlrjTZyRlTGKSSGgEFAIKASkI2B4a44DYLkbYgbhT3ljafPJ6UjprI7MAIDh5/LOFKazn4b9dzn3UgDGIO8ftGEXDER6jtxPjimM/xEF2cAxtEIlhYBCQCHgIAQMY+juhl59t+H1f23o/s1IXJSA8ddkQTCkgsH14z0w+48lUHdTWYooT2W0T5YexrmUC0lpAUA/vfpAdE74BQZ0w9+uk/8E+bzyRz+2SzQSMGjyX6DUV7ldeXY/WLWu+0dnx6u4FAIKAYVA8SFAU6c+3f8AmMmFQIvLMdgNAHI/N4xK20oeN8DfTvDArKklcO5BLqgxNOhaAimiPJXRvhsneIDqtiUjw7JRFRVVesc8ne+VFgCYwIQjEuZ2waAp14Kri22O608Ipu4JuOQaoGDgp8IsMxoDYayyVK3YFAIKAYWAoxDQ9WHla/TkOzhs+gc0XFqfhbKkJOrQnz23BM4a7QIXntzbE0r7zj7ABVSXeNqrl2Y5g6Tr0DTrtltNa3dPBjvo0T+sLvz8pG/sxJze7Y82Z5S6Dq4B39ETMuJpszKHieqRwDaRUYUKAYWAQuAnBKjzd0FiJgA/+KdCm2WmHe+BA6rT70qp7rXjcMhA0A/O+L4diUhnX/pWdyAt3lh2BO7ugZR1ohX++k88M2v+XDFWTjwbPL36iKrr1dhQcpioEMWvEFAIKAQKFYHWzp/b+GVyNK9/+n6Zd6Nn7t8yTSB07DjUCPEjc+aWI9PPEmPCnZkx7mSQubrfz2yUVODq0jW1aqCwOAaHC8tQAhQCCgGFQAEi4ITOn2A/ZZS7w2F/qtMWuXCq4LejRJ9w4x08udCW1p+XyQkAQCwAcJV3B/2I435unU1LvEeOB1d5uZh1HITnb8QMUNwKAYWAQsB+CDil8yfkDvIz2mRFB9WIdr9M+F07ohbA1jsRh2eFwFamvqOPACdc/W81F+jdAX33Exv0wGGtPfr3H9K3VabaKgQUAgqBYkfASZ0/HavK3tl3oQN6Zx88kG6kdt9YiPvSStlbv1W8acJemBXypO/BR6EIZ6W+B48RNViLx5OEnagcxa8QUAgoBByPgNM6f8cDjg4IBwCMM6EbETw9+0C3QUIi0I3cp25VQ8Hdo5eQYk0QOyHlilkhoBBQCNgEAad2/vXrzKwRXLkOx4Gz5k4xbkp9/+wr/QLhAICDWADQffc9AZjQAALk5YM2d98NbRdQzkH8Lk4B9YpVIaAQUAjkHQGndv4E3NwgnsUpkwV9EMg+eGhRx9e1bLP/Fg4AmOCjCN2qhmVvfZ45y6t3E7RALHgSVK7YFQIKAYVAXhFwcudPwD33aRKSZuZBAPE8Nz9JIgSI1bbFnEmZcAAAjFdkonDHumWVO+1Y5Jjf4raLYecYoJShCgGFgEJgBwSc3vmTO4GwCU9+nHlH/sS8JARDgiMADAJkgwiJBwDAhJ6HK+s3QMT+vPKWVgjbLnwXZ14BUMoVAgoBhUAWCBRC59/q9rQZCfiwNv3OnOpejzyt/NluGWef/Jw3sxIJAQAIdWKubkLxQ2beSq7tFl0LAMSwk+yOEqcQUAgoBCxHoJA6fwIrngA47fFm+MdHiQ6nAxI4UPD4B0k47bFmiGOeeAXI1Dx8tgB/ilU8AGBinZirrGvKECd+uboI2y4UPDkRM2WzQkAhULwIFFrn33okKQi46tUEHH5HHB6dm4SlIQ4NTZAiyj8yNwFH3NkM17wWl9H5k9pP6+uDMcpsS5nmxQOATDWq+tsikP640bZcKq8QUAgoBByGgGGM6KZBfAa3Zm3/eUnOeoSjQZYpAWfjZUFJ8/rXTY/DYbc1QfWfG1NE+WnTE+Jz/tsYyRl/epufWWfFAwAOQs8iJht/zNr4fDMmtwjbviHfPij9CgGFgELAagToyp+ZjW8BsENA8ocBfGSC++hYLJBVXxSOBV5HGUHJZlkpblNZU9kLP1eQeYl4AABiAUBic1bHLHNPLeBIbN4sKnW9qADFrxBQCCgE7IwAdf4uSMy04sofO+6PkuAeG40uFjkZm8DgHjtjuK1tnPOHvt/wlfAaACRTQgDARYCHptAqssOR1BRaKWq3CgBEEVT8CgGFgG0RcEDnn8KOs7InMfMDkt3TRuYy72jLyGzKxAMAzkLZKG7laax3Auat1m6/lWD72u0lql8KAYWAQqAwEHBK509oh8OLGoCbkyhvb2LXhMPLIrJsFA4AuOBiBA2138jyJedyNge/FtLJOFssJEAxKwQUAgoBGyLgpM6/Fb5wrG4G5l9EsmdiMD8c7fdA28ZlVyocADDgQqsRbfz6SwDOs7M+j1ycm7DpG7RdwAZTg4UC7IpVIaAQUAjYDgEndv6tIHIWvxjzdpyXXg+MnQwwJ4H2SUvCAQBnYgFAYuM6aFi2VJpDuRLUULsEEpvEbuJnjKkAIFcHTOlRCCgELEfAyZ0/gROJLA/jqPaxmN+IZJeUYACnhsOB5e0ZlG25cADgdmufo3KhS/jYB++gCGeltXPfFjW4KRzu5rzIR9Rrxa8QUAgUJAJO7/xbD0okElzImTkRf8eR8p0wHoFzQ9Hgm1YYIhwAbF2NaJGIcWvnvQdmU6OIiJzy0vP/az4VXYWRfQqwwA4NLKfYKWUKAYVA4SFQKJ1/65GJROreAY1RENDQWpaHLV35n42dPz2h0IH67HcJBwAp1QzeT22z/Epu3gSRWXT/RZYCcswWnTUdkoJrAHDOp+fYbKVOIaAQUAhIsLXwpQAAEABJREFUR6DQOv9WgHDI/TWNmwfh73zcE7Aeh/3HW9n5o18gJwAwuVAAQIaEX38eko1bKGtrSm5pgNAM8RtFOUuqAMDWR1oZpxBQCHSGQKF2/q1+r47VfZ4wYRQIXuS2yktry2A+aGxv7PzTGvZPS2Y7laQEAF3K4++i/PVIWaf4urWw+iXLRjqytmtHxvoX/wl04+KO5Rn95vBNNLqsLiMeVVkhoBBQCNgIAcPitf0TnB0juMKfFLTWrAmuCkeChwM3j+cAwqu/dWBUAwN2ZThSORpHH6Tf8NeWXikBwIoVK2gC/+W2FGRSFn7rZfjxW/suydxQtxQib/87E5farMs0EMaqTcGqUCGgEFAI5AABuvK369r+VrlP6wQ0x5uHA7AbAUDaYjwoaxNOCd8KWnJQKBq4JbNH/ZBbIEkJAEi/CfAUbUWIJ5Kw7O5pkPwxn/ddtO1BomEzfHvP9cCTybYrpF8aT5js0fSrq5oKAYWAQsA+CFDnb/O1/S0Da/36FevD0cBV3XuaO3PGTmcAH6GybJ7N58j3MWf8wtLm0l0isdorZK7wh7LTStICgGg0SEAID2s3heth+f1/k9HRpgVAOpWo019+3w3QFFmdTvXO6vwrFgvUd1ZJ7VcIKAQUAnZDoJg7/22PRV1dXVMkEngmFA0emOSsjwlsLO6/CWkW9uwBJHpZTwIYNGPZGvxNZTMZgzsZsN+4POALR4OjI5Hah78XeLEPyhZK0gIAtAJHMfhtuBVO6xd8DN89doc9VgjkHFY8chts+OI/wn6RABPgftoqUggoBBQCTkJAdf5tHy28oNsUjQbewg79z0hHRaLBIUh9MO8JR4KluPXibyo7JhQJTg1FAy9tfXy+bYE5LJUZAECPXvxJjHSk3CQRmz0z1fHS1XcO8dhOFele/tAtsEZ80Z9WuY2upKleANSKhtoqBBQCjkBAdf52PEziNkkNAGhYBIc3bhc3q0UCBQF1d1wN+bgngOb86277i8zOn5wq4y7tP4a3+hT6oUghoBBQCNgdAdX52/0IZW+f1ACAzPCUNtANbssoL4M2LPgEFl9xHvy4TOidQxmZQnf7L7nyPGnD/jsoLwfGnq3wVj9YVVVVusM+9VMhoBBQCNgGAdX52+ZQ/MwQGQXSA4CVK1du4UybJMO4VhlNkXpYcvUk+P6J+4EW4mktl72l5YhXPvcoLL1msqwb/to1kTN24cYNro99vupB7VZSOxQCCgGFQJ4QKJbn/PMEry3USg8AyKtIZOnbuH0VSVqi+fjIzFfg6ylnQOj1F0DmqoG0tn9o+vOwaPIpEHrt/3L2BAIDvjdw9pnhrRonDSglSCGgEFAICCJAV/7F9py/IGQ5ZpejzpIAgExzJZNTgIH0G97iG9bCyqcfhkWTfgPf/f1uaKhdnN3TApzD5uA38P1jd2LHfxKsfPYR8RX+yPEMiQH0Bqa95tOrbwY4xJ0hu6quEFAIKASkIkCdf7E+5y8VSAcI06yysX7tsh/AZGejfI4kPdHLeKLvvAZLrpoEX553QmoBofAbL8PGL/8DTfU/QGLzRuCJRIooT2W0L/T6S7Dsruvgy99PgKVXT4bIuzOEX+wjwTnGgF3h0+vf83qH9pMgT4lQCCgEFAIZI6A6/4whywuDLKWWBQBkYDgWmI49212Ut5ISG9fDuk/mwA9PPQDBm66Ery49A7783XhYcOqRKaI8ldG+lU8/COs+nQuJTRusNCkr2QzgIBdLLvT5qo/MSoBiUggoBBQCWSKg5vyzBM7BbJYGAIRLKNL9ShwC+IDyitJCQGeczTT06r9gbYwJ8FslhYBCQCFgIQJ05a/m/C0EWKpoecIsDwAAFsQTSZNucvtSntkFL8kFwG4wvP5ZhjHYB+qjEFAIKAQsQkBd+VsErAPE5iAAAFi7tm5jkrNjEY+cvOIQ9RRGYnA4mK7PfL6q/QrDIeWFQkAhYCcEqPMHc8vrAOwQkP+Zh+f9sbRUrnzRxStRpuc5CQDIYGwE9SYkj8K8CgIQhAzSTgy0OTglcBGoj0JAIaAQkISAGvaXBKSDxeQsACCMotFldSa498e8mg5AENJOHEoA2L04JfBq796DeoL6KAQUAgoBAQToyl+D+AwOcICAmPZY5yU4OyYaXby5vQqqPFsE5PLlNAAg07FRhJrizYcCsLlQGB96C+KtDPjZAOxHsPLD4Fcet/s/hjFkuJVqlGyFgEKgcBFQV/6Fe2wz9UzLlEFG/fXrV6wPR/sdwRhMQ3kmklPTZgbspEis9opQtPYJl8lHAodvrHSGAdSAac7H0YBzrdSjZCsEFAKFh4BhjOimrvyde1xlW56XAKDFiTmJUCR4HXA+Hn+vQXJU4sAXsKQ5KhQNvNRqeP2a4NIkMLph74XWMou2ZcDgMUP3PzZw4MAyi3QosQoBhUABIaDrw8rVo34FdEAluJLHAKDF+nCs9vWECXtgh/pyS4nNvxk0A/CrI9H++4bW1i3e0dpYLLApHA2ejFfqF2EnjXV3rCH197lbGko+0fXBVVKlKmEKAYVAQSFAnb9a3tfph1S+/XkPAMilNWuCqyLR2omcaUdj51pLZXYk7NTfYpq5dzhaewPAnERHNoaiwftZEg7EKYHvOqonYd+eGtCjgv4JEmQpEQoBhUCBIaA6/wI7oBLdsUUA0OoPvUWwe08+HDvai7DsByRbJLTnC874kdipjw2F6tKe4w+tCc53l2oj0Yk3kaxMPRmHVyp8/jsARnqsVKRkKwQUAs5BQHX+zjlWnVlqxX5bBQDkYF1dXRN2tPf3jbqr8Or593kcEeAA7B0alUB7RkYite9CFp9Vq5auCUeDxyErLe2bxK1ViXEOlxn6ptn9+1QNsEqJkqsQUAg4AwHV+TvjOOXTStsFAK1gLIbFzeFY8PFwtLbGBBxKZ/AY7luPZG3i8B3j7HbmMoeHo4ExNCqBCjEYwO/sEw9Hg39DufSSn3D2YtLiHJ1waZ/71AuF0gJLVVIIFCICqvMvtKNqjT+2DQC2cZdHo8GPwpHgeV26NffD4fhjGYM7cT8tJoSxAeZEUuqmPvgYRdzMmbk/Bh27hmKByzMZ6kfetBLKnZ3krr0wmrD65Uj0QqG3fF7/tWiYE44xmqmSQkAhIAMB1fnLQLE4ZDiqc1ixYkVjKBp8MxQJTsUr6r3cJZqP49w8BgWT8XDdDzhkDwALkb4FBmuR6C78OHa467BsOQD/Grdv4PZuDCImMa4d6nJv7o2yRiP9KRKp+wT3Y3X8tijFYktWR6KVh3Pgt6AKK3Vp6ON1hl4zs6KiSkddKikEFAIFjoDq/AvzAFvllaMCgB1BoPl1mpvHoOAB7MAvCuOQPW73RBocjgT7IpViviQSDfbB7aBwtBaH9YPH4fZSDCIeDMWWzqmvr7d29b4djU79npOIRGuvBG6OxwiAgpNUqTVf/CgzSVMCQ2gJZmtUKKkKAYVA3hFQnX9+DkGfPlU9KnT/MT69+mbD63/X0P21Pt2/FrdJw+dvojzuD1To1W8ZevVdWH6SXd7y6ugAID+HW57WcKxuBtMYPSXwmTypP5eEIyQDGDfnYOO8FPfiT/xWSSGgECgYBFTnn9tDSQuwYad+Jnbm8zwubS1eyL3BgF2Bo86HoyVVDKA3bjXgUEJ53O/nwMYAsEsA4HkwXSE8H3+KMiYN6DGsD5Z1kKzbpQIA67BNS3I4HFjevad5AOP8obQYsq/kAQZ3YoN7ubd6oVD2KCpOhYDNEFCdf+4OCHXWPrzS39JQ8gMHeAIAaGTVhdtMEwMGo1DG/fHSxHf0CLfXO7RfpkJE66sAQBRBCfypRx9jtX8Azk9FcZa+QQsb3AklLvfCir7+X6AulRQCCgEHI6DW9s/dwavQayZiZ70Ee+4rUKsXSVYqp0e4Xcysw0DgumEwrGRbwVbmVQBgJboZyg7Hap/TTP5LjAx/tsRwhqI6rs5gF67BXEOv+V3HFdVehYBCwK4I0JU/MxvfAmCHgOQPA/jIBPfRtLS5ZNGOE9e3r7+/ofvf58BfRON9SBYl3hUDgWtjevxjn69qsEVKthOrAoDt4Mj/j9VrapcAK8MggD9rsTVdAPjjPt3/RGVlZVeLdSnxCgGFgEQEqPN3QWImjugdIFFsShR1/klwj41GF1s6GplSZvOvft4hI90azEczD0XKSWLARjKuLTC8VeMArFWpAgBr8c1Keji8qCEcqT2NM34hCmhCsiwxgDOT8fJPvd4hfsuUKMEKAYWANARU5y8Nyg4F+Xz+CSYz52KlSqRcp57AtH8Zes05VipWAYCV6ArKjkRqH9a4NhrFLEeyMg3H+afPcI7rN1YqUbIVAgoBMQRU5y+GX7rcPt+QMYzDi1i/G1K+kptGaa0MAlQAkK9Dm6be1bGlC0qbS0cC49PTZMm2Wnec43oBG9s9ubwJJVtjFV/hIODz7WoYXv/Jhl59Nz0rXaH7Az56jtrnbzKQKE9ltM+w2XPUuTwKqvPPDdq6Xr0n4+ZLqM2NlO+Eg7T8EcNbfZwVhqgAwApUJcv8fsNX63BK4FeMMbr7NCFZ/A7i+MVrvIkPKnsP2nmHHeqnQkAaAgN6DOuDnfpk7OD/w7gnBAz+D4BN4cDGcAA/nvV6A4cSIspTGcd9WMdWz1FDjj6q888N0IhzhQbsDdTWHSnP6Sf1bmDsGZ+vetBPJZIymiQ5Soz1CPBQJHCrCXAYqqpHsi4xGJV0uz/HE/RY65QoycWIgNdbU2n4/HfGSxPfc4D7sIP/ZZY4MMB2ijLy+hx1lrZnxIadUrm64S8jyLKurEHiXmSuRLJb6sk4ewHgELdMwzSZwpQs6xGIRoMfMpe5J7S89wAs/PTFk+sbNCUgu9FZaLMSbVsEDnFjW5riYnwpdvq0IqXMudW8PUdtNdyGMaKbBvEZ+F+Ufrc/2j4vwdkx6m5/RAJThbf6WNxMRLJFasOIfQxv/UVtlGddpAKArKHLH2MoVBcNRwPHALAbAMBEsioxAH6x4at/m+ZprVKi5BY2Aro+tLpCr5+Pbelu9NTCodXcP0eN/liW6MpfPedvGbzbCaZAizP2yHaFdvzBYBq2iwpZpqkAQBaSuZeTxCDgauyh6eaQNZaq53AYztN+ruv+Ay3Vo4QXHAKGUTNeg+RneAW7V66cYzl8jtoqn/Akr4b9rQK3DbkYaJ2Fxf2RbJLaNaM748nL2t2b4Q4VAGQImN2qh6LBma5EYm8cVv2PxbZVYmN5v8JX80fUw5BUUgh0iIDh9Z8LJn8FK/VAynXKyXPUVjilOn8rUO1QpsaBT+mwho12MsYv3LnncHrZkLBVeE4XlqEE5BmB+nXfft835j4IgNENLGDhx805v8XwVf9bVgO00FYlOo8IpDp/Bo+iCdm8KAXZpCQ3Tjs8bli8mIoUS7cKUZ3/ViByuDG8NccBsGqw0acTU8obS5tP7qROWrtVAJAWTPavtBgWN4ejgSkM2Elo7YaJOOUAABAASURBVCYk6xJnxzeVNC2gZTKtU6IkOxUBGvYHBg+j/Qwp3wlt4JY9Ry3TOdX5AxjG0N0Nvfpuw+v/2tD9m5G41QSMvybrOA6pYHD9eA/M/mMJ1N1UliLKUxntk6WHcX6GDFkqAJCBoo1khKKBF5Nc2wdN+grJyrSrycx5Pl/1BVYqUbKdhYCuD63GYf+n0Op8Xvmj+u2SGyx6jno7LQI/ir3zp8XHfLr/ATCTCwHYFGCwGwB0Q3JE8rgB/naCB2ZNLYFzD3JBjaFB1xJIEeWpjPbdOMEDVLdjp9LaO6qiokpPq2YHlVQA0AE4Tt0Viy0Nujyb9+UAT1rsQynj7CGcEniG7qK1WJcSb3sERnpckHwBzczHnD+q7TBZ8hx1hxrT3FnsnT/5v0ZPvoNDNX9AyBzXJ1GH/uy5JXDWaBe4NPQCnWgr0b6zD3AB1SWetupkUMYg6To0g/ptVtXaLFWFjkegvr7+x0g0eBYAOxcAtiBZlzg7FXjj/H59q4dap0RJtjsCFb6Nl2DQmbO7/bPAQ/pz1FnYsB0LdX6uIn6rX6v/APzg7YBx0I9px3vggOr0u1Kqe+04HDJox8d0iznj+6Zbt7166VvdngRVbmsEwtHA303g+6ORdUjWJQ7DTI3NN7zVp1inREm2KwK0wh/n7Fq72veTXUzuc9Q/yc0i09r5YdAkfZEfvA79KAnusXZe5MdK/7M4HFmx0Lz+6ftl3o2euX/LNEFWSluZONS0ZrPdZm55tpoUX94QiEZrv2xOJPbBk8K/LDaiHBh7tsJb/WBVVVWpxbqUeBsh4NL4/0NznDBnK/U5avQ5q2Rl54f/c9X5Z3VUMmc6ZZS7w2H/9iTSdMBvR7V1m0x7HG2Vc+EnF1QA0BauBVi2bt23G0LR4InAgRaRiFvpImfswk0btI8Mo2ZXK/Uo2fZAgF7sg+3qPHtY07kVMp+j7lzbz2uozn+YZYsc/Rxta0sOotdWZanioBrR7pcJrwUgakGWriu2PCHAw7HgXcyE0ah/BZKVaR8w+Zc+X/WvrVSiZOcfgURpgqZ9nHD13wqWtOeoWwWmuzWKfG1/i/1P9zBIq9e/d/Zd6IDeOFazgyUZ/hReVjt76zO01Irq9BiEz1d1lKFXX+TT/Q8YXv8sQ/cvQlqGv9caPn8T5uOpvO7/HvNLKvTqt/D3Az6vf6qu1xzdq9fAXlBkn9Ca4H+Zy/wlWP9CoR6Ms5d8evXNAHLfYgVpfOhkY/StOaxC9082dP+9uJ2J28XYTlZgG1iL+WYk1T7SwLKjKhxAyjPJpKPG7YFre/aBWb5+sKTfzimiPJXRPqojg2Q9R52JLXTlz8zGtwDYISD5wwA+MsF9dCwWsHYNEAG7rfRfwCwhVmz7Qvz5ZtbybUAm+gcMGNDF8FaNM/Tquwzdv5AntTDj2tsA7F78A/wBGBwBAMORBuHv3sChBPPuVB5gJ8wP4cDG4O8/MAa3a8BnlnpK1mCH8LXhq3kYO4ixw2AY8WDVwk5bXyg0lnO4DgAsfaEQA3aFT69/z+sd2g91WZk0Xfcf4PPW3IrH9FMwG9eDxt/j9NpZgItwezQqH4rtZBcGQMNnHvzdefvw+b8ptvaBuKSVtr4kap+0KndQyYN/yL9ixz9T7wfndOsOfncJdMUyIspTGe27HutQ3Q5EpbtLynPU6Sqjzs+l7vafif9B6Tc8pnsMrKhXvy77U+fKdYjGdkZl/EM42HNCAMD66dUHGbr/8XhT1xAwbToAuwQARiAxJNGkAS06wfn5eDjeXKMnIvRce4W35lBRwQ7gNyOx4DTOOHWMUSvtxQN1kIslv7ACV5+vZkSFz38HtpEVGsCHOMd7OR7TUeiP+LM2ABoGksOg7fbBUEdRJ2Z66H8ihIOHMXiyrw/OwI7fhfn2AKV9Z2Idqks87dVLs5zJeI46HV2q8y+cOf8dj/fcIPYaOxam+fuDQPbBQ4sKvq5lm/03ni+zZ7aSk+4i93mrz8eTeq0JbC7q+h1SDySrU0/g7FTsFN838MqvQvdPqqys7Gq10nzKj0RqZ7mT5t5owzwkK5OBuNI0zZ9RiVCngfya4a0+zvD638Xh3IW85eZGGuXBXZam/7UP3f8Nto/Jhd4+OkSTceFnka/p0RtGl5R1qGbbnVT3KuTZtiybPLZFYds706s6/8Lt/OnYP/dpEpJm5kEA8Tw3P0kifqLMM6w2c57tOWwXALQM8/sv3bRBW8YYo/XEB29vcg5/cRiGh/b+ZLy8Dk/0kwp5emDV2rqV4Wj3QxmDOxFhdBu/rUkuFHsjBnav9+8/pC/mM054LMZix78IGJsBDA7PWIA8hqEI1H1b28fkQm4f7UHGgAk9i1zj9sCpXcvbE99u+enI43cLztZJeI66XQNxh+r8C7vzx0MMgbAJT36ceUf+xLwkBEMmicieGASyZ27htFUAUOGtPhaH+b/Bkzp1Qv1bTLTFdz880d+P0wMBw1tzvC0sssSIBfFQJDiVM6A79zdYouJ/Qo9JNJkLKvr6f/m/oo5zNNRveP2z8Fi8iW1kt45r53QvtY/7Uu3DqBmfU815VobHQuhZ5JNxSJ+G9jN1g3hO6ir64IH4c9Tt2a06/8Lv/FuP/bQZCfgQx6lbf3e2pbrXI8/29TL/xTj7JHOu7TlsEQBU9hm8E57YX+WMvY7m2fnZ8YH05qgKveZlWvkMbS3IFIkEXzUhSTd2fWmpgwx24S74sEL3T+5Yz0gPzvFPw6H+z7Djpxs9O66ev70DweT/Rn9eKeT2sQO8Qk/RHJjB0P8OeuHAsi47FmX4m9GNoBnydF5ddf7F0/lTa4gnAE57vBn+8VGiw+mABA4UPP5BEk57rBnimCdeATI1D58twJ9izXsAYOAVU8LlWogn9l+lLHLAFwf+axfj3/h8fsfYnCms0eiyui7dmvdDvseRrEscSvAq8j5D9z+PnebPnmv1+WpGGPqm/3IO16ARdNc+buyd0J8TtraPCfa2VIJ1DH52zDKR2s9NM0KZcPyvbn9X9rxbpQjZvlXGdhvV+RdX59968CkIuOrVBBx+RxwenZuEpSEODU2QIso/MjcBR9zZDNe8Fm+z82+Vk8H20/r6YCyD+m1WzWMAcIjbR8+Hm/xVBmBJJN6mx/IKezEOrxo+/yOFOve7YsWKxnA0+HscmTkdYWtAsjKd5Gb8M+rwW5UYuv8kxJiGufZoLXPQltrHvwq5faSOBQZwqW2WX+Us+1OQCO9Wc0u3bqVsaN0JDeIzMAC04lG3eQnOjrHz2v5W+5/krAeej5hsAs6kTdvRvP510+Nw2G1NUP3nxhRRftr0BNA+KQ0NhXDGn8aNcMr+3yegeueew3tX6PWzGbArUAxDcm7icN4aPflOrwJeUCgSCTwDmrYfntiEbzqBDj4o3884fFKhV5/l89bcilWfB+DOfgID20dMT8zqVcDtA9QH6MpfLfLjzEWOwrHA69gJBfPXjDPWvKmsqeyFjLnaYMh5AECLwTSVNM3Gk70VUXIbLuaiiB9c6i75iO5lyIW2fOgIh5d+xcFN9wVgp2ylBbwrB/bP1LP8VqrJoWw8uRxUWlIyr5DbRw7htJ0qq698E0V+5Z8D/01gcI/tGlY7BuEU9IPfb/hKeA0AEp/TAEDXB1e5WPJjVOzEIV00u4PEYLek213QL8Ch4UccfvstXpVfDAyaO0BD7doRAQ7DqH34fNWDdtylfjsXAXXlP6y8EEY+OCt7ElvhD0g5Txkq3Mg0k56Sy5Ct7eo5CwC83ppKDVyz0IyBSIWZON8ZTP4u+VqYDrZ4FY7W3qeZ2v74azmSSukigO2DgTa7svegnUF9HI+AuvIf0U0rkHsewuFFDThSd4H9GyW7JhxeFpFlZ04CAJrzdzH+FhpduJ0/Orc1DXIBfyfbRW62yrD9ZnVs6QJ3ifYLNPRNJJXSRQCDgKTHPbPQ20e6cDi1nrryL4wr/23bXygapHPZi9uWWZ/PQAOD+eFovwcy4Oi0quUBAN0h31zSNB0toZf04KYIEk4HJOImNqTcvwEvl+iuWrV0TTgaPA6AX4V6k0gqpYMAh2HF0D7SgcKJdajzd0HCkhfb4FXoR0lwj6XpNrtiU8j+cxa/GHFfhWS3tB4YOxlgTkKmYZYHAGv0+C0coIBu+EsTfg6HVfjqb06ztpOr8XC09kbG2ZHoRBhJpXQQaGkft6RTVdWxDwKF3Pmlg3Kh+x+JLA9zBsciFhuRLE9pKkhgYHhqOByQPuVqaQBAi/wAsClg8cfTsw/0GX0Y7HTmZKj+862w+91Pw15/nwEjn52VIspTGe3b6cxJ0Gf/Q8Et4WUinbnFOUyt0GtO7KxeIewPxQKzk9y1FwZ7H9jNH707g/F7ueD68R547rwS+PDKUljy1zL47pYWojyV0b5pWOf4PV3gLce/nMWOYPu4rFjah8VQZi3e0P08E9IgsQnbuPQLGmxt6srfJiMfkUhwIWfmRGxUcaR8J4xH4Nyt0xPSbbEsAKjsM3gnbvJ/osXYtvFbcnKVdwffmAkw9MaHYI9HX4FBF18NxjG/hp57/ALK+g0AV3k5MLc7RZSnMtpnHHMiDJpyDeyJPENvfBD0Mb/CutIXBPvJWw78IZ9vV+OnggLOxGJLVkeilYejz3Rli+fJ/DnbqyvA2Qe44I0pJbDwulJ46DQPnHuQCw6p0WCwzqAn7ve4AYgoT2W07/dY5+HTPSme15H3rNEuIFlWeYJYFU37sApDp8vFE6Tq/G3S+be2pUik7h3QGAUBFi6A1qqt3S1d+Z+NnT89odBuJZEdmghzR7xJzXUvNmzpK/yV9O4LO50xCfZ48EXY+ZyLoVvVkI7MaH8fY8g7FHY5ZwqMeOAFGHD6H8DTu0/79bPf49W458Hs2Z3GOScRidZeCdwcjxGAlGdVM0GgoieD6473wGdXl8GNEzyw187ZNXFsHrA38v7tBA/896oyuPZ4Nxg9sEVnYkx6dYusfaQHSrHUwhalOn+bdf6tbQ+H3F/TuHkQ/s7HPQHrsW2Mt7LzR78gu7MjcXZA9FY/YCB1nXzmdoEx7mTY/Z5nwDj2RNBKy0DWx1XWBSqOmwi73/0MVIz7DY4auGSJTsnBjvAEn88vFY+UYBt/hWN1M5jGRuIV7oJcmOnBQ3bhIW74CIf3zzvYBV1L5GntVgpw/sEtsi9AHaRLnnSAre1jgkyZSpb9EcATvOr8bdr5t7ae1bG6zxMmjML+7P3WMlnbduUwmA8a2xs7f3oqod1qMnZIDwAGDBjQhTN2nwzjWmWU9esPQ294CHY67XypHX+r/NYtBQIDTrsQhv71QSg1KluLpWw1DjgsPtIjRZhDhGAEvbxHTz6acf6QlSYPwiF9Gq6/epxbase/o83dMBC4BnXMuLgUBvZlO+4W+o3t42aA4mofQoA5nBlbj+r8bd75tzaxNWuCq8KR4OGcs9OwzMobnTcCsEvCkcrRdO6EHHykBwB3w9RWAAAQAElEQVTxxq4XoN3SXunba5/RMPSmR6DrrtUoNjep6yA/DLv5Ueg1kta6kaMTr/L8Ffqm8+RIc46Uurq6plCs9g/A+alo9WYkqWnMbhrMvKQEhveX3pTbtXPEAAZvXVoCR+6Gww7t1spsR7G2j8xQKozaqvMH2wc/bbW0SCzwbFO8Geec2Y24P4IkkLZj3cQ5vxW0ZHU4GrgHQO6jfttp2uGH1LNmVVVVKQ6VTN1BR9Y/vYcfC4OnTgNXl25Zy8iW0dW1G+q+HryHjs1WxM/48CR/9cCBA+XNXfxMg30LwrHa51jSHIUWNiJJSafs64LHz/JA9zI8pUqRmL6QHl0Y/P1MD5z8S1f6TJ3ULOb20Qk0BbMbW6rtO79Cf9RPpDGtX79iPXbSV3Xvae6MI92n0/FEedk8m49/d/iYM35haXPpLpFY7RVhiSv8oU1pJakBwMb17CzU2h9JOFHnP/D3U4Fp8k6wmRrFXC4YeP7lMoMAY8vmEhpGytSUgqifdGl90REpARB1/red6AGXxlBkfpIbm+Ydv5EaBBR1+8jPUcydVmypqvN3yLB/Z62CRjbpLamhaPDAJGd9TGB0pXgT8s3Cnj2ARDdAJ/CCmN6ZsgZ/U9lMxuBOBuw3Lg/4wtHg6Eik9mFZL/ZB3RknmQEAw8/lGVvQBgMN++9y7qUAjEHeP2jDLhiI9By5nyxTLkFBNnAMrchxYsAvlqGShv1v+bXbLs0DbsVA5IhhGA3IcA6gaNsHFPAH//Cq8y+Qzn/HZhqLBTZFo4G3sEP/M9JRkWhwCFIfzHvCkWApbr34m8qOCUWCU0PRwEv19cHYjnLy8VtaANBPrz4QHRiMJJTK+vWHXSf/CfJ55b+jAzQSMGjyX6DUV7njrsx/M9jNMPyHZc7obA5aF4IBE34Sgm74u/cUT16v/Hc8EjQScP8pbthFxo2BRdo+dsS0kH4zsP+ctxr2z2WLs48uaQEADoGcIeoWPeo3aMq1kI85/85sT90TcMk1QMFAZ3U73W/yUzqtU2AVki7XH9AlN1LWiR6/e+h0T17m/Dszmu4JePj0EnC7OquZxv4ibB9poOLIKqrzt3/w48iGJcloKQEAPfqH9kxEEkq+sRNzerd/psZ2HVwDvqPFH9fmwCbQS5Iy1e/g+tQtniNq/7kHunN6t3+m9u6xE4NzDiBXM+Xcvn4Rto/tASiQX6rzV51/W03ZTmVSAoB4Y9kR6FQPpKxTSe++0H/imVnz54qxcuLZ4OnVR0gdnhh6r/HGjxIS4iDmCu8Qmh7yiZhMK/xNHeMWEZET3v83xgM+wZWli6195OTA5FgJHkM151+gc/45bkqWqpMSAABjwnPatMqfzNX9rELN1aUr0KqBwvKZdqSwDIcI4IwLD5tccLAbupbY3+HyUoDzD5EQqDCgoNr+DisL20CAz0navPNTc/5tHLacFNlLiZwAAMQCAFd5d9CPOM5eyHRgjffI8eAqL++gRjq7+CHp1CqMOqZQgNirK8Bp+4kPrecKyzP2c6deNiSmjxVR+xBDykbcSbTlvr5Rz5hodLH0Ra9QtpSkOn8pMBaEEOEAoKKiSkckhiNlnfqOPgKccPXf6iAtGdx3P6E+jUTt3r//EHounvIFSy0+st1EHJywt8sRV/+tPnYrBfjVnq7Wn9luh7dgly274ssRAg0A/Guku1nSHBGOBi9eDIvp2e8cqc9Mjer8M8NLdm27yRMOAEwT9kKnGFLWqe/BzpsO73vwmKz93cqoJZrNmKH7eSET+Yj+CrWPiSOFO1M0IbfpxH2EbXZE+8gtqvK1YYfNBKk8HK0djnRpaG3dYvkWypOoOn95WBaKJOEAgHE2RAQMd4/e0G1QjYiIvPB2qxoKnp5iNwPmxXCHKfWWM9hjJ+FmmnOv6VXCenehuCfnNiuFhYuAYYzopkF8Bgc4wAIv5yU4O8bO0x4W+JyFSPuxCJ9ZOTCh3rvH8L0BmANPlGhz+bARoD7WInCAX3Nq84B9B2vWgqOkKwTSQIA6fzC3vA7ArLivZF6Ss7G0Gh6oj+MQED5DMQ5+Ea/pSlqEP5+85dW75VN9Ueje24FX/60HZuTOwn+vVlFqqxDICgEa9mdm41tgQefPAD4ywX206vwhrY8dK4mfoRivEHGsrP/OIux55S2r3Cmv+otBeZWBpxmHOlrlc67tDoVcmb0NAnTlr4b9twFEZX+GgHgAAEzoebiyCikvD/yZY7koKK0YkAs1Ra1joNe5naiTbS/qRlcAzqsrf7sdRHvaIx4AMOgh4pq7m+CyaSLKBXndwmsBCBpQBOy9ujg3AKD1C4rgECkXbYaAuvK32QGxsTniAQCA0AiAVtbFxvB0bBqtCthxDbVXFIFuJaIS8sdfXubc4CV/qCnNIghQ569u+BNB0Bpeu0qVEQDY1Tdll0JAIaAQKBoEVOdfNIdamqMyAgChJS/Nxi3SnMm1oOSWH3Otsuj0Ndh2TbXOD8XmRt55JVVDISABAdX5SwDRMhH2FSweAHDYKOJefLMQu4hqYd7EZqHYR1h/MQhY96NzO9H1Kj4shiaadx/VDX95PwSONUA8AAAu1As2hesdC15TaKVjbXeK4d+tcW4AsCLmXNud0j6K3U668leP+tm7FdjZOvEAgLOQiIONq74XYc8rb2P9D3nVXwzK68LO7UTrIs61vRjaltN9VFf+Tj+C+bdfOADgDAIibjTY+/0ZHbq2Ofh1h/vVTnEEFnxvigvJk4TPvqO3w+ZJuVJb0AioK3+nHF572ykcADDgQgHAxq++AOAOvFJCmzctXmjvo1sA1s2rNZ3aPOCTOge26wJoM4XuAnX+6lG/Qj/KufFPOADgTCwASGxcBw3LlubGW4laNtcuhsTG9RIlKlFtIRDbzOGLH5w3CvDZdxzWNKgAoK1jqsqyR0AN+2ePXT447a5TOABwu7XP0UmhM13sg3dQhLPS2rlvixpsuks0bzgaZIVM5CMCJdSDv/yZ84bSX/ksgW4LJUe0DyEPFXNGCFDn74LETDzZHpARYxqVGcBHSXCPjUYXC93UnYaqgqvSp09Vjwrdf4xPr77Z8PrfNXR/rU/3r8Vt0vD5myiP+wMVevVbhl59F5afZBiDfXYAQjgAqK8PxtCRRUhZp7Xz3gOzqTFr/lwz0vP/az6dLar261Wrlq4RFWJ3/q0+fiNi57+/SMKPDloPYHMTwGsLhYOWr7ZiJwKd4i0QBFTnb68DOXDgwDLs1M/Eznyex6Wt5QBvMGBXAIPD0dIqBtAbADTgUEJ53O/nwMYAsEsA4HkwXSEMFj5FGZMG9BjWB8vykoQDgJTVDN5PbbP8Sm7eBJFZM7Lkzj1bdNZ0SIquAcDgvdxbni+NXKh90PP0T3+SyJfxGet96uMkbBBeA4DPyVixYihIBHR9WLlLXfnb4thSZ+3DK/0tDSU/cIAnAGB/JBdSpokBg1Eo4/54aeK7Cp//Dq93aL9MhYjWlxMAmGIneHIi/PrzkHTAqoDJLQ0QmvEimSxEJodXhQQ4iJlxLuzrw3OS0IBX1nZ3e1Mjh4fniAcrjMMsu/uq7LMeAdX5W49xmhqYz+c/AzvrJdhzX4E8XqQOUwY7yzmHy1wsGfR5/VMBRnoy4BWqKiUA8JRtoavZDSKWxNethdUvU0AlIsV63voX/wl046KgptXRaHCeoAzHsIdidR+hsWGkrFN4I4c73hHvWLM2IE3G295OAN24mGb1tqsxWNsn5lEBQNvoFE2p6vztcaj79vX3N3T/exiUP4kWWTl3X84Y3O7TN37i81UNRl2WJykBwMqVK2lB/5dErQ3PfAV+/DYoKsYy/oa6pRB5+98S5LN/oBChG+OQ30mJJsTJZyGb//5hAhatxEEzISnWMX/xvQlPzCNXBXVw+NdiWOygux4E/VXsP0NAdf4/gyQvBf28Q0a6NZiPyg9FyiBlXxVHGEYyri0wvFXjspeSHqeUAIBUYW/2FG1FiCeSsOzuaZD8sUFEjCW8iYbN8O091wNPJkXlxxMmf0hUiNP43UnzQbRZ6BI+jtBf8FQzbNzCUZS90ga06cKn44BNWNgwxtlzwkKUAMcioDp/exw6HPKfYDJzLlpTiZTr1BOY9i9DrznHSsXSAgAc0qZh3jpRY+ndAMvv/5uMjlbUlJ/4qdNfft8N0BRZ/VOZQObVNWuCqwT4Hcm6am0dvTjhX6LGr1jD4aL/S0jpaEVtaeWnTn/Ss3H4nu4Fbi3MfvtVKBZQNwBmj5+jOVXnb4/D5/MNGcM4vIjWdEPKOElicAPwx60MAqQFAOgwx89tuBVO6xd8DN89dgf6boMrPc5hxSO3wYYv/iPsFwnAkZL7aFuMJMv3Wd8k4Y8vx22xQiA2D5j6YhzeX4LeSTioDPhdKMYGDR+tKIJk6H5uJ9IgsQkPvnrOP49tT9er92TcpClt7IDzaEiLaoYd4SOGt/q4lp9yv2UGANCjF38SGy9d6QlbGZs9E6jjpatvYWFZCiDdyx+6BdaIL/rTakGjy2Wua/1RbNutvjfK8Pv5+clUx0tX3zLkZSODdF/yfBxekrdQ0erynlwN/2dzMBRPuwhgD6IW+WkXne134AhMhQbsDSztjpRlks7mBsae8fmqB8mWrMkUWFdX18SA3S5LJgUBdXdcDfm4J4Dm/Otu+4vMzp9gKeNJ7T8+X81p9KOYiHwm39HnMiQpiYKAc56I5+WeAJrzP+ufzTI7f+CMX0//ISngKCEKAUSAgVrhD2FIO+EIzL1YOR9z/qi2w9STcfYCwCHuDmtluFPLsH6n1T2lDY9ipWVIUtKGBZ/A4ivOgx+XBaTIS0cI3e2/5MrzpA3776CzG+P8acNX8zCtJrXDvoL7ST6Sr+QzOid9Pu3dxUkYc1czLKRlOVBBLhLd7T/mzmZpw/5bbV4aifR/fGtebRQCwgiozj8zCA2jZjxyTEQSShYy72N46y+SKV96AECPBGLDu1imkU2Relhy9ST44akHgJbhlSl7W1m0yM8PT94PS6+ZLOuGv23Fb5/n/PwfG0rn+SwY1tleUf5+kW/kI07Wn2+lFd+t4TDuvia4bnocaBleq3TRIj/XvBaH8fc3y7rh73+mcnYFgIQVhP4nUeWKGAE8B6th/wyOf8sbFvkDGbDkpyqDaTRNIUu59ACADAtFg2/i9lUkaYnm48NvvAxfTzkdQq+/IHXVQAoqQtOfh68uPh3Cb74CpEua4R0IYsD3xmGdBVsjzw5qOm8X+US+kY+5sJ7m4x+dm4TRNzXBQ9iPNjTJ00pBxYOzSXYzPP5BEkiXPOkpSS+FY4HpqZz6UggIIqA6/8wBZGbjWcjVH0kwWc7enfHkZbK0WBIAkHGuZHIKMFhLeZkU37AWVj79MCya9Bv47u93Q0PtYgDOM1eBPJuD38D3j90JiyafBCuffQQkrPCXuR0AvcDkr/q8NbfKnt+BvHwOcad8QZ9QfS+knKboJg5/nZGAfW5o4z+l7wAAEABJREFUhD+9EocF35nZNg/47woOV74ch1+grBtej4uv8Nc2ElHmMie1vUuVKgQyQ0B1/pnhtbW2xoFP2Zq3/YYxfuHOPYf3lmGoZQFA/dplP4DJzkYjs+idkauTlNy8GaLvvAZLrpoEX553QmoBIRoh2Pjlf6Cp/gdIbN4IPJFIEeWpjPaFXn8Jlt11HXz5+wmw9OrJEHl3hviLfTqxNY3dDA/q5T69/n2vt6Yyjfq2rEK2kw/kCxqI5yL8zlOil/E8+XESxt3bDCOubYLzn44DjRDMXmrCsgiHdT8CxBMtRHkqo32PzE3AeU81w3DkGY/TCk99kpTwYp92QeCcwfmhUF203Rpqh0IgTQTwD6eG/dPEattqhrfmOABWDRI+ORJR3ljafLIMXZYFAGQcDWsyBndR3kpKbFwP6z6Zk7pHIHjTlfDVpWfAl78bDwtOPTJFlKcy2rfy6Qdh3adzIbFpg5UmZSUb/8AHuhj/3DD8h2clII9MZDPZTj7k0Yw2Va9p4DDjy2TqHoFTH2uGA29pgt2uboRdrmghylMZ7Zs2PQGvLzRhLfK0KUxiIa2bEYkEpU6VSTRPiXIQAvi/K4jO3zCG7m7o1XcbXv/Xhu7fjGT5Og3A+GuyDvWQCgbXj/fA7D+WQN1NZSmiPJXRPll6GOdnyJBlaQBABoYi3a/EIYAPKK8oLQQMMOFt/BNchbUtPz6oQzRpKVvRZhRkIKmUHgKzIrHaP6dXVdVSCLSPQCF0/sNgWIlP9z8AZnIhAJuC08e7AYD0p4ZQpiXJ4wb42wkemDW1BM49yAU1hgZdSyBFlKcy2nfjBA9QXQlGjKqoqNJF5eSgg1kQb4430+MVi0SNLSJ+FwD7K/4hXu/ff0hfsOmHbCMbAW0FALQZv1VKB4GvPE3uk7FiEkklhUDWCLACeM5f14eVr9GT76Avf0AgctAnoRaJiTr0Z88tgbNGu8CloRftyKZ9Zx/gAqpLPO1US7eYQdJ1aLqV26untbdDZvn69SvWJzkbizJXIKmUJgLYlMYm4jQlUD0qTZacVTOM6lFkG9mYM6WFoajOBPdRKzculn6DbGHAo7xIFwH87zl+2J86fxckZgLwg9P12271ph3vgQOqNUjXLqp77TgcMkiXoZ16nPF929mVdnFOAgCyJhYL1JuQPBLzy5FUShcBzncGzj4w9Gqpayukq76teilb0CYg29qqoMraQ2CF5nYdEY0uDrVXQZUrBNJBoJA6f5wiPiAdn+1Yh+b1T98v8270zP1bpgmEfOJQI8SPzJlbjkzZpmh0WV2Su0Yjv5oOQBDSThxwNondY+j+F73emu5p80muSLrJBgB2D6RsAvVJH4GF2Pb3X716yXfps6iaCoG2EOBzkuAei4Hk5rb2OqGs9cqfAzi28yecTxnl3jrsT7/SJ5oO+O0o0VlTLvzkQk4DAIInFluyuinejMM9bC79LgDi+LmVAT8bgP0I1n4muhn/zDCGDLdWzc+lk07SjXssXiqT/UhYcs5uQ114fsBv56fZzYnEwdT2ne+K8iCPCNA9I/f1jXrGqM4/j0dhG9UH+XEsZpvfmWQPqhHtflnvTPS1VVfUgrZkdlq2fv2K9eFo+ZGMp14c5OST/GYG7ORIrPaKULT2CdC0UehMoFMABCqgfD+Y/NMK3X+mgJiMWFO6UGdKd0acmVVG+QHCkLCMxAJ/RO7fIjUgOTXhNB27PRytPGrdum/t99ypU1EtLrux/fOvcY78bpY0R4SjwYsXw+Jmp0JQKFf+rfhX9m7pQlt/Z7Id0JtlUr2tusKjwdlb35Y5GZUtiIdigctxHvl4ZFuD5KjEgS/AP+SoUDTwYqvh4fCSr03OfoG/X0CyMPGu2Fk+gcPxjw8YMKCLVYpINukgXXgC6mqVnq1yXyDsCMOtvyEcDb4Ammtf/Jt80VrmmC2DtcDN8ak2DnMSVtmNx0foOWmr7HKKXGxjzOZUHo7WDke6NLS2brFTcG3LzkLr/Nvy0WlleQwAWqAKx2pfT5iwB3aoL7eU2PybAUbf/OpItP++bf0hY7HApnA0eDJ2mBdDqq6l/vwu3tT1Y10fXCVbC8kk2Sj3d0jWpRRG/GLCjLDbUREFBKFo91Gcw7W4L47khPQCh/iwcKxuhhOMVTYqBKxGoFA7//p1JgBkh97KdXhplR1rK9em1ky227wHAGT4mjXBVZFo7UTOtKMBeC2V2ZHwSvQtppl7h6O1N0AnV3VY5z6WhAOBg9U3fe2pgeszn6/6BFmYkSySifL2RLIuITaEEWHVsZIF8UgseD2OBuzNgL/dcd287l3GOD8ujAFgJLI8nFdLlHKFgE0QKNTOn+CdG8y+E/8gkH3wQLqxr1zXss3+2xYBQKv5kcjSt7v35MOxo6V3Hv/QWp7vLdrzBU7mHhmKBseGQnXfpGtPaE1wvrtUG4n130SyMvVknL1s+Px3Aoz0ZK9opIdkkCyU0RPJyvQmYUMYpaukZTSg9mjOzDHIsxDJFglPASs55xeEo92HhmK1b9jCKGWEQsAGCBRy50/wPvdpEpImngHoRwZEPM/Np3s6M2D6WVUmfLFsqwCA/Kurq2vCjvb+vlF3FV49/x6jHGEnSW4WhEeVvUOjEmjPyEik9t0sZMCqVUvX4BXhcejHVcgvesRRRLsJL47hUkPfNKd/n6oB7dZqZwfxEC9ifilWwZgHv61JiAG/ijAhbLJREYnUvYP8e5mQWlxqFsrAY4XfuU9fUcfftVtzdSRW+wjAAqdMUeQeKaWx6BAo9M6fDmggbAK9dIzymdAT85IQDJmZsPy8LgPhG85tFwC0ekl3uoZjwcfD0doahOlAYPAY7luPZG2iYWnObmcuc3g4GhhDoxKoULSD4ejHjXhlTQshWT00vH/CpX3u81UdhXanlagu8WDl/ZGsTGHCgLBAJcKYRqOBt8LR4FE4NTAC5d4OjH2Pci1NaPQ6xuFpDfjBqHsEdfwrVqxotFSpEq4QcBgCxdD5txwSgGkzEvBhLfZSrQWdbKnu9cjTSbVOdzPOPum0UicVbBsAbGM3j0aDH4UjwfO6dGvuh5emxzIGONQNXwJA+qhj5TYTo5v64GPcdzMOLe+PQceuoVjg8kyG+pE3rYRyZye5ay/sRKx+OZLOuDazwue/Dg3r6BhrVIfqYj3hF0ugjHYT+Uy+EwbtVspyR2pqAI9ZOBIYiCM2oznwWwBSfw4ZV+Q4YgGL0P4HOONHRaLdjVAseMbqaK3VxxDURyHgRASKqfOn4xNPAJz2eDP846ME0NA+lbVFCTyTPP5BEk57rBnimG+rTgZlpubhszOo32bVjjqHNhnyWUhXWqFo8M1QJDgVr772cpdoPjwpH4lBwWS0634A9g4A0Nzwt0CPYbV07nE8edPNEssB6HlaeAO3d2MQMQk7vkNd7s29UdZopD9FInUUUWF1lGJRisWWrI5EKw/HoeNbUYWVujTO4VpDr5nZ1lujqIz2UR20w8p2gK7yW8ln8h11WZk4jth8HInWXhmOBvZ3eTb3wij5sJb2we9GxW8CB7qHYzkHoDZBAUJL+8CRH9y/BMtn4vZ+4HAZxw4/njT7YNvYIxINTsZpIJxuUMP8iI9KCoE2EdD1YeUuSMzE/5GjV/hr07k2CluLKAi46tUEHH5HHB6dm4SlIQ4NTZAiyj8yNwFH3NkM17wWl9H5k9pP6+uDMcqIkJUnfhG70uKlOWQ8Kb8bigYfwJP0RWEcssftnkiDw5FgX6RSzJfgyZtO4oPCqedpg8fh9lIMIh4MxZbOqa+vt3r1vjZ8mZOIxGqvAM6PTwUqbdSQV8SP4kntC5+vhpZgTomt6Ov/BZbNx0DoqFSBdV8bsROdmPIVrHsWvj3z6diGYoHZoVT7qL00HA0eG44Fd8ftoK1togTzLe0jFhyI+WFYfgxuL8J6d2HbmrV2bd3G9uSrcoWAQuB/CBjGiG4axGdY1PnPS3LWA/+b0tdtAM7obbX/c0QgR/P6102Pw2G3NUH1nxtTRPlp0xPic/7b2IXn1ae3+Zl11tEBQNZe24QxHKt9HRjbB4esF1hsUn/G+WzD67+UiGswD/UNRLIspXzS2J7Yib5imRIlWCGgELAFAjpe+TOz8S0AdghI/jCAj0xwH93WOiEyVIVjgddRRzBzWXnj2FTWVCZlsTkVAOTtGLYoDocDy3v05Hh1zu5tKbHs2wMM7kwRgMcyLSiYcXi6pHTLgeQb/lRJIaAQKGAErL7yT3B2jMXvPjDxvHiPUw4RXlw9+P2Gr2gKU9hkTViCEiCMQF1dXVM4GpjCOTsNhTUgOTU1kA+hWPCMlStXbnGqE8puhYBCID0EdAdf+W/rIWdlT+LvjNaewfr5SBuZZt4pS7EKAGQhKUFOJBZ41sXZSGi5WVGCxNyJwHk/epHPfuRD7rQqTQoBhUC+ECiAK/+foAuHFzXgNMAFPxXYNsOuCYeXRWSZpwIAWUhKklMfCwRM8OwHjD0nSaT1YtBWDu59wuGlX1mvTGlQCCgE8o1AoVz5b4tjKBp8E3//9HI3zHeQ8rCLwfxwtN8DMjWrAEAmmpJk0XxXOBI4lTP2BxTZhGTX1EQ2kq1ks12NVHYpBBQC8hCgzt+qR/3wKvyjJLjH5ut8wln8YkRqFZLd0nq8KDwZJD9NpQIAux3mbeyJRAIPaZzR87TLtym2S3Y52UY22sUgZYdCQCFgLQKF3PkTcpHI8jBncCzmO3z8F/fnMiUwMDo1HA5I7wdUAJDLw5iFrtWxwGelzaUjAdgMsM2HzSCbyDbbmFSkhog+F12ksCm3s0Cg0Dv/VkgikeBCzsyJ+JsWCsNNXhPGI3Du1ukJ6YaoAEA6pPIF0iMf4WhgPAN2JUpPIOUrYSTKaJW98WRTvoxQehUCCoHcIlAsnX8rqpFI3TugMQoC2ngqq7WW5Vs838LZoWiQnlCwRJkKACyB1RKhPBQN3MK4eQRKX42U67SadJMNqJgjqaQQUAgUAQLF1vm3HlIccn9N4+ZB+Dsf9wSsZwDjrez80S9QAQCh4CAKxermmuDeG00WfhEEykg3zSadpDtdBlVPIaAQcD4Cxdr5tx651bG6zxMmjAIG77eWWb5lMB80tjd2/vRUgqXqVABgKbzWCHe5mpMoOYGUk4SX+y7OaSoqJ+qUEoWAQsAGCBgWr+2fgxX+pKC4Zk1wVTgSPBy4eTyeC1dKEdq2kAaG07zhSOVoHH2QfsNfWypVANAWKjYuq/BWHcyTGr3x8MhcmckADnKx5ALSnSudSo9CQCGQPwToyt+pa/tbhVo4VjejOd48HIDdCADSFuNBWZvwAutW0JKDWqZYc/fiNBUAIPoOSaxCr7mCM+1dtLcfUq5TP9JNNqBijAnwWyWFgEKg4BCgzr9Qn/MXPVjr169YH44Grure09yZM3Y6ngg/QpnZjMbiYAJ8zBm/sLS5dJdIrPYKmSv8oU1pJRUApAVTfivt3HN4b9BMHC8AABAASURBVEOveY0DvxktcSPlK7nJBrKFbMqXEUqvQkAhYA0CqvPvGNfWvfT+lkgk8EwoGjwwyVkfE9hY3HcT0izs2QNI9LKeBDBoxrI1+JvKZjIGdzJgv3F5wBeOBkdHIrUP5/OJKhUA4NGxc+rnrdq7qaTpMwA+zj528nFNpc1fGkbVvvaxSVmiEMgcAUP3c0X/w0CDxCbsrA7IHMlOOeY5Zc6/U092qBCLBTZFo4G3sEP/M9JRkWhwCFIfzHvCkWApbr34m8qOCUWCU0PRwEv19cHYDmLy8lMFAHmBPT2lPp//DJNpNMQ0KD2OHNbifGcwtTmGXjMlh1qVKoWAQsB5CMzDq+Sx1FE6z/RtLS68vAoAbHhMBwwY0MXQq//OONACEF1saGKrSaU4MnG34at5loYOWwvVViGgEFAIbEVAdf5bgbDjRgUANjsqld6amnhTl/kA7BxwyofzUxgkPjOMIcOdYrKyUyGgELAcgYLq/C1HKw8KVACQB9DbU+nz1pyaZBzn+9nu7dWxazkDqAHT/A9OCTgncLErmMouhYDzEVCdvwOOoQoAbHCQqqqqSrHjvIcx/gyaU47k1ITTFfzvFV7/UzSN4VQnlN0KAYWAEAIF2PkL4WFbZhUA5PnQGEbNrhs3sHkA/GKLTUlwDv+PCPUkkCxLnMHpzU1dPiTfLFOiBCsEFAK2QwBHAj8ywX20uuHPdoemTYNUANAmLLkpNLzVxwHnnzFgIy3WuMoEODQSC95BxEzYHzh8Z6XOlE8m/9Lnq/61lXqUbIWAQsA2CBTso362QViyIY4OACoqqnSfr+ooQ6++yKf7HzC8/lmG7l+EtAx/rzV8/ibMN6fyXv8KzC/G/JuGXnNPhe6fbPStOcwwRnSTjGka4g5x+7zVtwBj07Ej7pMGQ/ZVOLwLWnLvaDRIjxOm5ITWBP8LruQvUTetKpgqs+irB+PspZSvcEjOFzCiY0vHOHWsdf+9uJ1p6P7FBrYFbAdrMd+MFN+a/x7zSyr06rfw9wM+r3+qrtcc3avXwF5g4w/aLPQcu41dU6Y5CAEGoK78HXS8Wk3VWjNO2NK8suGtGmfo1XfhiW8hT2phxrW3Adi92AD/AAzoVbnDAWAQ/u4NHEow70nlGeyC+aGYH0vD7RzgPtD4e2A2rkNZn/i8Nbf6fDWjsQ5WwW+Lktc7tJ9Pr3+PMfZHVGGlLpMxuD4cCx7d1hKTVEb7qA7agQME+G1NYvj5I/lMvluj4iepmq77D6BjiZ38p3hs19MxTh1rgItwezTWHIrtZBcEvjfmPUjurfmdMD+EAxuDv//AGNyuAZ9Z6ilZg4HkN4av5mEMIMYOg2HUprCqSgoBhQAhgP+Xj5LgHhuNLt5MvwuPCtcjJwQArJ9efZCh+x+PN3UNAdOmA7BLAGAEEkMSTdQJ7MsYv5xx/hHq+a7C57/DikfaKrw1h7pY8gs0+iBRozvhj3Gm0apT12I9enMgbtpMyVAkeC3Vxb2WrkxFPpPvhAHqkpowcBuROma6fwU26A/pWGInPwqVyBh1wDgAhgHn53OAN9foiYjhq35mqx/oFmpRSSFQpAjgH0B1/g4+9ni+tKf1dGe8z1t9PnbItSawuWjl75B6IFmdduIcLgPTXGTglEKF7j8GFWI7x+/sE8NRi79wxmehCAPJwsQ+cSWTe0ciS3FkJD01VJd4ANgnYO3HIAwIC1QjiqlmeKuPw2P0LgZuC1PHDICu4lG0pakncHYq+vE+ts1vsH1Mrqys7GqpRiVcIWBDBPAPXBSdvw2hl2aS7QKAlmF+/6WbNmjLGGMPo6eDkfKTGByBV31v4Il+oc83ZEw2RvTvP6Qv8r8OwG4AABeSVQlN5XeHo+UH169d9kOmSoiHeAH43cjLkaxKiAG7gTAhbLJRgp3uWOz4FwFjM4DB4dnIkMQzFIG6Lxkvr0ObJqvpAUmoKjG2R4DhnH9SDfvb/jh1ZqCtAoAKb/WxOMz/DZ7U70TD+yPZJQ1n3HzL0GvezmRqoKKv/5eJJnMBOkGjCLixLG3EK9KJ4WjtpQAL4tlrWRAnGSQLZWxEsjIdQ9gQRukq8flqRmDHT2/behPbyG7p8uWgXj8OcB9ODwQMo2Z8DvQpFQqBPCLA5ySLpvPPI8w5UG2LAKCyz+Cd8MT+KmcMr5Rh1xz4naUKfhRODSzwef3XAoykewfalYPD3BdxF3wIDOjmw3brSdix0ATXPpFI7SsSZKVEkCySiT8WIlmXEBvCiLDqWMlID87xT2Ocf4Z40o2eHVfP396BYPJ/42jAK15vTWX+zFCaFQKWIED3E93XN+oZo274swTfnAvNewBAV0wJl2shnth/lXPvs1PoYQyuq9A3/ccwhv5syV488Xc3dP/zAOxeaHkKAaz78H94Sn/cLxpdUitbB8kk2QD8H7JlbycvhRG7lzAj7Lbbhz9SV/36pv/iHP81+LPDoAv32yJxgBNcjH/j8/kn2MIgZYRCIHsEGvAc8DXS3SxpjghHgxcvhsX0jvvsJTqIs9BNzWMAcIjbp1ffjFdMr+J8Ej2S5Sis8SS/F5jJ/+JJ/oxWwyv7+oe4gNONdCe1llm0beScnx+O1v5u5cqVWyzSASSbdHAGZ6IOPBHgt3XpJDfjn/lwmL9VhaH7T2IcCM89WssctO2Ftv/L8PkfUfcG2PeohaNBpqhDDMrD0drhSJeG1tYttu+RVJZlg0BeAoCdew7vXaHXz2bArkCjGZJTUxme5J/weWturdCrz0pqbAGOZFg6N41gBTljoyKx2kdzBVokEnwKde5Puq3UiUGVH/H8hLAkTFEXjqRwZ99hz+G8mJ6Y1cvmCwqB+igEFAI7IFD4P3MeANBiME0lTbPxZH9AgcDL6LlzDuyfOExmbWfF4bXGePOoSCSwKNfYkc4EZ/ug3heQLEy8K2FJmFqoJKeiMXA6qLSkZB7d65JTxUqZQkAhoBDoAIGcBgC6PrjKxZIfoz1OHNJFs/OUGOCcG7skHAv+av36FevzZAXQCz7C0eDJAOwSHOlAm0B90kWAw7Ck2/2Rz1c9KF0WVU8hoBDIHwLFoDlnAYDXW1OpgYsWwhlYDMDK8pEDrOSgHRqOBu6RJVNUDtmimYyWTV4uKquo+DnfmYE2u7L3oJ1BfRQCCgGFQJ4RyEkAQHP+LsbfQl9V548gpJsYwFtuD+wViSylUZN02XJSb3Us8JnLA78kG3OisFCUYBCQ9LhnZrsIUqHAoPxQCNgbgeKwzvIAgO6Abi5pmo5w0kt6cKNSGggkOWfXhKLBY+vrg5au0Z+GLe1WIdvIRrIVK9EzwrhRqVMEcDogETdfBMj9GxI7tU1VUAgoBIoGAc1qT9fo8VtxGLtQbvizGi6SH+PMPCYSC/wVf5hIdk8m2cq4Rgv0hOxurG3s43BYha/+FtvYowxRCCgEfkKgWDKWBgC0yA8Auxgs/nh69oE+ow+Dnc6cDNV/vhV2v/tp2OvvM2Dks7NSRHkqo307nTkJ+ux/KLh72G/pAQyUPkxytkckUveOxZBJFx+KLZ2Dto8kH6QLFxSod2cwfi8XXD/eA8+dVwIfXlkKS/5aBt/d0kKUpzLaNw3rHL+nC7zlOLkhqLczds7hsgq95sTO6nW0Pyz4HHtHstU+hYBCoHME+vSp6lGh+4/x6dU3G17/u4bur/Xp/rW4TRo+fxPlcX+gQq9+y9Cr78LykwxjsK9zydbXsCwAoEeeuMn/iS5YciZ1lXcH35gJMPTGh2CPR1+BQRdfDcYxv4aee/wCyvoNAFd5OTC3O0WUpzLaZxxzIgyacg3siTxDb3wQ9DG/wrrd0cy8Js44uz0SrTwsFgvU59USAeVkO/lAvqAYjAXwO0+pV1eAsw9wwRtTSmDhdaXw0GkeOPcgFxxSo8FgnUFP3O9xAxBRnspo3++xzsOne1I8ryPvWaNdQLKscoMDf8jn29XiN0RaZb2SqxAoRAQ692ngwIFl2KmfiZ35PI9LW4snuzcYrWvD4HDkrmIAdIWpAYcSyuN+Pwc2BugJKoDnwXSFDK//U5QxaUCPYX0gTx/NKr1JzXUvOS5bfknvvrDTGZNgjwdfhJ3PuRi6VQ3JTgVjyDsUdjlnCox44AUYcPofwNM7L8dhPWhsQigWuBxgTiI7Z+zENSeR8gV9Qqty/shiRU8G1x3vgc+uLoMbJ3hgr52za+LYPGBv5P3bCR7471VlcO3xbjB6YItGpyQnr8Y9D0qWqcQpBBQCFiBAnbVPr755S0PJDxzgCQDYH8mFlGliwGAUyrg/Xpr4rsLnv4PWyMlUiGj97M6OnWilt/qhc7/qpFpGu5nbBca4k2H3e54B49gTQSsty4i/o8qusi5QcdxE2P3uZ6Bi3G9w1CCb49mRhrb3cWCf46X/yHA48FrbNZxbSj6Rb+RjLrzw4CG78BA3fITD++cd7IKuJfK0disFOP/gFtkXoA7SJU86AAc4wedT7w2QiamSpRDIFoF2+Bj+R8/AznoJ9ty0gq23nXrZFJdznA50sWTQ5/VP7exFc9koaI9HegAwYMCALpyx+9pTmE15Wb/+MPSGh2Cn086X2vHvaAsFAgNOuxCG/vVBKDUqd9wt9zdjj3Tt1jQ6Eqn9Vq5g+0gj38hHQF+ttGoQDunTcP3V49xSO/4dbe6GgcA1qGPGxaUwsC/bcbfQb43Dzbn84wsZq5gVAkWEQN++/v6G7n+PcXgS3bZy7r4cRx5v9+kbP/H5qgajLsuT9AAg3tj1ArRa2it9e+0zGobe9Ah03bUaxeYmdR3kh2E3Pwq9RtLojnSdDRggnR6OBC5YsWJFo3TpNhNIPpKv5DOaJv2FQmN202DmJSUwvL/0pozmtp1GDGDw1qUlcORuOOzQdpWMS3EUwF+hbzovY0bFoBBQCEhEYHtR/bxDRro1mI+lhyLlJDFgIxnXFhjeqnFWK5R61qyqqioFBjiEIcds7+HHwuCp08DVpZscgRlIcXXthrqvB++hYzPg6rRqI3OZtJb/M53WLLAKkUjgGfId3ZIW9JyyrwseP8sD3csYis1t6tGFwd/P9MDJv3RJU4xBwNV0c5E0gUqQQkAhkDUCOOQ/wWTmXBRQiZTr1BOY9i9DrznHSsVSA4CN69lZaGx/JOFEnf/A309FDOSdYDM1irlcMPD8y2UGAWXJpEZ3h2ZqSkHU3+q7lJs3qPO/7UQPuDSWN2zc2DTv+I3UIMDYsrnktLw5pBQrBIocgVb3fb4hY3DI/0X8nfurT1S6NbkB+ONWBgEyAwCGn8u3Gi606YXD/ruceykAy9/JHVo/aMMuGIj0HLlfa4nQFgG/SEiAg5nR94tlmE/D/rf82m2X5gG3YiByxDCMBmQ4B3AJANig4YP6KASKEgFdr96TcfMldN6NlO+E5wL+iOGtPs4KQ/CcLEdsP736QJQkfOMC3fC36+Q/AdOknVDRLLFEIwGDJv8FSn1SRoIm9O9TNUDMIucFivKJAAAQAElEQVRxV/YZvBNaPQFJKNENf/ee4snrlf+ODtBIwP2nuGEXGTcGMtjNMPyH7ahD/VYIKASsRgBA14dVaMDeQE15XxwGbWhNbmDsGZ+velBrgaytJkuQCewMUVn0qN+gKddCPub8O7M9dU/AJdcABQOd1e1kvyfhctGNkp1UK6zdSZfrQvTIjZR1osfvHjrdk5c5/86MpnsCHj69BNyuzmqmsd/kp6RRS1VRCCgEJCOgQeJeFCnlSg/lyEw9GWcvABzililUkyGMHv1DORORhJJv7MSc3u2fqbFdB9eA72jhi1hUy+nGDinYozAnJOoWyWchW8890J3Tu/0zNXaPnRiccwC5minn9vU5sAn0Eq3tS9UvhYBCwEoEDKNmPMoX7sdQhlVpH8NbL3UKWUonFG8soxfB9BDxuqR3X+g/8UwRETnhrZx4Nnh69RHV1U/X/aNFhTiFv8JbRS+DMkTspRX+po6RGvyKmNMu7/8b4wGf4OAhTvr1XuONH9WuErVDIaAQkIqAYYzoBiZ/QKpQK4QxmEbTFLJESwkAcH5CeM6SVvmTubqfLIB2lOPq0hVo1cAdyzP9rTGQMZSQqdq81OeMCft6wcFuSxf5kQVMeSnA+TJG6RhQUC3LLCVHIaAQ6AABZjZKe4KtAzUydnVnPHmZDEEkQ04AAEwoAHCVdwf9CEtuciQfpZP3yPHgKi8Xk8vhcDEBTuIWax+9ugKctp/40HquEDtjP3fqZUNi+tghYvyKWyGgEEgTAY0Dn5Jm3bxXY4xfuHPP4VIeJxcOACoqqnREZDhS1qnv6CPACVf/rQ7SksF99xOKeUjU7v37D+lLmUKmrT7uLuLjhL1djrj6b/WxWynAr/Z0tf7Mdjt8K3bZ8is+hYBCIA0EDG/NcQCsGpzzKW8sbT5ZhrnCAYBpwl5oCEPKOvU92HnTnX0PHpO1v1sZtUSzGTN0Py9kIh/RX6H2MXGkcGeKJuQ2nbiPsM2OaB+5RVW+tkL+7ynf0ju3AuPSXsY2pILB9eM9MPuPJVB3U1mKKE9ltE9WC2acCz91R7YIBwCMsxoSlC15evaBboOERGSrWoivW9VQcPfoJSRDMXeOgN6dwR47CTfTzhVJrkGvEu7bTSjukWyREqcQUAi0jYB4qccN8LcTPDBragmce5ALagwtNWrZtQRSeSqjfTdO8ADVFdcIo7aOvguJEj6zchALALrvvicAc+CJEm3uvhvaDupjJQL7V2lObR6wf7VmJTRKtkJAIWADBKhDf/bcEjhrtKvDBcpcGoOzD3AB1SUeQdMZJF2HCsoATVQA4yB0+d6tapioCXnjL6/eLW+6i0XxyJ2Fm2jeoHKy7XkDTSlWCOQYAVF10473wAEZBPtU99pxOGQgqJgzvq+gCPEAAOdPKkSMKKvcSYQ9r7xOtj2vwGWgfLDPgaNDW/2rcrDtW11QG4WAQqADBGhe//T9Mr9IOXP/lmmCDkR3vkvw4psUZG45cW1HTOh5uLJ+zl0Wv7TCubZvdwht/GNX3bkBwECvc223cZNQpikEJCIgJuqUUe4Oh/3bk07TAb8dJXqjMBd+ckFCAABC6565ugnFD+3hm5Nyt+haADmx0tlKenZxbidK6xc4G31lvUJAIdARAgf5sz8/HVQj2v0y4bUARC0AYIIBQFlXcOrH1cW5tjsF8/ISp1j6czvLy7I/OfxcmipRCCgEZCMgKq9/7+y70AG9hc8PQhff5Hv21hO3IoWAQkAhoBBQCBQpAlzAb85FuAUUb8MqHgBw2LSNvIyzycYfM+axC0Nyi3NttwuGndmxubmzGvbdv7kx/39w+6KjLFMI5BsBcf3168yshaxanzVrK6NQ30tCxAMAEAsAEpuFfSA/8kKJzZvzoreYlK7/0bmd6HoVHxZTU1W+FiECc4PZn58+CGQfPLRAzde1bLP/lhAAcKFesCm0Knvr88zZFFqZZwsKX/2KWPZ/sHyj42Tb842d0q8QsBoBGfKf+zQJSTPzcxTxPDc/KWgCqxUUIGEdAM5CIkY01v8gwp5XXifbnlfgMlC+LJL5nysD8ZZWrXOw7ZYCo4QrBAoEgUDYhCc/zrwjf2JeEoIhwREABgFRGIVHALigEQ2134j6kDf+zcGv86a7WBR/9p3gnySPQH32XeYnhjyaq1QrBIoIAXmuTpuRgA9r0z9PUd3rkUfUAsbZJ6IyhAMABlwoCtn49ZcA3HlXeZybsOkbtF30CCj+DhH4uM50YvMAGhX8uM557brDg6F2KgQUAj9DIJ4AOO3xZvjHR4kOpwMSeD3w+AdJOO2xZohj/meCMiswNQ+fnRnLz2sLBwCciQUAiY3roGHZ0p9bZvOShtolkNi0weZWOt+82GYOX/yQfnRtF48XfMdhbYMKAOxyPJQdCoFtEZCdpyDgqlcTcPgdcXh0bhKWhjg0NEGKKP/I3AQccWczXPNaXEbnT+Z/Wl8fjFFGhIQDALdb+xwNEDrTxT54B0U4K62d+7aowaa7RPOGo0FWyEQ+IlBCPfjLn4mHy2hDTtMrn+FlgZhGR7QPMRfzz13I/z3lW3rnVuBsvKyWSPP6102Pw2G3NUH1nxtTRPlp0xPic/7bGIkX3k9v8zPrrHAAsDUKWZS1Bci4dt57YDY1Ys4ZiZ7/X/Op8OjL16tWLV3jDI+zt3Krj99kLwHg318k4UcHrQewGSP/1xYKBy1fbcVOBDrFqxBQCPwMge0LwrHA6wwguH2prX9tKmsqe0GGhcIBQMoIBu+ntll+JTdvgsisGVly554tOms6JEXXAGDwXu4tz5dGLtQ+6Hn6pz8RvqLOmfNPfZyEDcJrAPA5OTNYKVIIFDcCJjC4xykQcM4f+n7DV8JrAJC/cgIAU+wET4aEX38eko1bKGtrSm5pgNCMF4VtNDm8KizEIQIY58K+PjwnmZpPs7vLmxo5PDxHPFhhHGbZ3Vdln0LAiQi0ZTNnZU9iuROeSd/IXOYdaKuUJCUA8JRtoatZoTvi4uvWwuqXn5DilJVC6l/8J9CNi4I6VkejwXmCMhzDHorVfYTGhpGyTuGNHO54R7xjzdqANBlvezsBdONimtXbrsZgbZ+YRwUAbaOjShUC0hEIhxc1ADcnSRcsXSC7JhxeFpElVkoAsHLlSrp0f0nUqPDMV+DHb+07FdNQtxQib/9b1E3kZ//ALxOpWBJNiJPPQv7+/cMELFrJhWRYyfzF9ybQAh/COjj8azEsdtBdD8IeKwEKgRwh0L6acKxuBu4VH95FIZYkBvPD0X4PyJQtJQAgg7A3e4q2IsQTSVh29zRI/tggIsYS3kTDZvj2nuuBJ5Oi8uMJkz8kKsRp/O6k+SDaLHQJT8/OXvBUM2zcwlGUvdIGtOnCp+OATVjYMMbZc8JClACFgEIgYwQ4i1+MTHZcn349MHYygIT5RXSwNUkLAHBIm4Z561oFZ7ttCtfD8vv/JqOjzdaEn/FRp7/8vhugKbL6Z/uyKHh1zZqgHRtYFq6kz7JqbR29OOFf6XO0XXPFGg4X/V9CSkfbtobMS6nTn/RsHL5fKyUw+SoUC6gbADM/DIpDIdApAp1ViESWhzmDY7HeRiS7pAQDODUcDiyXbZC0AAAN4/i5DbfCaf2Cj+G7x+6wxwqBnMOKR26DDV/8R9gvEoAjJffRthhJlu+zvknCH1+OAx6avMNINkx9MQ7vL0HvJFjDgN+FYqREEihHJYWAQiBDBCKR4ELOzInIFkfKd8J4BM4NRYNvWmGIzAAAevTiT+KZi670hG2NzZ6Z6njp6ltYWJYCSPfyh26BNeKL/rRa0OhymVIe32gV6KTtVt8bZdj8/PwkUMdLV98y5GUjg3Rf8nwcXpK3UNHq8p5cDf9nczAUj0KgUwTSrxCJ1L0DGqMgIJ/z0XTlfzZ2/vSEQvrGZ1BTagBQV1fXxIDdnoH+DqtSEFB3x9WQj3sCaM6/7ra/yOz8ydcyntT+4/PVnEY/ionIZ/IdfS5DkpIoCDjniXhe7gmgOf+z/tkss/MHzvj19B+SAo4SohBQCAghgEPur2ncPAiF5GPKdj0DGG9l549+gdQAgAR6Shsexe0yJClpw4JPYPEV58GPywJS5KUjhO72X3LledKG/XfQ2Y1x/rThq3l44MCB0jrDHXTY5if5SL6Sz2hUNySp6d3FSRhzVzMs/IFLlduRMLrbf8ydzdKG/bfqWhqJ9H98a15tFAIKAckIZCNudazu84QJo0BwsbuMdDOYDxrbGzt/S4b9t7VFegBAjwRi5EJ3Um6rRyjfFKmHJVdPgh+eegBoGV4hYR0w0yI/Pzx5Pyy9ZrKsG/7a18b5+T82lM7z+aoHtV/J2XvIN/IRJ+vPt9KT79ZwGHdfE9Aa3LQMr1W6aJEfepnH+PubZd3w9z9TObtC9h2+/xOucgoBhUC2CNBN2+FI8HDOGY3cCq1n0okNGwHYJeFI5WgcfZB+wx+08ZEeAJCOrZHLq5SXRTQfH37jZfh6yukQev0FqasGUlARmv48fHXx6RB+8xUgXbLs7kgOA74342yBYdRIexlFR/pyuY98It/Ix1zopfl4egvX6Jua4KE5CamrBlJQ8eDsJIy+qRnodZ6kS7JPL4VjgemSZSpxCgGFwE8IiGciscCzTfHmIQDsRgCQthgPytrEOb8VtGR1OBq4J5cXApYEAOgQuJLJKThsspbyMim+YS2sfPphWDTpN/Dd3++GhtrF2T0twDlsDn4D3z92JyyafBKsfPYRGSv8ZeNqLzD5qz5vza0Ah7izEWAvnkPcKV/QJ7SrF1JOU3QTh7/OSMA+NzTCn16Jw4LvTByAyNwEbB7w3xUcrnw5Dr9AWTe8Hhdf4a9tM6LM5YQVyNo2XpUqBIoJgfXrV6zHTvqq7j3NnTljp+No90fofzbrm9Cc5cec8QtLm0t3icRqrwhLXOEPbUoraWnVyqJS/dplP4DJzkZWchQ3chO9jCf6zmuw5KpJ8OV5J6QWEKIRgo1f/gea6n+AxOaNwBOJFFGeymhf6PWXYNld18GXv58AS6+eDJF3Z4i/2EfcNcYYv9yn17/v9dZUiovLjwSynXwgX9AC/G/gd54SvYznyY+TMO7eZhhxbROc/3Q89Z7u2UtNWBbhsO5HAHqHNxHlqYz20Xu7z3uqGYYjz3icVnjqk6SEF/u0CwLnDM4Pheqi7dZQOxQCCgFhBGQLoJt1I5HAM6Fo8MAkZ31MYGNRx01Is7DDCyDR014JvAimFT1xkhKobCZjcCcD9huXB3zhaHB0JFL7sKwX+6DujJNlAQBZQsOa6PBdlLeSEhvXw7pP5qTuEQjedCV8dekZ8OXvxsOCU49MEeWpjPatfPpBWPfpXEhs2mClSVnJZgAHuhj/0uerOiorAXlkqvBWHYy2f0Y+5NGMNlWvaeAw48tk6h6BUx9rhgNvaYLdrm6EXa5oIcpTGe2bNj0Bry80YS3ytClMbuEtkUhQaKrM0P1chOS63w9uMQAAEABJREFUo6QpBIoPgVgssCkaDbyFHfqfkY6KRINDkPpg3hOOBEtx68XfVHZMKBKcGooGXqqvD8bsgJSlAQA5GIp0vxKjoQ8orygtBHTGtTcNvfoqrG358UEdokkjWznT3kNB/ZBUSg+BWeFokI5xerVVLYWAQiBLBBRbewjkoINZEG+ON9NNbovaM0KV/wwBFwD7q0/3v96//5C+YNMP2UY2AtoKAGgzfquUDgJfeZrcJ2NF4RdLoAyVFAIKAYVAVgjkIAAAoBsncJ6E5khy8mhDVkjYkIkBjI03mzglMGR/u5nXz1uzT6LZ/C/ZaDfbbG7PsiR3jVm5cbH0G2Rt7rcyTyGQFwSU0vYRyEkAQOpxnqTehCTNbasggABJk7CDHcDAnG3o1VLXVkhTfZvVyBZT4/Nw565IKqWPwArN7To8FluyOn0WVVMhoBBQCFiDQM4CADI/Gl1WZ4Kbrma/pN+K0kSAQwkAu8fw+l/t1Wtgzh+tg60fr7emu6H7nwe0BVI2gfqkjQD/2p00D1y9esl3abOoigoBhYAgAoq9IwRyGgCQIdHo4lBTvPlQADYXCuPD8XMrA342APsRrPww+FWZp+Q/hjFkuJVq2pJNOt2Mf4b7TkKyMLEfCUvO2W2ohCMVQprdnEgesGpt3cpCcEb5oBBQCBQGAjkPAAi29etpMYV+RzAG0/C3ieTUtJkBOykSq70iFK19wmXykXhl/I2VzmCP6AfTnI+jAb+3Us+2sn0+/+mo85OU7m13SM4zgCBnsB9hGYkF/ojif4vUgOTUhJCxe/tG3UevW/et/Z47dSqqym6FQJoIqGodI5CXAKDFpDmJUCR4HXBOTwisaSlzzjcHvoAlzVGhaOClVqvr1wSXJoHth79fQLIylQGDR3E4/vEBAwZ0sUoRySYdjMNTqEP6i3xQ5rbphQRn+0QigZ+eFglHgy+A5toXA4Mvtq3oiDyDtcDN8eFoYMpiWEyLgTjC7GIzEtu30DoKRcC/GS82vjb06rsrKqp2K7b2Uej+5jEAaIE2HKt9PWHCHtihvtxSYvNvBngy51dHov33Da2tW7yjtbFYYBN2XCcD8Iuxk8a6O9aQ+vt38aauH+v64CqpUlEYySTZmP0dknWpBc+LCTPCbkdF4fCSr0PR7qM4h2txXxzJCekFDvFh4VjdDCcYq2xUCHSAQDc8j2HHz6bwpLbQ0P33DYNhJR3Ut9EuZUpnCOQ9ACAD6W1LkWjtRM60owF4LZXZkfBK9C2mmXuHo7U3dPbCBqxzH0vCgcDB6pu+9tTA9ZnPV32CLMxIFslEeXsiWZcQG8KIsOpYyYJ4JBa8HkcD9mbA3+64bl73LmOcHxeOBk+ORJaH82qJUq4QkI+AC0VOXqMn39H1YeWYV8nhCNgiAGjFMBJZ+nb3nnw4drQXYdkPSLZIaM8XnPEjQ9Hg2FCoLu05/tCa4Hx3qTYSnXgTycrUk3H2suHz3wkw0pO9opEekkGyUEZPJCvTm4QNYZSukpbRgNqjOTPHIM9CJFskDrCSc35BONp9aChW+4YtjFJGKAQsQ4Af7ILETLsHAZa5X0CCbRUAEK51dXVN2NHe3zfqrsKr59/ncUQAz+vsHRqVQHtGRiK175J9mdKqVUvX4BXhcejHVcibRLIq4cUxXGrom+b071M1IFMlxEO8iPmlyIsxD35bkxADfhVhQthkoyISqXsH+fcyW17AMQtl4LHC79ynr6jj79qtuToSq30EYIFTpihyj5TSWFAI4B/uABUEOP+Q2i4AaIWUbpwKx4KPh6O1NSbgUDqDx3DfeiRrEw1Lc3Y7c5nDw9HAGBqVQIXY3vE7+8TRjxvxyvpIFGH10PD+CZf2uS+DFwpRXeJB22iNBtxYlsKEAWGBGoQxjba8gOMonBoYgXJvB8a+R7mWJjR6HePwtAb84HA0OII6/hUrVjRaqlQJVwjYEAH8L9g4CLAhYDY0ybYBwDZY8Wg0+FE4EjyvS7fmfnhpeixjgEPdQIsJYWwAYh9GN/XBxyjkZhxa3h+Djl1DscDlmQz1I29aCeXOTnLXXvjHsfrlSPRCoZkVPv91aFhHx1ijOoxrM7GejmRZIp/Jd8JAtpLU1AAes3AkMBBHbEZz4LcAsE8AQMYVOY5YwCK0/wHO+FGRaHcjFAuesTpaa/UxRPNVUgjYGwH8X6ggwN6HqEPrOuocOmTMx0660gpFg2+GIsGpePW1l7tE8+FJ+UgMCiajPfcDsHcAgOaGvwV6DKulc49jI6V3My/HYfivcT/O0fK7MYiYhB3foS735t4oazTSnyKROuo0ONaxLMViS1ZHopWH49DxrajESl0a3Tlv6DUzKyqqfta5Uxntozpoh5XtAF3lt5LP5DvqsjJxHLH5OBKtvTIcDezv8mzuxTg7rKV98LtR8ZvAge7hWM4BqE1QgNDSPnDkB/cvwXIKhu4HDpdx7PDjSZNe67lHJBqcjNNAON2ghvkRJ5UUAj8hgP8Z2wUBPxmnMh0iYOWJv0PFMnbSHDKelN8NRYMPYAd+URiH7HG7J9LgcCTYF6kU8yV48qaT+KBwtBaH9YPH4fZSDCIeDMWWzqmvr7d29b42HZ2TiMRqrwDOj08FKm3WkVXIj+JJ7Qufr2Z0q8SKvv5fYNl8DIiOai2zaLsRO9GJKV9hTsIiHe2KpWMbigVmh1Lto/bScDR4bDgW3B23g7a2iRLMt7SPWHAg5odh+TG4vQjr3YVta9batXUb21Vggx1oKxMhG7igTCgABCgI0CDxNi0XXgDuFI0Ljg4AnH6UwrHa14GxfXDIeoHFvvRnnM82vP5LibgG9CKfgVbqTPmksT2xE33FSj1KtkJAIWAbBPZ3M/6mnvdHBG2Dh+0NUQFAng9ROBxY3qMnx6tzdq/FpniAwZ0pAvBYqYtxeLqkdMuB5JuVepRshYBCwF4IqJEAex2PzqzROqug9luPAD36GI4GpnDOTkNtm5GcmrYAsN/RTXIrV67EPKiPQkAhUHwI7O9i/K18TQcUH9zZe6wCgOyxk84ZiQWedXG2D87N082K0uVbKRAj/wBo2igMZP5hpR4lWyGgEHAEAioIcMBhUgGAzQ5SfSwQ8JRu+SUGAc7pSBl7joN7n3B46Vc2g1OZoxBQCOQPgTwEAflz1omaVQBgw6NGw+fhaO3vOIMz0Tw7D6U3AbBLwpHAqdHoYidPXYD6KAQUApYgoIIAS2CVI1QFAHJwtERKJBJ8SuPmASj8WyR7JVp1TzMPwSH/e+xlmLJGIaAQsBkCOQsCbOa37c1RAYDND9HqWN3npc2l+wCwGWCbD5tR2lSyZzhc96ltTFKGKASyQCAcDQqto1Bo/Ca4uzOAj7KAsjOWgn1EsE+fqh4Vuv8Yn159s+H1v2vo/lqf7l+L26Th8zdRHvcHKvTqtwy9+i4sP8kwBvs6AywX+1UAkAuUBXV8v+GrdXilPZ4BuxJFJZDylRJkA9lCNuXLCKVXIaAQsAYBmspLgnsssyAI4AAWrxhoDSZtSR04cGAZdupnYmc+z+PS1qJvbzBgVwCDw7F+FQPojVsNOJRQHvf7ObAxgFOmAPA8mK4QBgufooxJA3oM64NleUkqAMgL7Fkp5aFo4BbGzSOQezVSrtNq0k02oGKOpJJCQCFQgAioIKD9g0qdtQ+v9Lc0lPyAJ8EnsCa9QM2F20wTAwajUMb98dLEdxU+/x1e79B+mQoRra8CAFEEc8wfitXNZS5zD1Q7CyknCRvpB0nuGkm6c6JQKVEIKATyigAFAVwrOxqAz5FtCMeRACuWDZZt547yKvSaidhZL8Ge+wrc50WSlco5h8tczKzDQOC6YTCsRJbgzuSoAKAzhGy4P5ksoYjTnSvTGECSMYb/21xpVHoUAgqBfCMQDi9qMMEzDv//RX1PQN++/v6G7n+fA38Rj4mFc/e8KwYC18b0+Mc+X9Vg1GV5UgGA5RDLVVDhrToYo+fPUeqhSLlKh5JO0p0rhUqPQkAhkH8EaCQg6Yh7AqzBqp93yEi3BvNRes7OtwzYSMa1BYa3ahzqtTSpAMBSeKUKZzgEdQVn2rsoNedzRaSTdJMNmGdIKikEFAJFgECxBgE+n3+Cycy5eIgrkXKdegLT/mXoNedYqVgFAFaiK0n2zj2H98aG8BoOQd2MInM29I+6dkxusoFsIZt23Kl+KwQUAoWJgN2DANmo+3xDxuCkJw35d5MtOwN5eK7nj+P51rIgQAUAGRyNfFTt563Zp6mkaQEAt3w4KH3/+DiyiWxLn0fVtAIBQ/dzEbLCJiWzMBEoliBA16v3ZNx8CY8idsD4nd+Eo638EcNbfZwVZqgAwApUJcn0+WouNBmnG3B2lSRSpphdyTayUaZQJUshoBCwLwL2DALk4aXrwyo0YG+gxO5IdkluYOwZn696kGyDNNkClTxxBLARlhu+mmcZ5w+itFIku6ZSspFsJZvtaqSySyGgEJCHQCEHARok7kWk8jHnj2o7TD0ZZy8AHOLusFaGO7UM66vqFiNQ6a2p0SD+CXB+isWq5IlHWxkkPjOMIcPlCVWSFAIKAbsiQEGAXdYJkIVRhbf6WJQ1EcmuaR/DW3+RTONUACATTUFZPm/NqUnGcb6f7S4oKufsOFFVA6b5CfmQc+VKoUJAIZBzBAppnQDDGNGNM/ZIzkHMVCGDaTjaWpEpW3v1VQDQHjI5LK+qqio19Jp7GOPPoNp83nWK6oVSN/Khwut/asCAAV2EJClmhYBCwPYI5H8kQA5EzGw8GyX1R7J76s548jJZRqoAQBaSWcoxjJpdN25g8wD4xVmKSJctwTn8PyJkSCBZljiD05ubunxIvlmmRAlWCCgEbIFAAYwEaNz686+0Y4UXWRfKegxbBQDSDkvmggx6tIPzzxiwkZlzZ8SxygQ4NBIL3kHETNgfOHyXkYQMK6d8MvmXPl/1rzNkVdUVAgoBhyGQr5EAGTDhhco4AFYNzvmUN5Y2nyzDXEcHABUVVbrPV3WUoVdf5NP9Dxhe/yxD9y9CWoa/1xo+fxPmm1N5r38F5hdj/k0Dh9srdP9ko2/NYTT3IwPIzGQc4vZ5q28BxqZjR2ztqyA5vAtacu9oNEiPE6bMDK0J/hdcyV+iblpVMFVm0VcPxtlLKV9B7t2r6dhLx5aOcepY6/57cTvT0P2LDWwL2A7WYr4ZKb41/z3ml1To1W/h7wd8Xv9UXa85ulevgb1AfRQCCoFOEbB6JMDF+Eb8j3LZBCb/d6fOpVlhSAWD68d7YPYfS6DuprIUUZ7KaF+aYjqtxjg/o9NKaVTQ0qhjmyo0r2x4q8YZevVd2AgW8qQWZlx7G4DdywD+AAzoVbnDAWAQ/u4NHOitSp5UnsEuWD4U82NpuJ0D3Acafw/MxnUoi25eu9XnqxmNdbAKfluUvN6h/Xx6/XuMsT+iCit1mQzbYjgWPDocXhZBXdslKqN9VAd34AABfluTGH7+SD6T79ao+GXe9bwAABAASURBVEmqpuv+A3zemluxk/8Uj+16OsapYw1wEW6PxppDsZ3sgsD3xrwHyb01vxPmh3BgY/D3HxiD2zXgM0s9JWswkPzG8NU8jAHE2Fy+qQvtUUkh4CgEaCQgadG7A34OhH1KPG6Av53ggVlTS+Dcg1xQY2jQFXsfIspTGe27cYIHqK4Ey0fRBbCoHCcEAKyfXn2Qofsfjzd1DQHTpgOwSwBgBBJDEk3UCeyL8yqXY1T1Eer5rsLnv8OKR9oqvDWHuljyCzT6IFGjO+GPcaYdE4oEr8V6SaT2UpLqUF2sEEOyLJHP5DthIFsJBm4jUsdM96/ABv0hHUvs5EehHvxb4rdYwjgAhgHn53OAN9foiYjhq35mqx/olphwxa0QKDQEii0IoA792XNL4KzRLnBp7Z8SaN/ZB7iA6hKP4HFnkHQdKigDNFEBVvHTnfE+b/X52CHXmsDohQy/Q109kKxOO3EOl4FpLjJwSqFC9x+DCts/qrgzjcRw1OIvnPFZWNdAsjCxT1zJ5N6RyFIcGUlPDdUlHgD2CVj7MQgDwgLViGKqGd7q4/AYvYuB28LUMQPYCeVanXoCZ6eiH+9j2/wG28fkysrKrlYrVfIVAk5CIBdBgF3wmHa8Bw6oTr8rpbrXjhO/NsFz0L6iGKRvtaimNPkHDBjQBU/ql27aoC1jjD2MbIOR8pMYHIFXfW/giX4hvRwiGyP69x/SF/lfB2A3AIALyaqEpvK7w9Hyg+vXLvshUyXEQ7wA/G7k5UhWJcSA3UCYEDbZKMFOdyy2kUXA2AxgcHg2MiTxDEWg7kvGy+vQpslqekASqkpMQSBQDEEAzeufvl/m3eiZ+7dMEwgdaA41QvzInLnlyGRVqvBWH4vD/N/gSf1O1NEfyS5pOOPmW4Ze87ZhpL/aXUVf/y8TTeYCdIJGEXBjWdqI0eDEcLT2UoAF8ey1LIiTDJKFMjYiWZmOIWwIo3SV+Hw1I7Djn4Wd7pvYRnZLly8H9fqhTffh9EDAMGrG50CfUqEQcAQC1gUB9nD/lFFuoKH9TK0hnt+OwmuhTBm3q8+Fn1ywRQBQ2WfwTnhif5UzhlfKYMcX32yFnR+FUwMLfF7/tQAjPVsL29zgMPdF3AUfAgO6+bDNOpIKF5rg2icSqX1FkjwgWSQT5S1Esi4hNoQRYdWxkpEenOOfxjj/DPGkGz07rp6/vQPB5P/G0YBXvN4aO64nnj9klOaiRaCQg4CD/Czr43pQjWj3y+hG5qz1E6OoBSRDiOiKKeFyLcQT+6+EBOWO2cMYXFehb/qPYQz92ZK9eOLvbuj+5wHYvdDyFAJY9+H/8JT+uF80uqRWtg6SSbIB+D9ky95OXgojdi9hRthttw9/pK769U3/xTn+a/Bnh0EX7rdF4gAnuBj/xufzT7CFQcoIhUCeEYhGF29OSnw6IM/u/KS+snf2XeiA3tkHD1sN6L51m/Ume+uzVtnCSPOleOV3F14xvYowCEcyLVJz980B9gIz+Sl2XCe1aqWAQGP8v/j7pzLMW5G2MODn4HD971auXLnFCgUkk2STDtKFvy3Tg7IpnUTYEYb0g8jwVv+WcaAbE/eg3w6jXmj7K4bPj9NZHY8WifgVjgaZCInoLgRe/P9Kf65csszNODr6NZ4r766oqLLTtFfGh79Qg4CMgbARQ14CAFrGcK2eeA+AXQIADJz7oXX7/8/nrbm1Qq8+C0zzP+iM8I0ZHcGB8oM4VbJvKFr7z47qydxHukgn6ZYpd0dZKL+GMCQsCVNg7DkcgXDyHfYYO8GlPn3Tu716DewF6qMQyByBbsAAO342hSe1hRhc3EcXT5mLsQeHnCDAHr6QFfXrTNpkRSvX4WVkVpw/MW36KZdlJucBAA7zVjaVNH6Arh+Qpc12Y2P03DkHhh0yt7Sz4sBfbk6av4hEAotyDQLpJN1kg7W6eVfCkjC1Vk/upGNgc1Cpx/Nh375+O93YmjsAlCZZCNBdY5PX6Ml3dH1YuSyhuZZTSEHA3CDPGr4PAtkHDy1K+bqWbfbfOQ0AdH1wFc6NzgNgP5s7B/VpHwEGzYCjJZFo7cS1a+usvjsf2vuQbrIB0Ba8KkGbQH3SRoDt7naxj32+6kFps6iKCoE2EeAHuyAxs1iDgDYhyVPhc58mIWlmHgQQz3PzO1qjLR2HmPC9XzkLAOjKXwMXLYQzMB3XVJ2fEPgBmHlwOBq456eSPGdStqBNaMYPSCqliwDnOzPOZtF/IV0WVU8h0BYC2OUcoIKAtpDJbVkgbMKTH2fekT8xLwnBkOAIAIOAqLc5CQBozh+v/N9CY1XnjyCkm3Do+C2XB/YOh+s+TZcnV/XIJrKNbMyVzgLRM8il8VnZLoJUIBgoNyQgUEhBAACj1V6h84/9akybkYAPa9PvzKnu9cgj6gleTNAN0kJiLA8A6IaV5pKm6WglvaQHNyqlgUCSc3ZNKBo8tr4+GEujfl6qkG1kI9mKBmQeBiNTUSYOwxJx80WA3L8hsSjxLmCnCyUI6Bt1HYWH6X4kx51H4gmA0x5vhn98lOhwOiCBnj3+QRJOe6wZ4phHX0WSqXn4bBEBxKvRl5W0Ro/fQo3USh0FJjsCGoyJxAJ/Rb/SDyuxcp6SmbIVbUb9ESSV0kGAw2EVvvpb0qmq6igEOkKAzq9Onw5YDIubw9HgRcxl7gG0HDmHb9DnBqTtkl1/UBBw1asJOPyOODw6NwlLQxwamiBFlH9kbgKOuLMZrnktLqPzJxg+pQswyoiQpQEALfIDwKaAxR9Pzz7QZ/RhsNOZk6H6z7fC7nc/DXv9fQaMfHZWiihPZbRvpzMnQZ/9DwV3D/stPYB/5A+TnO0VDgffsxgy6eLJZrKdfJAuXFCg3p3B+L1ccP14Dzx3Xgl8eGUpLPlrGXx3SwtRnspo3zSsc/yeLvCW4+SGoN7O2DmHyyr0mhM7q6f2KwQ6QwD/dwe4HH5jIPkYCtV9E47WXhqOBXcPR4PlSELrXKTDD5yNJ90yiOb1r5seh8Nua8K+qDFFlJ82PSE+57+NgZzxp7f5mXXWsgCAlvflJv8nWmbJmdRV3h18YybA0Bsfgj0efQUGXXw1GMf8Gnru8Qso6zcAXOXlwNzuFFGeymifccyJMGjKNbAn8gy98UHQx/wK6wovqIRuCiU8nuz2SLTysFgsUC8kKY/MZDv5wDi7Hc3AcxJ+5yn16gpAr958Y0oJLLyuFB46zZN6T/chNRoM1hn0xP0eN6TezU15KqN9vz/IBQ+f7knxvI689IpPkmWVGxz4Qz7frha/IdIq65VcOyGAf7iCCALax9SaPeFY4HXspILWSLdE6qayprIXZEjWZAhpS0ZSc92LoEq/zC7p3Rd2OmMS7PHgi7DzORdDt6ohbanvvIwx5B0Ku5wzBUY88AIMOP0P4Ondp3M++TXWg8YmhGKBywHm4GySfAW5lTgnkfIFfUK965Fymip6MrjueA98dnUZ3DjBA3vtnF0Tx+YBeyPv307wwH+vKoNrj3eD0QNbtHxvvBr3PChfrJJYjAioICCro24Cg3uy4swDE+f8oe83fCW8BgCZnt3ZkTg7IHqrHzCQurY/c7vAGHcy7H7PM2AceyJopWUg6+Mq6wIVx02E3e9+BirG/QZHDVyyRHcohwP7HC/9R4bDgdc6rOjAneQT+UY+5sJ8Dx6yCw9xw0c4vH/ewS7oWiJPa7dSgPMPbpF9AeogXfKk44wnwAk+9d4AmZAWtSwOUJAjAVYeVM7KnkT5TniseSNzmXegrVKS9ABgwIABXThj90mxbquQsn79YegND8FOp50vtePfKv6nDQUCA067EIb+9UEoNSx+mRtjj3Tt1jQ6Eqn99icDCixDvpGPgL5a6dogHNKn4fqrx7mldvw72twNA4FrUMeMi0thYF+2426h3xqHmzt7w6SQAsVcVAioICCzwx0OL2oAbk7KjCsftdk14fCyiCzN0gOAeGPXC9C4XZGkpF77jIahNz0CXXetliIvHSFdB/lh2M2PQq+R+6dTPdM6DRggnR6OBC5YsWJFY6bMTqtPPpKv5DPaLv2u3jG7aTDzkhIY3l96U0Zz204jBjB469ISOHI3HHZou0rGpXjC9lfom87LmFExKATaQQDbVAGNBLTjpMTicKxuBop7EcmeicH8cLTfAzKNk3rWrKqqKgUGU2UZ6D38WBg8dRq4unSTJTJtOa6u3VD39eA9dGzaPGlUbMThm1GRSOCZNOoWVBXymXxHp6QFPafs64LHz/JA9zK5V+NoY6epRxcGfz/TAyf/0tVp3XQr4An76oEDB8qb20pXsapXsAhgm1JBQAZHl7P4xVh9FZLd0npg7GQAufeJSQ0ANq5nZyFq/ZGEE3X+A38/FZgm7wSbqVHM5YKB518uMwgoSyY16TdGZupXvupv9V1KB0ed/20nesClsXy5A25smnf8RmoQYGzZXHJa3hxSigsSgUIIAnJ1YCKR5WHO4FjUtxHJLimBZ7lTw+HActkGyQwAGH4ul2EgDfvvcu6lgBEP5P3DGOyCgUjPkftJMQUBv0iKIAcKQd8puha2nIb9b/m12y7NA27FQOSIYRgNCHuWEnAJfuP/Hb9VshyBdJ4Tz2UdE9zd8eB/JNtxFQSkj2gkElzImTkROeJI+U4Yj8C5oWjwTSsMwXOyHLH99OoDUdJgJKFEN/ztOvlPkM8r/x0doJGAQZP/AqW+yh13ZfN7Qv8+VQOyYXQyT2WfwTuh/ROQhBLd8HfvKZ68Xvnv6ACNBNx/iht2kXFjIIPdDMN/2I461O/iQMDKV+U6NwjI/bGPROreAY1RECD9vqUMvKEr/7Ox86cnFDJgS7+qtADABHZG+mrbrkmP+g2aci3kY86/bYv+V5q6J+CSa4CCgf+VZpXzJFwuulEyK2anMiVdrgvRdjdS1okev3vodA/kY86/M6PpnoCHTy9JTQt0VrfT/SY/pdM6qkLBIqCCAHscWhxyf03j5kFoTT7uCViPI0Hjrez80S+QEgDQo38ojKIl3GSffGMn5vRu/0wt7Tq4BnxHC1/Eolp+Dn5JwR7lOCG50EjyGTfZp3MPdOf0bv9MLd1jJwbnHECuZsq5fX0ObAK9RGv7UvWrmBBQQcD/jnY+c6tjdZ8nTBgFDN7PmR0M5oPG9sbO35Jh/239kNIJxRvLjkChPZCyTiW9+0L/iWdmzZ8rxsqJZ4OnVx9Rdf103T9aVIhT+Cu8VQegrQZS1olW+Js6xp01f64Y/98YD/gEV5bGyL/3Gm+c3o6WK7OVHhsioIIAexyUNWuCq8KR4OGcM7pBN2yhVRsB2CXhSOVoHH2QfsMftPGREgAAY8JzlrTKn8zV/drwVUqRq0tXoFUDRYVpDGQMJYiakRN+zpiwrxcc7LZ0kR9ZQJSXApx/iIRAhQEF1bLMUnIcioAKAuxz4CKxwLNN8eYhAOxGAJC2GA/K2sQ5vxW0ZHU4GrgHQO6jfii/3SQ9jJwHAAAQAElEQVQnAACxAMBV3h30I45r10i77fAeOR5c5eViZnE4XEyAk7jF2kevrgCn7Sc+tJ4rxM7Yz5162ZCYPnaIGL/iLhQEVBBgnyO5fv2K9dhJX9W9p7kzXticzgDoiY1EFhZy5PmYM35haXPpLpFY7RVhiSv8oey0knAAUFFRpaOm4UhZp76jjwAnXP23OkhLBvfdT3jQY/f+/Yf0bZVZqNutPu4u4t+EvV2OuPpv9bFbKcCv9nS1/sx2O3wrdtnyK74CQqBYgwC7HsK6uromWtwsFA0emOSsjwmMVoy7Ce2dhT17AIle1pMABs1YtgZ/U9lMxuBOBuw3LpwpDEeDtBT8w7Je7IN6Mk7CAYBpwl6olSFlnfoefFTWvPli7HvwGFHVWqLZjBm6nxcykY8IlFD7mDhSuDNFE3KbTtxH2GZHtI/colrc2lQQYM/jH4sFNkWjgbewQ/8z0lGRaHAIUh/Me8KRYCluvfibyo4JRYJTQ9HAS/X1wZgdvBEOABhnQ0QccffoDd0G1YiIyAtvt6qh4OkpfDNgXmx3klJvOYM9dhJupjl3mV4lrNOSLjnXrBQWMgIUBHCt7GgAPke2nxzgAA0Sb3u9NYK3scqyTMmxGgHhMysHJtR79xi+NwCOi4DTPmhz+bARTrPacfYe4Nec2jxg38Ga4/BWBtsfgdSb67Qux1kRBKD3+7sYf0sFAYhEESThMxTj4BfBia6kRfjzyVtevVs+1ReF7r0dePXfemBG7iz892oVpbYKge0QoCDABM84nFujm9C22yfhx/5uxt/U9WGCdzqLWaK4rUdA/AzFeIWImWX9dxZhzytvWSWtbptXEwpeeZWBpziHelnlc67tDoW8qMxW0wFFdbgtcVY8AAAmFCWWVUh5eaAl4HQmtLSi6Jb07wwS6fsHep3biTrZdukHUgm0BIHCHQmwBC4ldAcExAMABj12kJnRT3c3595v4hZdCyAjpIqzcq8uzg0AaP2C4jxqyutcIqBGAnKJdmHpEg8AAIRGALSyLo5FlFYFdKzxDjG8W4lDDG3DzPIy5wYvbbijimyMAI0EQAHdGGhjqAvKNBkBQEEBopxRCCgEFAJOREAFAU48avm1WUYAsFnEBbNxiwh7XnmTW37Mq/5iUN5A62g51NHNjdyhliuznYpAYQQBTkXfeXaLBwAcNoq4Hd8sxC6iWpg3sVko9hHWXwwC1v3o3E50vYoPi6GJ2s5HCgLUI4K2Oyy2NEg8AAAu1As2hettCUw6RjWFVqZTTdURQOA7WkVbgD+frCtizg1e8omb0i2OgJNvDBT3XklIFwHxAICzULrK2qrXuOr7toodUdZY/4Mj7HSykXVh53aidRHn2u7kNqNsb0FAjQS04KC+20dAOADgDALti+98T0Pd4s4r2bTG5uDXNrWscMxa8L3pWGc++y7pWNuV4YWBgPNGAgoDd6d4IRwAMOBCAcDGr74A4A68UkKbNy1e6JTj7Fg759WaTm0e8EmdA9u1Y1uKMrw9BGgkQD0i2B46xV0uHABwJhYAJDaug4ZlSx13FDbXLobExvWOs9tpBsc2c/jiB+eNAnz2HYc1DSoAcFp7K1R7KQhwwo2BhYq/Xf0SDgDcbu1zdE7oTBf74B0U4ay0du7bogab7hLNG44GWSET+YhACfXgL3/mvKH0Vz5LoNtCyRHtQ8hDGzAbup8L0mbD6//a0KvvrqiosvXbwWg6IAnusQxA+guEOMABLkjMVC8QskGjzsAE4QCgvj4YQ32LkLJOa+e9B2ZTY9b8uWak5//XfDpbVO1Xq1YtXSMqxO78W338RsTOf3+RhB8dtB7A5iaA1xYKBy1F0T5E2oVNeLsBA+z42RSe1BZiMHHfMBhm2/Ur7R0E2OSIFpEZwgFACisG76e2WX4lN2+CyKwZWXLnni06azokhdcA4HNyb3m+NHKh9kHP0z/9ifAVdc6cf+rjJGwQXgOgmNpHzg6N1YpcqGDyGj35jp2vhFUQgEdJpRQCcgIAU+wET5aEX38ekg5YFTC5pQFCM14kk4WIcZglJMBBzIzzV0XNfXhOEhrwylpUjtX8mxo5PDxHPFgppvZh9THJvXx+sN2Hw+0YBOT+OCmNUgIAT9mW9xDKDUhZp/i6tbD65Sey5s8VY/2L/wS6cVFIH4O1fWKeogkAQrE6mnMMi2AW3sjhjnfEO1YRG9Lhve3tBNCNi+nUbbdOkbWPdnFw8A7ugDlxFQQ4uIFJMl1KALBy5Upa0P8lUZvCM1+BH78NioqxjL+hbilE3v63uHwO/1oMix00qy3sMk2I/0NUyt8/TMCilXhqFRVkEf8X35vwxDxyVVBB8bUPQcDsyY4t1fY3xtknCLDnMSx0q6QEAASSCfAUbUWIJ5Kw7O5pkPyxQUSMJbyJhs3w7T3XA08mheUzzp4TFuIwAe6k+SCaLHQJH0foL3iqGTZu4SjKXmkD2nTh03HAJixsWDG2D2HQbCoAW6oKAtTTATZtnQDSAoBoNEjDvHWintK7AZbf/zcpHa2oLa381Okvv+8GaIqsbi0S2X4VigWK6AbAFqhWra2jFyf8q+VX9t8r1nC46P8SUjra7K3YnpM6/UnPxuH7tXi6335XNr+Ksn1kA5RTeLBVqCCgkyDAKcey0OyUFgAgMBw/t+FWOK1f8DF899gd9lghkHNY8chtsOGL/wj7RQIY8Ltwi+cE/C6yhKNE98lwedY3Sfjjy3FbrBDI8UhOfTEO7y9B7yQ4V8ztQwJ8thWBzUQFAQUaBPTpU9WjQvcf49Orbza8/ncN3V/r0/1rcZs0fP4myuP+QIVe/ZahV9+F5ScZxmCfHRqrzAAAevTiT2JDpys9Yd9is2emOl66+hYWlqUA0r38oVtgjfiiP60WrC7vyYtu+L/VeZfLXIf5RiTh9Pz8JFDHS1ffwsKyFEC6L3k+Di/JW6ioqNtHlofBMWxc3RjYThDkmEP4k6EDBw4sw079TOzM53lcGo39vcGAXQEMDsdKVQygN2414FBCeTz2fg5sDAC7BACeB9MVwmDhU5QxaUCPYX2wLC9JagBQV1fXxIDdLssTCgLq7rga8nFPAM351932F5mdP3DGryeMZOHjJDk+X81pPKnRMEqZLLspCDjniXhe7gmgOf+z/tkss/Mv6vYhq03YXQ5XQYCjgwDqrH14pb+loeQHPJb02Nr+2OZcSJkm7CphFMq4P16a+K7C57/D6x3aL1MhovWlBgBkjKe04VHcLkOSkjYs+AQWX3Ee/LgsIEVeOkLobv8lV54nbdh/q86lkUj/x7fmi2ZDkbLhq3mYcf40Ot0NSWp6d3ESxtzVDAvp7yhVcvvC6G7/MXc2Sxv236qpKNvHVt+LaoMnfdt3grl8OsAhB5/5fP4zsLNegj33FWizF0lWKsepxMtcLBn0ef1TAUZ6ZAnuTI70AIAeCWQAF3emOJP9TZF6WHL1JPjhqQeAluHNhDeTurTIzw9P3g9Lr5ks64a//6nnDBuNhBVi/ifR9jmfr3rQjw2l83Cy/nwrjf1uDYdx9zXBddPjQMvwWqWLFvm55rU4jL+/WdYNf/8ztQjbx/+cL76cCgLA9kFQa6vs29ff39D97zEOT2KZlXP35YzB7T594yc+X9Vg1GV5kh4AkMWhaPBN3L6KJC3RfHz4jZfh6ymnQ+j1F6SuGkhBRWj68/DVxadD+M1XgHRJM7xF0EvhWGB6S7Y4vg2jZjzjbAEDvncuPKb5+EfnJmH0TU3wEMZZDU3ytFJQ8eBskt0Mj3+QBNIlT3pKUtG1j5TXRf6lggAKAhK2foFQP++QkW4N5mNTPRQpJ4kBG8m4tsDwVo2zWqElAQAZ7UompwCDtZSXSfENa2Hl0w/Dokm/ge/+fjc01C7O7mkBHHPZHPwGvn/sTlg0+SRY+ewj4iv8te1olLnMSW3vKsTSQ9wV3prbwOQUAPbKtYfRTRz+OiMB+9zQCH96JQ4LvjNxACJzKzienf+7gsOVL8fhFyjrhtfj4iv8tW1GkbWPtkEo1lJsZra/Ei7W6QAc8p9gMnMuts1KpFynnsC0fxl6zTlWKrYsAKhfu+wHMNnZaDy2cfyWnJKbN0P0nddgyVWT4MvzTkgtIEQjBBu//A801f8Aic0bgScSKaI8ldG+0OsvwbK7roMvfz8Bll49GSLvzpDwYp92neOcwfmhUF203RoFtMPrran06fXvc8b/H7rFkPKW6GU8T36chHH3NsOIa5vg/KfjQCMEs5easCzCYd2PAPFEC1GeymjfI3MTcN5TzTAcecbjtMJTnyQlvNinXRiKqn20i0KR78ATZNEGAXTo7ei/zzdkDOPwIton/b4llJlucuPV7eNWBgGWBQDkIQ17MwZ3Ud5KSmxcD+s+mZO6RyB405Xw1aVnwJe/Gw8LTj0yRZSnMtq38ukHYd2ncyGxaYOVJqVk07oIkUiQroRTvwv5yzD8h7sY/wJ7/QPt5ueaBg4zvkym7hE49bFmOPCWJtjt6kbY5YoWojyV0b5p0xPw+kIT1iKP1X4URPtgILSk9Wae/foJIrxbj21TOBpkmZAJ7u7Yxj/ayi9tY8dOcEfnimUkQNer92TcpKXtsQPeEYWc/8bmxh8xvNXHWaHZ0gCADA5Ful+JjfsDyhcZzYrEav9cBD5rPm/N1WDC2+irlTfIoPiCSoXRPjhsEjkqqwVuqFglvix3xrYXSyfY3jGV6//2WrCfyPtIiK4Pq9CAvYGWdUeyS3IDY8/4fNWDZBukyRb4c3kL4s3x5vFYvgipWNJXnib3yehsEqlgU2Wl31uh+99gjF+PTrqQVEoPgUJqH7S4U3pet1Hrg6bGNkrTK/qwcUt6FdutxbOyvdA7wXbh2rqjkP3XIHEvupmPOX9U22HqyTh7AeAQd4e1MtypZVg/q+rr169Yn+RsLDKvQCr0VIfDhEet3LhY+g2QdgLOMKr2Tcbhc4zaj7aTXQ6wpaDaB45P1olg/vyPmyHJsRVlKIR4nt+yOUOuHauz2h1L0v1dyJ1gOhjI8L89Pdga8jISYBg1dKE6sT27bFC+j+Gtv0imHTkJAMjgWCxQb0LySMwvRyrUtEJzu47AP0eoUB0kvwy9Zgpwje6O3Yl+K0obgYJrHxx4IG3v26gYTDTD0xgEtLGrw6KnftwEtfF4h3U63clAyHb8n29OgnssBkHqnoBOwc6sAofcPiJoGCO6gckfyMzKPNRmMI2mKWRpzlkAQAZHo8vqktw1GvOFOB2wEH3bf/XqJd+hfwWZ6KUXPr36JQB+N3AoKUgnrXOqQNsH+0QUshs2roOPMpgKoLo3Io+oXsbFbVdBwOIsg6DOjx7PYRDAzMaz0KL+SHZP3RlPXibLyJwGAGR0LLZkdVO8+WAARleQUCCf2c2JxMHkW4H48zM3fL6aESUu7b8M2Ik/2ym3ACd22e8Ygzvkis2rtMJtH1pyNiKL52r8zjLFcQrgrLUReKJhU4fTBO3aswAAEABJREFUAQnU8g+sc9baMMQxn6W6VjZT83CyvfV31lsVBDg+CNBwJGtK1g0gx4yM8Qt37jm8twy1OQ8AyOj161esD0fLj8QInF4cJP5XJqH5IU4+hKOVR61b9631zxXmx0eo0KvPYpx/igfKb6UJDCDIGds3HA38IxQJ/j8cZfgtAPsRnPsp+PYRDi+L4HGaL3qIKAi4dsNaGBNbDY9v3giBRBwaOE8R5R/DsqNj9TAN60jo/MncT+vrgzHKyCAVBGQWBGSCOZ53LL0nwPDWHAfAqsE5n/LG0ma6yVzY4rwEAC1WL4iHYoHLgfPj8fcaJGclWuWQm+NTPsCchLOMT8/aAQMGdDH06r9zYP9Eji5IVqaXmpPmLyKRwE/TQ+FY8HnQtFEYGHxhpWJLZBdB+2jFDUdr6EVPrT+FtjSv/1cc3j8qUg/DVn+fIsrTNAHtExK+DTNGZtJsbhWrggBrgwANEpsM3c9lEzD+WusxFN0OqWBw/XgPzP5jCdTdVJYiylMZ7ROV38qPF2RntOZFtnkMAFrMDsdqX0+YsAcH/nJLiSO+X+AQHxaO1c1whLVZGKnrQ6vjTV1xfpdZuhQlMFpIhk8JR4O/Wbu2buOOpobDS74ORbuPwovB63Cf4F1fKCE3qeDbx7Ywupvc/4e/G5CckjaVNZW9YIWxKghIJwiwAvn8yvS4Af52ggdmTS2Bcw9yQY2hQdcSSBHlqYz23TjBA1RXgrWjKiqqdFE5eQ8AyIE1a4KrItHaiZxpRwPwrB/NIVkW0zKMvI7DzurkSGR52GJdeRPv81X/WoPkZ2jAHkjWJca+B2YeHI7W0rO3HehZEI/EgtNAc+3NgNOCQx3UzeuuomgfOyJMj7ziKMAjO5bb9Tfn/KHvN3y1zir7VBBQXEEAdejPnlsCZ412gUvD8cp2GhbtOxsnM6gu8bRTLd1iBknXoelWbq+e1t6OfJRHIkvf7t6TD0cIL0L9PyDZInGAlXjSuCAc7T40FKulVaJsYZd8I0Z6cMj/LsbZSyi7B5JlCY/xW24P2zscrvs0XSUtowG1R3NmjkGehUi2SMXTPtqHO2G66H4e0Qfz21cgb89G5jLvkCeubUkqCGg/CGgbMeeWTjveAwdUp9+VUt1rx+GQgaDLnPF9BUVA+laLakqTv66urikUDd7fN+quAg6/h/yOCHxFHX/Xbs3VkVgtXuEscMoQdJpo/69aZZ/BOxn65rkA7BIAHJgHyz5JPKZX4zE+dtWqpVnd+xGJ1L0Tjgb3MiG1uNQstBT7YPzOfSqa9tEZtLHYktVbp2k6q5rn/eyaMN24mAMrVBBQ+EEAzeufvl/m3eiZ+7dMEwg1Qw41QvzInLnlyJSLtBgWN4djwcfD0doaE+BA7JIeQ73rkSxN2JOsYxye1oDj0HRwRAQ7/hUrVjRaqjTPwunNV0mX63PsmPez2JQIhpxj8JjegHrwsOJ39olHo4G3wtHgUTg1MIJxdjvQlEL28tLiLMb2kRYwWCkS634vB74As/ZMDOaHo/0eyKVxKgjYMQjIJfrW6zpllBtoaD9TTcTz21Giq6dz4ScXbBsAbAMonuiDH4UjwfO6dGvuxwCOxfnGO3H/l0iinQiKALwihUV4Yn8Ah1SOikS7G6FY8IzV0dpieIGRq8Lnn8a4+SYC4UWyLCG+HyY52yscDr4nW0lqaiAWuDwcCQzkTBuNndAtAOwTAJAxYlPM7QMhzCThCBnjJyGHHR+JXY8B4skAuX9iRwUBhRsEHOTHHgkbfDbpoBrR7pcJrwUgakE2fmfNQ1fiOHT8ZigSnIpXfnu5SzQfdtpH4iGYjELvB2DvAADNDX8L9BgWozvMU2uGrMPpBFqhbwl2RDOxzv34+zLkPSqeNPugrD0i0eDkSKQWh5PxJIYVCj0ZxmCf4fW/hcO216CvVrYDnEVht0WilYfRctCoy8rEI5GlH0eitVeGo4H9XZ7NvXBk4LCW9sHvRsVv4nH/BrfLOQDdBEYBAj1Wvg44qPaBwIimSKRuGXDzdJRjp0djE9gGTg2HA3lbhlwFAS1BAB4H6csmY1vLW6rsnf2pc0BvREPMcuE3FmZvvZjhUrhpDhk77XdD0eAD2IlfFI4GcHg5uCfmB4cjwb5IpZgviUSDfcKx4EDMD8P8Mbi9CH/fhbyz2nr0TIpxNhai6/4DwMQhfwZHWGzmetDYhEgs8Md8XHnV19f/GIoFZodS7aP2Ujzux4Zjwd1xOwjbAQV+JZhX7UNyIwinHo9l56NYjLPwO7+J42n2XGwDNMqVV0tUEFCYQUBeG5WgckcHAIK+FyM783n9U/Gg0xKo/a0EgAP7HEdYRuJVl7RFNqy0V8mWi0A4GvgHADsXAPI5EkBX/meHosEn0Q5bpOIOAgCs9D8fB7h+Xfaz0CvXcVGTN4kKwL5AVITidwICvXsP6olD/v9iDG5He8WfQUEh7SbGHunarWk0jrB8224dtaPgEQhTEMD5BHR0A1Ku03q88h8fslHn3wqAlZ0gdikHuCAxU9eHlbfqs9vWSv9z7evcICKepdIPAtkHDy0qOU1jtmSz/FYBQJbAOYlN16v2KnG7FwCDX4G1nwbO2OnhSOCCFQX+5IS1MBaO9HCs9nUcCdobPaKFpXCTg8RgPk497Y2df96H/dvz1spOELskWwYB22Jhpf/b6rE6/9ynSUiaiHiGiojnufl0f3GGjNtVZ8KL5qkAYDtAC++H4fX/XgPtY/RsMJKVaQlzmaMikcAzVipRsp2HAI0EhaOV+wGHy9B64WFLlNFe2gjALglHKkfj1FPebviDND9WdoLYJakgIM3jIFItEDbhyY8z78ifmJeEYEhwBIBBQMR24lUBAKFQgFRZWdm1wut/Cq/6H0X3ypCsSwz+zwT3L0OhOrrD3jo9SrKDEZiTCMeCd3EWr2a0ZgPAZonObOKc3wpasjocDdyTjxtOs/WleIKAthFq9R+AzQWHfqbNSMCHtel35lT3euQRdRf/R/Sos5AYFQAIwWdP5sq+/iHJeLf/cAb0OJaVRjYxBpPCkeAp9Ee2UpGSXRgIRCLLw6FY4PLS5tKdqe2gV7QUNF6wYi6zRDwf4/TChShrl0is9opcrfCXmZmd16b/ThLcYxmA9EfkOIAjRgL6Rl1HIVL3I2V+OY1M+UzxBMBpjzfDPz5KdDgdkEDPHv8gCac91gxxzAvabGoeTjdzC4lRAYAQfPZjNnT/SUkN50CB7W6xdSs0zg4IRYIPWqxHiS9ABOhlPNR2wtHgfjh1ZDBgJ+Fo1V3YYc1EoqHNNfi7OUUAa6gMaSYGDXdi3d+4POBDXrrR9GGS5XSICj0I6Oz4LIbFzXg8L8K2sAcAvxuni2g0saEzPrvspyDgqlcTcPgdcXh0bhKWhjg0NEGKKP/I3AQccWczXPNaXEbnT25/Wl8fjFFGhFQAIIKerXgPcfv06pvRpOeRhBeIQBkdpTc8Te6Rq2OB3N3Y1ZE1ap+jEcCpo2goGngRR5Iui0SDxyANCUeDXvxdmiLMUxnSMRg0TA1FAy/JOPnZDTQKArhWRm9EnSPbNo4jARok3vZ6a6w+NwiZjm3hm3C09tJwy3od5eFokFlNwNl4IaO3YaZ5/eumx+Gw25qg+s+NKaL8tOkJ8Tn/bfTgyNfT2/zMOqsCgKyhsw9jv35DdzF89fPwyugKi63CwS74E/4hx9ErYC3WpcQrBIoOgXB4UYMJnnHMgukABHN/N+Nv5v4RQdRs4xSOBV5HvIM2NnFH0zaVNZW9sGNhNr9VAJANajbiqfBWH2smk58Dh19abFYEo86x2PnTKANeUFisTYlXCBQpAmokIOcH3sSppntyrjVLhRz4g7KmvVQAkOVBsAGby9D9N3LGZmDn38dae/gcE9x7RCK171qrR0lXCCgECIFCGgkgf+xOnJXRapE/2N1OtG8j00x6GR5mxZMKAMQxzLmEiooqHTt/eqnRn1E5jl7htzUJr/TZveFoj6PwqiRkjQolVSGgEGgLAfzPbS72ewLawsWKMgq48ER6gRWy5cpk18h82kUFAHKPjuXSKrxVB/OkRm88PNJSZQzWMs7HhaOBKQDF8YZES/FUwhUCWSBAHZPp6HsCsnA6TyyhaPBNVP0ikj0Tg/nhaL8HZBqnAgCZaFori+FV/5WcaTQM389SVdjQNJdr71Cs9g1L9SjhCgGFQKcI0EhAsojXCegUIIkVOItfjOJWIdktrQfGTpa9yJUKAOx2mNuwZ+eew3tj5z8dd92EZO2LfADu7xtxH7h69ZLvUJdKCgGFgA0QcGoQYAPoMjIhElke5gyORaaNSHZJCZyeONWK5a1VAGCXQ9yOHf28Nfs0lTR9jruPQ7Iy0RrtJ4ejwYtoUQ4rFSnZCgGFQOYIqCAgc8yy4YhEggs5Mycibxwp3wnjETh36/SEdFtUACAdUnkCK3z+P5iM0/KgA+VJbUsS/9plwi+x85fybGlbGlSZQkAhII6As4IAcX/zJSESqXsHNEZBQD5XI6Qr/7Ox86cnFCyBQgUAlsAqJpQW6jB8/uc4B7rho1RMWsfcjMPTLk/DqPo1waUd11R7FQIKATsgoIKA3BwFHHJ/TePmQahtFVKu03oc9h9vZedPDqkAgFCwEVVUVO2mQWI+cPitxWY1oo7zQrHgGfX19T9arEuJVwgoBCQi4IQgQKK7eRO1Olb3ecKEUcDg/ZwZwWA+jj7sjZ0/PZVgqVoVAFgKb2bCfd6aU3lS+w9yDUWyLnH4jplwcDgWfMw6JUqyQkAhYCUCFASodQKsRLhF9po1wVXhSPBw4ObxHGBlS6kl3w0M2JXhSOVoHH1YbomGHYSqAGAHQPLxc+DAgWWGr+ZhxvgzqL8bknWJw7+bk4k9QmuC861ToiQrBBQCuUDAvusE5ML73OoIx+pmNMebhwOwGwEggiQrbeKc3wpaclAoGrhF9qN+HRmpAoCO0MnBPp+vetCPDaXzgPPzLVaX4Bz+H171n7Bu3bcbLNalxCsEFAI5QoBGApJqnYCcoL1+/Yr14Wjgqu49zZ05Y6ezlpc2JbJQzpHnY874haXNpbtEYrVXyFzhD2WnlVQAkBZM1lQyjJrxjLMFDPje1mj4SeoqE+DQSCx4B5ZQw8ONSgoBhUChIGC3IKBQcG3Pj7q6uqZIJPBMKBo8MMlZHxPYWKx7E9IsPMEGkNZhPgEMmnG7Bn9T2UzG4E4G7DcuD/jC0eDoSKT2YVkv9kE9GSdHBwAVFVW6z1d1lKFXX+TT/Q8YXv8sQ/cvQlqGv9caPn8T5ptTea9/BeYXY/5NQ6+5p0L3Tzb61hxmGCOsHXJv85Ac4sb5/lvB5K/i7l5I1iUO74KW3DsaDdLjhNbpUZIVAgqBvCKggoD8wB+LBTZFo4G3sEP/M9JRkWhwCFIfzHvCkWApbr34m8qOCUWCU0PRwEv19cFYfqzdXqujAoABAwZ0MbxV4wy9+i5D9y/kSS3MuKHWFFwAABAASURBVPY2ALuXAfwBo60jAGA40iD83Rs4lGDek8oz2AXzQzGPkRq/GCOy+0Dj74HZuA5lfeLz1tzq89WMxjpYBb8tSl5vTaVPr38f5/svRxVW6jIx2rweh/yPzsfQEvqmkkJAIZBjBOwRBOTYaaUuawScEACwfnr1QdhJPx5v6hoCpk0HYJcAwAgkhiSaPChgX+qQGecfoZ7vKnz+OwxjCAUSuEteMgz/4S7Gv0CjD5QntU1JMc40ijavxb1JJJUUAgqBIkFABQFFcqAluGnbAKCqqqrU560+HzvkWpxfmYu+/g6pB5LVaSfO4TIwzUUGTilU6P5jUCH22fidfdJw1OIqMAFHK8CXvZh0ONknrmRy70hkKelKh0HVUQgoBAoMgXwGAQUGZUG7Y7sAoGWY33/ppg3aMsbYw4j+YKT8JAZH4FTBGxiELNT1mqOzMaJ//yF9MYh4A4D9FQBcSFYlNJXfHY6WH1y/dtkPVilRchUCCgFnIKCCAGccp3xaaasAoMJbfSwO83+Dc/l3Iij9keyShmvAZ2Ig8E4mUwOGUbVvIs4/x545q+AhA+c3csYnhqO1lwIssMMLLDIwXVVVCCgErEIg90GAVZ4ouVYgYIsAoLLP4J1wuP1Vztjr6OSuSHZNR+LUwIIKn/86gJF070C7duKQ/8XAtbnA+c7tVpKzY6EJrn0ikdpX5IhTUhQCCoFCQkAFAYV0NOX6kvcAwDBqxidcroV41f8rua5ZJs3DOVxr6JvmtzUa0KdPVQ8cKXgRgN0DLU8hgHUf/g9P6Y/7RaNLaq3ToSQrBBQCTkcgGl28OZmDxYKcjlOx2Z/HAOAQt0+vvhlM/ioD6O1A4PcE05yP8/tnttrer2/1UI9b+wR/02skcWNZauScn49D/r9buXLlFsu0KMEKAYVAwSBAQYB6d0DBHE4pjuQlANi55/DeFXr9bAbsCvSCITk1lXGAJ3BK4HZDrznH1NgCvOofZqUzCFYQp0pGRWK1j1qpR8lWCCgECg8Ba98dAPu7GX9T14eVFx5yhelRzgMAr3dov6aSptnYcR5QKJByDlMB+N/Rny5I1iUOrzXGm0dFIoFF1ilRkhUCCoFCRkCNBBTy0c3Mt5wGALo+uMrFkh+jiXsgqZQuAqn1pNkl4VjwV+vXr1ifLpuqpxBQCCgE2kLAipGAbfSokYBtwLBzNmcBAC2Bq4FrFoIxEEmlNBHAkZKVHLRDw9HAPWmyqGoKAYWAQqBTBNRIQKcQFXyFnAQAvXsP6uli/A1EU3X+CELaicH7wOL7RCJLadQkbTZVUSGgEFAIpIMAjQSA1uU4nMKck0799uu0uWd/PO+/hRd/3dvcqwrzjoDlAcAwGFZS6nbT8/175t1b5xiQ5JxdE44Ej4xEloedY7ayVCGgEHAaAhQEmOAZxwCseGOomg6wcYOwPABYo8dvxWHsgrnhLwfHMsaZeUwkFqClg80c6FMqFAIKgSJHQHQ6oCP46PyvQeJtNRLQEUr52WdpAGAYNeMB2MVg8cfTsw/0GX0Y7HTmZKj+862w+91Pw15/nwEjn52VIspTGe3b6cxJ0Gf/Q8Hdw35LD+Af5cMkZ3tEInXvWAyZEq8QUAgoBLZDQI0EbAdHUfywLACg5X25yf+JKOLIEn5LTq7y7uAbMwGG3vgQ7PHoKzDo4qvBOObX0HOPX0BZvwHgKi8H5naniPJURvuMY06EQVOugT2RZ+iND4I+5ldYN+9TVJxxdnskWnlYLBaolwyVEqcQUAgoBNJCgEYCkhmvGJiWaOAAB7ggMVOtE5AeXrmoZVkAkNRc92LPL/0yu6R3X9jpjEmwx4Mvws7nXAzdqoZkhxNjyDsUdjlnCox44AUYcPofwNO7T3ayxLjWg8YmhGKBywHmJMREKW6FgEJAISCGgAoCxPBzErclAUDq1bkMfgUSP8zlAt/YX8Nudz0FxrEnglZaJk26q6wLVBw3EYbf+yxUTjwzNWogTXgHgjBA+oIzc59wOPBaB9XULoWAQkAhkFMEKAhId9ngTA2jkQBN3ROQKWyW1JceAAwYMKCLBvxBmdaW9eufGurf+azJ4OrSVabo7WRpJWVQeeJZMPSvD0CpUbndPuk/GHukrFvz/jjfv0y6bCVQIaAQUAgIIqDuCRAE0AHs0gOAeGPXC9Bvaa/07bXPaBh60yPQdddqFJub1HWQH4bd/Cj0Grm/FQobOGOnhyOBC1asWNFohQIlUyGgEFAIyECARgKSHd4TkL0Wru4JyB48SZxSA4CqqqpSYDBVkm3gPfxYGDx1Gl71d5MlMm05rq7dUPf14D10bNo8aVRsZC6T1vJ/Jo26qopCQCGgEMg7AioIyPshsMwAqQHAxvXsLLS0P5Jwos5/4O+nAtNcwrKyFcBcLhh4/uUyg4Ay03T1ytYexacQUAgoBPKBQHtBgAxb1EiADBSzkyEzAGD4uTw7M7bnomH/Xc69FIAxyPsHbdgFA5GeI/eTYgrj/CIpgpQQhYBCQCGQQwRUENA22H36VPWo0P3H+PTqmw2v/11D99f6dP9a3CYNn7+J8rg/UKFXv2Xo1Xdh+UmGMdjXtrTclkoLAPrp1Qei6YORhFJZv/6w6+Q/Acvjlf+ODtBIwKDJf4FSX+WOu7L5fYLXWyNFUDbKFY9CQCGgEMgWge2DgGyltM3npJGAgQMHllXo/jOxM5/ncWlr0fY3GLArgMHh6F0VA6BH4DXgUEJ53O/nwMYAsEsA4HkwXSEMFj5FGZMG9BiWl+fP0Q6QFgCYwM4ggSLE3C4YNOVacHXpJiLGEt7UPQGXXAMMpwUEFXjcGj9fUIZiVwgoBBQCeUGgmIMA6qx9eKW/paHkBw7wBADQneIu3GaaGDAYhTLuj5cmvqvw+e/weof2y1SIaH0pAQBFQ2jIr5GEknHMxJze7Z+psV0H14Dv6AmZsv2sPucw8WeFqkAhoBBQCDgEAQoCim2dgAq9ZiJ21kuw574CD5MXSVYqxz7hMhcz6zAQuI5eoCdLcGdypAQAWza7j0RFQje30Qp/lSeeiWLsnSonng2eXn1EjRyq60Nz91yjqLWKXyGgEFAI7IBAsawT0Levv7+h+9/nwF9ECCycu+ddMRC4NqbHP/b5qoSn09HWTpOUAAAYO6xTTZ1UMMadLHV1v07UZb3b1aVratXArAVsZWQ8efzWrNooBBQCCgGHIdBiLo0EJAt4nYB+3iEj3RrMR28PRcpJwhGGkYxrCwxv1TirFcoJAEAsAHCVdwf9iOOs9lWafO+R48FVXi4mj8HxYgIUt0JAIaAQyD8ChRoE+Hz+CSYz5yLClUi5Tj2Baf8y9JpzrFQsHABUVFTpaOBwpKxT39FHOOLqv9VBendA3/3EBj0YwCiAkZ5WmWqrEFAIKAScgsCOdhZaEODzDRnDOLyIfubzjnQ3AH/cyiBAOAAwTdgLQcL+DL+zTH0PPipLzvyx9T14jKjyUp9v81BRIYpfIaAQUAjYAYFCCQJ0vXpPxs2XEFPsgPE7vwn7Vv6I4a22ZIhcOABgnNWI4OPp2Qe6DRISIaI+a95uVUPB3UPovkfUzffAL5UUAgoBhYCDEGjfVKcHAbo+rEID9gZ62B3JLskNjD3j81UPkm2QJiqQg1gA0H33PQGdA8d9GIPuu6HtAoYj+CoAEMBPsSoEFAL2Q8DJQYAGiXsR0XzM+aPaDlNPvNh+AeAQd4e1MtypZVj/Z9UZB6HL925Vw34m0ykF5dW7CZnKOagpACEEFbNCQCGQawTS0efEIMAwasajb3Zeo2Ufw1svdSl54QAAGK9A0LJOZZU7Zc2bb0YJtgsvKJBvDJR+hYBCQCHQFgJOCgIMY0Q3MPkDbflhqzIG02iaQpZN4gEAMKHn4cr6DZDlS87llFYI2y56E0HOfVYKFQIKgWJGIDPfnRIEMLPxLPSsP5LdU3fGk5fJMlJCAABCN0u4ugnFD7JwyEqOW3QtAAAVAID6KAQUAoWMgAOCAI0Dn+KUY8AYv3DnnsPpZUPCJosHAEwwACjrKuxEvgS4ugjbLuUg5st/pVchoBAoLgSy9ZaCALu+OwDn/scBsGpwzqe8sbT5ZBnmigcAMqxQMhQCCgGFgEKgoBGw+t0BLsY3GrqfZ0o49/9vWcAPqWBw/XgPzP5jCdTdVJYiylMZ7ZOlh3Eu/PZdskU8AOCwiQRlS8nGH7NlzTtfcouw7ULY5R0AZYBCQCFQRAiIu0ojAUmL3h0gbl32EjxugL+d4IFZU0vg3INcUGNo0LUEUkR5KqN9N07wANXNXtNPnKO2rsL7U0E2GfEAAMQCgMRm5/aBic2bs8F8Wx7nOr+tFyqvEFAIKATSRKDQggDq0J89twTOGu0Cl8baRYH2nX2AC6gu8bRbMb0dDJKuQ9Or2n4trf1d6e7hQr1gU2hVuopsV68ptFLUJhUAiCKo+BUCCoGcICBTSSEFAdOO98AB1el3pVT32nE4ZCAIKGd8X0ERkL7V7WniLNTernTKG+t/SKeaLeuI2y6GnS1BUUYpBBQCCoE0ECiEIIDm9U/fL/Nu9Mz9W6YJ0oCp/SqCi/CR4MwtJ65tiDMIbPMz42xD7TcZ89iFYXPwa0FTuBB2gsoVu0JAIaAQSBMBa6o5PQg4ZZS7w2H/9lCj6YDfjnK1tzvNci785IJwAMBArBPb+PWXAJyn6bB9qnFuwqZv0HYBk3C2SAUAAvgpVoWAQsD5CDg5CDjIj2fxLA/BQTWi3S8Tfoxc1ALAeQihTiyxcR00LFuaJYT5Y2uoXQKJTRuEDDCZWPAkpFwxKwQUAgqBNBGwuppTg4DK3tl3oQN6Zx88bD0eQovwkYzsrSduJLdb+xw3QpfwsQ/eQRHOSmvnvi1qsOnxuL4QFaL4FQIKAYVAISDg1CDAydgLBwD19cEYArAIKeu0dt57YDY1Zs2fa0Z6/n/Np7OF1GLst3DVqqVrhIQoZoWAQkAhYDkCuVPgtCCgfp2ZNTgr1wldN5Ne4afIhAMAsgIYvJ/aZvmV3LwJIrNmZMmde7borOmQFF0DQBCz3HutNCoEFAIKAesRcFIQMDeYfSf+QSD74KHlKPB1Ldvsv+UEACYXCgDI/PDrz0OycQtlbU3JLQ0QmvGiuI0c3hMXoiQoBBQCCgFrEciHdKcEAc99moSkmXkQQDzPzU8KQstqBQVIWAcALfCUbaHOTOiOuPi6tbD65SdQmr1T/Yv/BLpxUcRKbC7rynuawkGTiA2KVyGgEFAI2BkBJwQBgbAJT36ceUf+xLwkBEOCIwCCj+DTsZcyArBy5Uq6dH+JBIpQeOYr8OO3QRERlvI21C2FyNvi741gjL1YV1fXZKmxSrhCQCGgEBBGIL8CWoMAADYXbPqZNiMBH9am35lT3euRR9QdxtknojKkBABkBLr/FG1FiCeSsOzuaZD8sUFEjCW8iYbN8O091wNPJoXlc4CnhYUoAQoBhYBCoAgQoCCgb9R1FLoL+b6DAAAJAElEQVR6P5L4CRiFyEzxBMBpjzfDPz5KdDgdgN0bPP5BEk57rBni4l6YmoeL3YmOIEgLAKLR4Ecorw5JKDWF62H5/X+T0tEKGbINM3X6y++7AZoiq7cpzS7LAIKRSODj7LgVl0JAIaAQyB0CdtG0GBY3h6PBi5jL3AOA3w0cvkHbbHOlSEHAVa8m4PA74vDo3CQsDXFoaIIUUf6RuQk44s5muOa1uIzOH12HT7c+gUf5rElaAIAWcPzchlvhtH7Bx/DdY3fgcebCsoQFcA4rHrkNNnzxH2FRJIADuxW3HEklhYBCQCGgEMgAgVCo7ptwtPbScCy4ezgaLEdiogScjc/AhA6r0rz+ddPjcNhtTVD958YUUX7a9IT4nP82mjnjUkaRZQYA0KMXfxJ7NuFX5JGfsdkzUx0vXX3T73wQ6V7+0C2wRnzRnxbzGfseh7KkHLgWgepbIaAQUAhYhUBxyA3HAq/TyKyDvN1U1lT2ggx7pQYAdXV1TQzY7TIMIxkUBNTdcXVe7gmgOf+62/4ir/NHhxjnt9JQFmZVUggoBBQCCgF7IGACg3vsYUrnVuBI+0Pfb/hqXec1O68hNQAgdZ7ShkdxuwxJStqw4BNYfMV58OMyoVcOZGQL3e2/5MrzpA37k3KGc//lPc3HKa9IIaAQUAjYHYFiso+zsifR3x+Q7J42MpeJ8+NyzJQeANAjgZxpk+SY1yKlKVIPS66eBN8/cT/QQjwtpfK/aTnilc89CkuvmSzlhr8dLLyERkh2KFM/FQIKAYWAQiDPCITDixrwIu2CPJuRhnp2TTi8LJJGxbSqSA8ASGsksvRt3L6KJC3RfHxk5ivw9ZQzIPT6C1JXDaS1/UPTn4dFk0+B0Gv/B6RLmuEtgl4MRYMzW7LqWyGgEFAI2B2B4rMPz9FvotcSlnlFKVYkBvPD0X4PyBRtSQBABrqSySnAYC3lZVJ8w1pY+fTDsGjSb+C7v98NDbWLs3tagHPYHPwGvn/sTuz4T4KVzz4ivMJfO37Gkpxd2s4+VawQUAgoBBQCNkGAs/jFaMoqJLul9cDYyQBzEjINsywAqF+77Acw2dloLEeSnuhlPNF3XoMlV02CL887IbWAUPiNl2Hjl/+BpvofILF5I/BEIkWUpzLaF3r9JVh213Xw5e8nwNKrJ0Pk3RniL/Zp3zuOw0pnxmKB+varqD0KAYWAQsBeCBSrNZHI8jCetI9F/zci2SUlsB85NRwOLJdtkGUBABkajgWmMwZ3Ud5KSmxcD+s+mQM/PPUA/H/27iU0riqMA/h3Jq1BNBYaqVBQF1rJQtQWwUXQgpJKK1pcVBdqQawLsfWBikW6lUJFQW2LC11VN+pGUCtVCBUREaKNQtt7J7ZBTTP3nDtNajY6mczx/00S0NBXmrnP/odzZuaemTn3O79ZnG/ua8LdO+XXF7fKkac2y9BjA+2qz7VNX/vzwH6Z+OGwNKfOJBlSu2/v/Rtzm5Xay7yjAAUoQIF8C1gbDnvT2oIop1GzLshHZFtS80iiCYDK1WzPTmwC+FafX2Z10MbX7LrMxszhUoACFCi8gLUjh6RiNAnI8mqDTfzyfxKTv56hkIhp4gmAyNB0Y7qhV1r6JZER/K/T3CwMN5rNh3XsuYmIgVCAAhSgwEULYJP7ZxXfugcfyOKYgElM/puTnPwxLkkhARCZnBydnPFmI1Y4ilr2cnLGd22cmDiR/D6GsktyfBSgAAUyFBiPR35qtuQuMZLe37cb+VEqZh0mfz0rIdHRp5IA6Aj0QLiWzAzgeccPZECf7ZKDu5PYdzQQx8fGcxALQ6AABShAgSUK1OvhWGTD+7w3j6OrCDWp8peIeSGyq/ux9SGVeTK1BEBwc+63Efw67sfTMu4OGNaxWTvSsasgwomFAhSgAAVyIGDj4KN/pht9IuZ1EbGonSpT3vs9UplZE7ng7U6f6ne+IFNNADQQ/XUMxPUi5rB09JZpZ4ONZnO9ji3TKLhyClCAAhRITGASu7MxSe/qWdG6wRvzBPbTf4eVXcq5+R6f+94b/0x3o/tGG1df7eQV/tD3RZXUEwCNahbx6gHjjf5xkEJocxErEje/J3KrN0xwn38Rvz/GTAEKUGDRAnpZd2uDD2suvHvGm5UtaR/jthsdfY0JLUDVP+tpipEG2upY1raDxshbRswjXctlVeTCfmur73Xqj32wnkWXTBKA2SiHpmtx8Ip4/xCW66hLKhl8uG68f1AztzQ32WQwTq6SAhSgAAXOIRDHwZRzwVeY0F9D3WBd2Ie6Es+XRzbsxuO1WNa2TTUbvlRzwSenToXxObpLtTnDBGB2nFFc/bzZktu9+E9nWwpx/zGyvttqcfWLQkTLIClAAQpQgAILBDJPADQePcrSuuoW7BK4F8vHUBdZUnv7iG7qiVz4KLI+Xt43NXauiAIUoAAFOi2QiwRgflC1OBjsWdFaa0R2oO0P1HwUY35HTNsR260Om3ryERSjoAAFKEABCly6QK4SAB2GHlxRc+HeXrfsZvHytIivavv5alKvYdIPRcy2Xtu1BjHt09iENwpQgAIUoEAJBHKXAMybHpWjjSgO349c9ZaKr9wpYt4RkTQOnDhjvBzwxg9g0u+LXPCBxoJ1s1CAAhSgAAVKI5DbBOC/wuPx8SFMxM9feVXjevwqf0BPpcDrR1BbIrhfWmmhz5/R55t43ITN/NfV4nCrtdVv0K1HZaEABShAAQqUTqAQCcC8+ujo6N81F36pp1JELly77IrKKv2ljol7O96zV8QcEpFh1BNi5DRqY66ebre1X2u/511M+M/qZ7UP9LkOfb6Mx4PczA8pFgpQgAIUKL1AoRKAhd/G2Njxuv5Sx8S9DwnBjsgF9+PxDtSbIhv2onbP1d52mwvxWvs9z2HC36+f1T4W9stlClCAAhSgQNkFCp0AlP3L4fgoQAEKUIACSQkUPAFIioX9UoACFKAABcotwASg3N8vR0cBClCAAhQ4q0ChE4CzjoiNFKAABShAAQpcUIAJwAWJ+AYKUIACFKBA+QQKnACU78vgiChAAQpQgAJpCTABSEua66EABShAAQrkSOBfAAAA///R4i5JAAAABklEQVQDAGU/lPw0iz/bAAAAAElFTkSuQmCC;" vertex="1" parent="1">
          <mxGeometry x="747.5" y="380" width="60" height="60" as="geometry" />
        </mxCell>
        <mxCell id="EOPVycMYMV6uETsPwLMP-56" value="&lt;font style=&quot;color: rgb(0, 0, 0);&quot;&gt;&lt;b&gt;Reporting&lt;/b&gt;&lt;/font&gt;" style="text;html=1;align=center;verticalAlign=middle;whiteSpace=wrap;rounded=0;" vertex="1" parent="1">
          <mxGeometry x="747.5" y="214.5" width="60" height="30" as="geometry" />
        </mxCell>
        <mxCell id="EOPVycMYMV6uETsPwLMP-58" value="&lt;font style=&quot;color: rgb(0, 0, 0);&quot;&gt;&lt;b&gt;Ad-Hoc&lt;/b&gt;&lt;/font&gt;&lt;div&gt;&lt;font style=&quot;color: rgb(0, 0, 0);&quot;&gt;&lt;b&gt;SQL Queries&lt;/b&gt;&lt;/font&gt;&lt;/div&gt;" style="text;html=1;align=center;verticalAlign=middle;whiteSpace=wrap;rounded=0;" vertex="1" parent="1">
          <mxGeometry x="736.25" y="325" width="77.5" height="30" as="geometry" />
        </mxCell>
        <mxCell id="EOPVycMYMV6uETsPwLMP-59" value="&lt;font style=&quot;color: rgb(0, 0, 0);&quot;&gt;&lt;b&gt;Machine Learning&lt;/b&gt;&lt;/font&gt;" style="text;html=1;align=center;verticalAlign=middle;whiteSpace=wrap;rounded=0;" vertex="1" parent="1">
          <mxGeometry x="747.5" y="450" width="60" height="30" as="geometry" />
        </mxCell>
        <mxCell id="EOPVycMYMV6uETsPwLMP-60" value="&lt;font style=&quot;font-size: 9px;&quot;&gt;&lt;b&gt;Raw Data&lt;/b&gt;&lt;/font&gt;" style="text;html=1;align=center;verticalAlign=middle;whiteSpace=wrap;rounded=0;" vertex="1" parent="1">
          <mxGeometry x="230" y="250" width="60" height="30" as="geometry" />
        </mxCell>
        <mxCell id="EOPVycMYMV6uETsPwLMP-61" value="&lt;font style=&quot;font-size: 9px;&quot;&gt;&lt;b&gt;Cleaned, Standardized Data&lt;/b&gt;&lt;/font&gt;" style="text;html=1;align=center;verticalAlign=middle;whiteSpace=wrap;rounded=0;" vertex="1" parent="1">
          <mxGeometry x="380" y="244.5" width="100" height="30" as="geometry" />
        </mxCell>
        <mxCell id="EOPVycMYMV6uETsPwLMP-62" value="&lt;font style=&quot;font-size: 9px;&quot;&gt;&lt;b&gt;Business Ready Data&lt;/b&gt;&lt;/font&gt;" style="text;html=1;align=center;verticalAlign=middle;whiteSpace=wrap;rounded=0;" vertex="1" parent="1">
          <mxGeometry x="545" y="244.5" width="100" height="30" as="geometry" />
        </mxCell>
        <mxCell id="EOPVycMYMV6uETsPwLMP-66" value="" style="shape=flexArrow;endArrow=classic;html=1;rounded=0;" edge="1" parent="1">
          <mxGeometry width="50" height="50" relative="1" as="geometry">
            <mxPoint x="140" y="339" as="sourcePoint" />
            <mxPoint x="200" y="339" as="targetPoint" />
          </mxGeometry>
        </mxCell>
        <mxCell id="EOPVycMYMV6uETsPwLMP-67" value="" style="shape=flexArrow;endArrow=classic;html=1;rounded=0;" edge="1" parent="1">
          <mxGeometry width="50" height="50" relative="1" as="geometry">
            <mxPoint x="320" y="339.5" as="sourcePoint" />
            <mxPoint x="380" y="339.5" as="targetPoint" />
          </mxGeometry>
        </mxCell>
        <mxCell id="EOPVycMYMV6uETsPwLMP-68" value="" style="shape=flexArrow;endArrow=classic;html=1;rounded=0;" edge="1" parent="1">
          <mxGeometry width="50" height="50" relative="1" as="geometry">
            <mxPoint x="492.5" y="340" as="sourcePoint" />
            <mxPoint x="552.5" y="340" as="targetPoint" />
          </mxGeometry>
        </mxCell>
        <mxCell id="EOPVycMYMV6uETsPwLMP-70" value="" style="shape=flexArrow;endArrow=classic;html=1;rounded=0;" edge="1" parent="1">
          <mxGeometry width="50" height="50" relative="1" as="geometry">
            <mxPoint x="660" y="340.5" as="sourcePoint" />
            <mxPoint x="720" y="340.5" as="targetPoint" />
            <Array as="points">
              <mxPoint x="690" y="341" />
            </Array>
          </mxGeometry>
        </mxCell>
      </root>
    </mxGraphModel>
  </diagram>
</mxfile>
